%TF.GenerationSoftware,KiCad,Pcbnew,(5.1.6-0)*%
%TF.CreationDate,2022-11-03T10:15:40+01:00*%
%TF.ProjectId,Monitorswitch,4d6f6e69-746f-4727-9377-697463682e6b,rev?*%
%TF.SameCoordinates,Original*%
%TF.FileFunction,Legend,Top*%
%TF.FilePolarity,Positive*%
%FSLAX46Y46*%
G04 Gerber Fmt 4.6, Leading zero omitted, Abs format (unit mm)*
G04 Created by KiCad (PCBNEW (5.1.6-0)) date 2022-11-03 10:15:40*
%MOMM*%
%LPD*%
G01*
G04 APERTURE LIST*
%ADD10C,0.120000*%
%ADD11C,0.150000*%
G04 APERTURE END LIST*
D10*
%TO.C,U3*%
X128974600Y-105613600D02*
X126524600Y-105613600D01*
X127174600Y-108833600D02*
X128974600Y-108833600D01*
%TO.C,U2*%
X128984400Y-109779200D02*
X126534400Y-109779200D01*
X127184400Y-112999200D02*
X128984400Y-112999200D01*
%TO.C,J3*%
X140050000Y-84410000D02*
X140050000Y-93040000D01*
X139931905Y-84410000D02*
X139931905Y-93040000D01*
X139813810Y-84410000D02*
X139813810Y-93040000D01*
X139695715Y-84410000D02*
X139695715Y-93040000D01*
X139577620Y-84410000D02*
X139577620Y-93040000D01*
X139459525Y-84410000D02*
X139459525Y-93040000D01*
X139341430Y-84410000D02*
X139341430Y-93040000D01*
X139223335Y-84410000D02*
X139223335Y-93040000D01*
X139105240Y-84410000D02*
X139105240Y-93040000D01*
X138987145Y-84410000D02*
X138987145Y-93040000D01*
X138869050Y-84410000D02*
X138869050Y-93040000D01*
X138750955Y-84410000D02*
X138750955Y-93040000D01*
X138632860Y-84410000D02*
X138632860Y-93040000D01*
X138514765Y-84410000D02*
X138514765Y-93040000D01*
X138396670Y-84410000D02*
X138396670Y-93040000D01*
X138278575Y-84410000D02*
X138278575Y-93040000D01*
X138160480Y-84410000D02*
X138160480Y-93040000D01*
X138042385Y-84410000D02*
X138042385Y-93040000D01*
X137924290Y-84410000D02*
X137924290Y-93040000D01*
X137806195Y-84410000D02*
X137806195Y-93040000D01*
X137688100Y-84410000D02*
X137688100Y-93040000D01*
X139200000Y-93040000D02*
X139200000Y-93390000D01*
X138480000Y-93040000D02*
X138480000Y-93390000D01*
X136660000Y-93040000D02*
X136660000Y-93450000D01*
X135940000Y-93040000D02*
X135940000Y-93450000D01*
X134120000Y-93040000D02*
X134120000Y-93450000D01*
X133400000Y-93040000D02*
X133400000Y-93450000D01*
X137570000Y-84410000D02*
X137570000Y-93040000D01*
X135030000Y-84410000D02*
X135030000Y-93040000D01*
X140170000Y-84410000D02*
X140170000Y-93040000D01*
X140170000Y-93040000D02*
X132430000Y-93040000D01*
X132430000Y-84410000D02*
X132430000Y-93040000D01*
X140170000Y-84410000D02*
X132430000Y-84410000D01*
X140170000Y-95610000D02*
X138840000Y-95610000D01*
X140170000Y-94500000D02*
X140170000Y-95610000D01*
%TO.C,J1*%
X146320000Y-100610000D02*
X155440000Y-100610000D01*
X146320000Y-104710000D02*
X155440000Y-104710000D01*
X146320000Y-92370000D02*
X155440000Y-92370000D01*
X155440000Y-92370000D02*
X155440000Y-112950000D01*
X155440000Y-112950000D02*
X146320000Y-112950000D01*
X146320000Y-112950000D02*
X146320000Y-92370000D01*
X140700000Y-97580000D02*
X139700000Y-97080000D01*
X139700000Y-97080000D02*
X139700000Y-98080000D01*
X139700000Y-98080000D02*
X140700000Y-97580000D01*
%TO.C,R1*%
X133490000Y-111696267D02*
X133490000Y-111353733D01*
X134510000Y-111696267D02*
X134510000Y-111353733D01*
%TO.C,J2*%
X119730000Y-95070000D02*
X122330000Y-95070000D01*
X119730000Y-95070000D02*
X119730000Y-112970000D01*
X119730000Y-112970000D02*
X124930000Y-112970000D01*
X124930000Y-97670000D02*
X124930000Y-112970000D01*
X122330000Y-97670000D02*
X124930000Y-97670000D01*
X122330000Y-95070000D02*
X122330000Y-97670000D01*
X124930000Y-95070000D02*
X124930000Y-96400000D01*
X123600000Y-95070000D02*
X124930000Y-95070000D01*
%TO.C,FB2*%
X135403733Y-96590000D02*
X135746267Y-96590000D01*
X135403733Y-97610000D02*
X135746267Y-97610000D01*
%TO.C,FB1*%
X135378733Y-98440000D02*
X135721267Y-98440000D01*
X135378733Y-99460000D02*
X135721267Y-99460000D01*
%TO.C,C4*%
X136917500Y-111631252D02*
X136917500Y-111108748D01*
X135497500Y-111631252D02*
X135497500Y-111108748D01*
%TO.C,C3*%
X132060000Y-107446267D02*
X132060000Y-107103733D01*
X131040000Y-107446267D02*
X131040000Y-107103733D01*
%TO.C,C2*%
X132060000Y-111696267D02*
X132060000Y-111353733D01*
X131040000Y-111696267D02*
X131040000Y-111353733D01*
%TO.C,C1*%
X133360000Y-98196267D02*
X133360000Y-97853733D01*
X132340000Y-98196267D02*
X132340000Y-97853733D01*
%TO.C,U1*%
X126265000Y-98900000D02*
X126265000Y-102500000D01*
X126265000Y-98900000D02*
X126265000Y-96700000D01*
X131735000Y-98900000D02*
X131735000Y-101100000D01*
X131735000Y-98900000D02*
X131735000Y-96700000D01*
%TO.C,U3*%
D11*
X125131580Y-107975304D02*
X125941104Y-107975304D01*
X126036342Y-107927685D01*
X126083961Y-107880066D01*
X126131580Y-107784828D01*
X126131580Y-107594352D01*
X126083961Y-107499114D01*
X126036342Y-107451495D01*
X125941104Y-107403876D01*
X125131580Y-107403876D01*
X125131580Y-107022923D02*
X125131580Y-106403876D01*
X125512533Y-106737209D01*
X125512533Y-106594352D01*
X125560152Y-106499114D01*
X125607771Y-106451495D01*
X125703009Y-106403876D01*
X125941104Y-106403876D01*
X126036342Y-106451495D01*
X126083961Y-106499114D01*
X126131580Y-106594352D01*
X126131580Y-106880066D01*
X126083961Y-106975304D01*
X126036342Y-107022923D01*
%TO.C,U2*%
X125156980Y-112166304D02*
X125966504Y-112166304D01*
X126061742Y-112118685D01*
X126109361Y-112071066D01*
X126156980Y-111975828D01*
X126156980Y-111785352D01*
X126109361Y-111690114D01*
X126061742Y-111642495D01*
X125966504Y-111594876D01*
X125156980Y-111594876D01*
X125252219Y-111166304D02*
X125204600Y-111118685D01*
X125156980Y-111023447D01*
X125156980Y-110785352D01*
X125204600Y-110690114D01*
X125252219Y-110642495D01*
X125347457Y-110594876D01*
X125442695Y-110594876D01*
X125585552Y-110642495D01*
X126156980Y-111213923D01*
X126156980Y-110594876D01*
%TO.C,J3*%
X141062380Y-90453333D02*
X141776666Y-90453333D01*
X141919523Y-90500952D01*
X142014761Y-90596190D01*
X142062380Y-90739047D01*
X142062380Y-90834285D01*
X141062380Y-90072380D02*
X141062380Y-89453333D01*
X141443333Y-89786666D01*
X141443333Y-89643809D01*
X141490952Y-89548571D01*
X141538571Y-89500952D01*
X141633809Y-89453333D01*
X141871904Y-89453333D01*
X141967142Y-89500952D01*
X142014761Y-89548571D01*
X142062380Y-89643809D01*
X142062380Y-89929523D01*
X142014761Y-90024761D01*
X141967142Y-90072380D01*
%TO.C,J1*%
X147931666Y-90932380D02*
X147931666Y-91646666D01*
X147884047Y-91789523D01*
X147788809Y-91884761D01*
X147645952Y-91932380D01*
X147550714Y-91932380D01*
X148931666Y-91932380D02*
X148360238Y-91932380D01*
X148645952Y-91932380D02*
X148645952Y-90932380D01*
X148550714Y-91075238D01*
X148455476Y-91170476D01*
X148360238Y-91218095D01*
%TO.C,R1*%
X133933333Y-109902380D02*
X133600000Y-109426190D01*
X133361904Y-109902380D02*
X133361904Y-108902380D01*
X133742857Y-108902380D01*
X133838095Y-108950000D01*
X133885714Y-108997619D01*
X133933333Y-109092857D01*
X133933333Y-109235714D01*
X133885714Y-109330952D01*
X133838095Y-109378571D01*
X133742857Y-109426190D01*
X133361904Y-109426190D01*
X134885714Y-109902380D02*
X134314285Y-109902380D01*
X134600000Y-109902380D02*
X134600000Y-108902380D01*
X134504761Y-109045238D01*
X134409523Y-109140476D01*
X134314285Y-109188095D01*
%TO.C,J2*%
X121996666Y-93082380D02*
X121996666Y-93796666D01*
X121949047Y-93939523D01*
X121853809Y-94034761D01*
X121710952Y-94082380D01*
X121615714Y-94082380D01*
X122425238Y-93177619D02*
X122472857Y-93130000D01*
X122568095Y-93082380D01*
X122806190Y-93082380D01*
X122901428Y-93130000D01*
X122949047Y-93177619D01*
X122996666Y-93272857D01*
X122996666Y-93368095D01*
X122949047Y-93510952D01*
X122377619Y-94082380D01*
X122996666Y-94082380D01*
%TO.C,FB2*%
X137520466Y-97083571D02*
X137187133Y-97083571D01*
X137187133Y-97607380D02*
X137187133Y-96607380D01*
X137663323Y-96607380D01*
X138377609Y-97083571D02*
X138520466Y-97131190D01*
X138568085Y-97178809D01*
X138615704Y-97274047D01*
X138615704Y-97416904D01*
X138568085Y-97512142D01*
X138520466Y-97559761D01*
X138425228Y-97607380D01*
X138044276Y-97607380D01*
X138044276Y-96607380D01*
X138377609Y-96607380D01*
X138472847Y-96655000D01*
X138520466Y-96702619D01*
X138568085Y-96797857D01*
X138568085Y-96893095D01*
X138520466Y-96988333D01*
X138472847Y-97035952D01*
X138377609Y-97083571D01*
X138044276Y-97083571D01*
X138996657Y-96702619D02*
X139044276Y-96655000D01*
X139139514Y-96607380D01*
X139377609Y-96607380D01*
X139472847Y-96655000D01*
X139520466Y-96702619D01*
X139568085Y-96797857D01*
X139568085Y-96893095D01*
X139520466Y-97035952D01*
X138949038Y-97607380D01*
X139568085Y-97607380D01*
%TO.C,FB1*%
X137520466Y-98937771D02*
X137187133Y-98937771D01*
X137187133Y-99461580D02*
X137187133Y-98461580D01*
X137663323Y-98461580D01*
X138377609Y-98937771D02*
X138520466Y-98985390D01*
X138568085Y-99033009D01*
X138615704Y-99128247D01*
X138615704Y-99271104D01*
X138568085Y-99366342D01*
X138520466Y-99413961D01*
X138425228Y-99461580D01*
X138044276Y-99461580D01*
X138044276Y-98461580D01*
X138377609Y-98461580D01*
X138472847Y-98509200D01*
X138520466Y-98556819D01*
X138568085Y-98652057D01*
X138568085Y-98747295D01*
X138520466Y-98842533D01*
X138472847Y-98890152D01*
X138377609Y-98937771D01*
X138044276Y-98937771D01*
X139568085Y-99461580D02*
X138996657Y-99461580D01*
X139282371Y-99461580D02*
X139282371Y-98461580D01*
X139187133Y-98604438D01*
X139091895Y-98699676D01*
X138996657Y-98747295D01*
%TO.C,C4*%
X137964642Y-111561666D02*
X138012261Y-111609285D01*
X138059880Y-111752142D01*
X138059880Y-111847380D01*
X138012261Y-111990238D01*
X137917023Y-112085476D01*
X137821785Y-112133095D01*
X137631309Y-112180714D01*
X137488452Y-112180714D01*
X137297976Y-112133095D01*
X137202738Y-112085476D01*
X137107500Y-111990238D01*
X137059880Y-111847380D01*
X137059880Y-111752142D01*
X137107500Y-111609285D01*
X137155119Y-111561666D01*
X137393214Y-110704523D02*
X138059880Y-110704523D01*
X137012261Y-110942619D02*
X137726547Y-111180714D01*
X137726547Y-110561666D01*
%TO.C,C3*%
X131383333Y-105457142D02*
X131335714Y-105504761D01*
X131192857Y-105552380D01*
X131097619Y-105552380D01*
X130954761Y-105504761D01*
X130859523Y-105409523D01*
X130811904Y-105314285D01*
X130764285Y-105123809D01*
X130764285Y-104980952D01*
X130811904Y-104790476D01*
X130859523Y-104695238D01*
X130954761Y-104600000D01*
X131097619Y-104552380D01*
X131192857Y-104552380D01*
X131335714Y-104600000D01*
X131383333Y-104647619D01*
X131716666Y-104552380D02*
X132335714Y-104552380D01*
X132002380Y-104933333D01*
X132145238Y-104933333D01*
X132240476Y-104980952D01*
X132288095Y-105028571D01*
X132335714Y-105123809D01*
X132335714Y-105361904D01*
X132288095Y-105457142D01*
X132240476Y-105504761D01*
X132145238Y-105552380D01*
X131859523Y-105552380D01*
X131764285Y-105504761D01*
X131716666Y-105457142D01*
%TO.C,C2*%
X131433333Y-109807142D02*
X131385714Y-109854761D01*
X131242857Y-109902380D01*
X131147619Y-109902380D01*
X131004761Y-109854761D01*
X130909523Y-109759523D01*
X130861904Y-109664285D01*
X130814285Y-109473809D01*
X130814285Y-109330952D01*
X130861904Y-109140476D01*
X130909523Y-109045238D01*
X131004761Y-108950000D01*
X131147619Y-108902380D01*
X131242857Y-108902380D01*
X131385714Y-108950000D01*
X131433333Y-108997619D01*
X131814285Y-108997619D02*
X131861904Y-108950000D01*
X131957142Y-108902380D01*
X132195238Y-108902380D01*
X132290476Y-108950000D01*
X132338095Y-108997619D01*
X132385714Y-109092857D01*
X132385714Y-109188095D01*
X132338095Y-109330952D01*
X131766666Y-109902380D01*
X132385714Y-109902380D01*
%TO.C,C1*%
X132675333Y-100585542D02*
X132627714Y-100633161D01*
X132484857Y-100680780D01*
X132389619Y-100680780D01*
X132246761Y-100633161D01*
X132151523Y-100537923D01*
X132103904Y-100442685D01*
X132056285Y-100252209D01*
X132056285Y-100109352D01*
X132103904Y-99918876D01*
X132151523Y-99823638D01*
X132246761Y-99728400D01*
X132389619Y-99680780D01*
X132484857Y-99680780D01*
X132627714Y-99728400D01*
X132675333Y-99776019D01*
X133627714Y-100680780D02*
X133056285Y-100680780D01*
X133342000Y-100680780D02*
X133342000Y-99680780D01*
X133246761Y-99823638D01*
X133151523Y-99918876D01*
X133056285Y-99966495D01*
%TO.C,U1*%
X125002380Y-99661904D02*
X125811904Y-99661904D01*
X125907142Y-99614285D01*
X125954761Y-99566666D01*
X126002380Y-99471428D01*
X126002380Y-99280952D01*
X125954761Y-99185714D01*
X125907142Y-99138095D01*
X125811904Y-99090476D01*
X125002380Y-99090476D01*
X126002380Y-98090476D02*
X126002380Y-98661904D01*
X126002380Y-98376190D02*
X125002380Y-98376190D01*
X125145238Y-98471428D01*
X125240476Y-98566666D01*
X125288095Y-98661904D01*
%TD*%
M02*
