%TF.GenerationSoftware,KiCad,Pcbnew,(5.1.6-0)*%
%TF.CreationDate,2022-11-03T10:15:40+01:00*%
%TF.ProjectId,Monitorswitch,4d6f6e69-746f-4727-9377-697463682e6b,rev?*%
%TF.SameCoordinates,Original*%
%TF.FileFunction,Copper,L2,Bot*%
%TF.FilePolarity,Positive*%
%FSLAX46Y46*%
G04 Gerber Fmt 4.6, Leading zero omitted, Abs format (unit mm)*
G04 Created by KiCad (PCBNEW (5.1.6-0)) date 2022-11-03 10:15:40*
%MOMM*%
%LPD*%
G01*
G04 APERTURE LIST*
%TA.AperFunction,ComponentPad*%
%ADD10O,1.700000X1.700000*%
%TD*%
%TA.AperFunction,ComponentPad*%
%ADD11R,1.700000X1.700000*%
%TD*%
%TA.AperFunction,ComponentPad*%
%ADD12C,1.700000*%
%TD*%
%TA.AperFunction,ViaPad*%
%ADD13C,0.800000*%
%TD*%
%TA.AperFunction,Conductor*%
%ADD14C,0.250000*%
%TD*%
%TA.AperFunction,Conductor*%
%ADD15C,0.254000*%
%TD*%
G04 APERTURE END LIST*
D10*
%TO.P,J3,3*%
%TO.N,/SWI*%
X133760000Y-94500000D03*
%TO.P,J3,2*%
%TO.N,GND*%
X136300000Y-94500000D03*
D11*
%TO.P,J3,1*%
%TO.N,+5V*%
X138840000Y-94500000D03*
%TD*%
D12*
%TO.P,J1,10*%
%TO.N,Net-(J1-Pad10)*%
X144590000Y-107740000D03*
%TO.P,J1,8*%
%TO.N,Net-(J1-Pad8)*%
X144590000Y-105200000D03*
%TO.P,J1,6*%
%TO.N,Net-(J1-Pad6)*%
X144590000Y-102660000D03*
%TO.P,J1,4*%
%TO.N,GNDA*%
X144590000Y-100120000D03*
%TO.P,J1,2*%
X144590000Y-97580000D03*
%TO.P,J1,9*%
%TO.N,/V_GFX*%
X142050000Y-107740000D03*
%TO.P,J1,7*%
%TO.N,/H_GFX*%
X142050000Y-105200000D03*
%TO.P,J1,5*%
%TO.N,/B_GFX*%
X142050000Y-102660000D03*
%TO.P,J1,3*%
%TO.N,/G_GFX*%
X142050000Y-100120000D03*
%TO.P,J1,1*%
%TO.N,/R_GFX*%
%TA.AperFunction,ComponentPad*%
G36*
G01*
X141200000Y-98180000D02*
X141200000Y-96980000D01*
G75*
G02*
X141450000Y-96730000I250000J0D01*
G01*
X142650000Y-96730000D01*
G75*
G02*
X142900000Y-96980000I0J-250000D01*
G01*
X142900000Y-98180000D01*
G75*
G02*
X142650000Y-98430000I-250000J0D01*
G01*
X141450000Y-98430000D01*
G75*
G02*
X141200000Y-98180000I0J250000D01*
G01*
G37*
%TD.AperFunction*%
%TD*%
D10*
%TO.P,J2,14*%
%TO.N,/H_OUT*%
X121060000Y-111640000D03*
%TO.P,J2,13*%
%TO.N,/H_A*%
X123600000Y-111640000D03*
%TO.P,J2,12*%
%TO.N,/V_OUT*%
X121060000Y-109100000D03*
%TO.P,J2,11*%
%TO.N,/V_A*%
X123600000Y-109100000D03*
%TO.P,J2,10*%
%TO.N,GNDA*%
X121060000Y-106560000D03*
%TO.P,J2,9*%
X123600000Y-106560000D03*
%TO.P,J2,8*%
%TO.N,/B_OUT*%
X121060000Y-104020000D03*
%TO.P,J2,7*%
%TO.N,/B_A*%
X123600000Y-104020000D03*
%TO.P,J2,6*%
%TO.N,/G_OUT*%
X121060000Y-101480000D03*
%TO.P,J2,5*%
%TO.N,/G_A*%
X123600000Y-101480000D03*
%TO.P,J2,4*%
%TO.N,/R_OUT*%
X121060000Y-98940000D03*
%TO.P,J2,3*%
%TO.N,/R_A*%
X123600000Y-98940000D03*
%TO.P,J2,2*%
%TO.N,GNDA*%
X121060000Y-96400000D03*
D11*
%TO.P,J2,1*%
X123600000Y-96400000D03*
%TD*%
D13*
%TO.N,/SWI*%
X129000000Y-97425000D03*
X130474062Y-94475937D03*
X130276600Y-106426000D03*
X130350000Y-110436400D03*
%TO.N,/V_OUT*%
X129019999Y-109046812D03*
%TO.N,/V_A*%
X126085600Y-106273600D03*
%TO.N,GND*%
X140000000Y-105400000D03*
X135600000Y-105200000D03*
X125476000Y-109728000D03*
X119126000Y-110998000D03*
X136969500Y-110363000D03*
X125831600Y-107315000D03*
X132689600Y-106400600D03*
X125476000Y-111404400D03*
X119278400Y-112623600D03*
X144983200Y-112598200D03*
X143535400Y-109321600D03*
X137972800Y-112649000D03*
X138074400Y-109829600D03*
X131572000Y-109728000D03*
X127448255Y-105000028D03*
X138684000Y-107442000D03*
X134620000Y-109220000D03*
%TO.N,+5V*%
X132600000Y-108150000D03*
X136900000Y-100450000D03*
X132789787Y-111999950D03*
%TO.N,GNDA*%
X132000000Y-95225000D03*
X140450000Y-103700000D03*
X119380000Y-93980000D03*
X145034000Y-93726000D03*
X126746000Y-99237800D03*
X139395200Y-100584000D03*
X134442200Y-100863400D03*
X136702800Y-103682800D03*
X132105400Y-103682800D03*
X125443200Y-104716800D03*
X131495800Y-97866200D03*
%TD*%
D14*
%TO.N,/SWI*%
X129000000Y-95949999D02*
X130474062Y-94475937D01*
X129000000Y-97425000D02*
X129000000Y-95949999D01*
X130350000Y-106499400D02*
X130276600Y-106426000D01*
X130350000Y-108300000D02*
X130350000Y-106499400D01*
X130276600Y-98701600D02*
X129000000Y-97425000D01*
X130276600Y-106426000D02*
X130276600Y-98701600D01*
X130350000Y-110436400D02*
X130350000Y-110614200D01*
X130350000Y-108300000D02*
X130350000Y-110436400D01*
%TO.N,/V_OUT*%
X129209800Y-109016800D02*
X129184400Y-109042200D01*
X122413001Y-110453001D02*
X121060000Y-109100000D01*
X125824001Y-110453001D02*
X122413001Y-110453001D01*
X127234802Y-109042200D02*
X125824001Y-110453001D01*
X129184400Y-109042200D02*
X127234802Y-109042200D01*
%TO.N,/V_A*%
X123697001Y-109002999D02*
X123600000Y-109100000D01*
X125216603Y-109002999D02*
X123697001Y-109002999D01*
X126556601Y-107663001D02*
X125216603Y-109002999D01*
X126085600Y-106273600D02*
X126556601Y-106744601D01*
X126556601Y-106744601D02*
X126556601Y-107663001D01*
%TO.N,GND*%
X119659001Y-110464999D02*
X119126000Y-110998000D01*
X136969500Y-110363000D02*
X136525000Y-110363000D01*
X136300000Y-96135400D02*
X136296400Y-96139000D01*
X136300000Y-94500000D02*
X136300000Y-96135400D01*
X136296400Y-96139000D02*
X136296400Y-98704400D01*
X132035811Y-99688389D02*
X130726610Y-100997590D01*
X135312411Y-99688389D02*
X132035811Y-99688389D01*
X136296400Y-98704400D02*
X135312411Y-99688389D01*
X130726610Y-105803008D02*
X131298802Y-106375200D01*
X130726610Y-100997590D02*
X130726610Y-105803008D01*
X132664200Y-106375200D02*
X132689600Y-106400600D01*
X131298802Y-106375200D02*
X132664200Y-106375200D01*
X119075200Y-112420400D02*
X119278400Y-112623600D01*
X119075200Y-109296200D02*
X119075200Y-112420400D01*
X124164001Y-112815001D02*
X119469801Y-112815001D01*
X119469801Y-112815001D02*
X119278400Y-112623600D01*
X125476000Y-111503002D02*
X124164001Y-112815001D01*
X125476000Y-111404400D02*
X125476000Y-111503002D01*
X125831600Y-107315000D02*
X125603000Y-107315000D01*
X120446401Y-107924999D02*
X120408700Y-107962700D01*
X124993001Y-107924999D02*
X120446401Y-107924999D01*
X120408700Y-107962700D02*
X119075200Y-109296200D01*
X125603000Y-107315000D02*
X124993001Y-107924999D01*
X125476000Y-109728000D02*
X127508000Y-107696000D01*
X129794000Y-108458000D02*
X129794000Y-109728000D01*
X129032000Y-107696000D02*
X129794000Y-108458000D01*
X127508000Y-107696000D02*
X129032000Y-107696000D01*
X125360599Y-105925599D02*
X125737599Y-105548599D01*
X125360599Y-106843999D02*
X125360599Y-105925599D01*
X125831600Y-107315000D02*
X125360599Y-106843999D01*
X127138599Y-105548599D02*
X127138599Y-108065401D01*
X127138599Y-108065401D02*
X125476000Y-109728000D01*
X127448255Y-107755745D02*
X125476000Y-109728000D01*
X127448255Y-105000028D02*
X127448255Y-107755745D01*
X126861401Y-105548599D02*
X126899684Y-105548599D01*
X125737599Y-105548599D02*
X126861401Y-105548599D01*
X126899684Y-105548599D02*
X127448255Y-105000028D01*
X126861401Y-105548599D02*
X127138599Y-105548599D01*
X127448255Y-105000028D02*
X127448255Y-105215745D01*
X127138599Y-105525401D02*
X127138599Y-105548599D01*
X127448255Y-105215745D02*
X127138599Y-105525401D01*
%TO.N,+5V*%
X133525001Y-109075001D02*
X132600000Y-108150000D01*
X133037601Y-105675599D02*
X132341599Y-105675599D01*
X133414601Y-106052599D02*
X133037601Y-105675599D01*
X132099198Y-105918000D02*
X131478012Y-105918000D01*
X132341599Y-105675599D02*
X132099198Y-105918000D01*
X133414601Y-106748601D02*
X133414601Y-106052599D01*
X132600000Y-107563202D02*
X133414601Y-106748601D01*
X132600000Y-108150000D02*
X132600000Y-107563202D01*
X131478012Y-105918000D02*
X131176620Y-105616608D01*
X131176620Y-101207980D02*
X132246201Y-100138399D01*
X131176620Y-105616608D02*
X131176620Y-101207980D01*
X136588399Y-100138399D02*
X136900000Y-100450000D01*
X132246201Y-100138399D02*
X136588399Y-100138399D01*
X132873052Y-111999950D02*
X133525001Y-111348001D01*
X133525001Y-111274601D02*
X133525001Y-109075001D01*
X133525001Y-111348001D02*
X133525001Y-111274601D01*
X132789787Y-111999950D02*
X132873052Y-111999950D01*
%TO.N,GNDA*%
X122424999Y-98225001D02*
X122424999Y-105384999D01*
X122424999Y-105384999D02*
X123600000Y-106560000D01*
X123600000Y-97050000D02*
X122424999Y-98225001D01*
X123600000Y-96400000D02*
X123600000Y-97050000D01*
X121060000Y-106560000D02*
X123600000Y-106560000D01*
X130822063Y-93750936D02*
X126249064Y-93750936D01*
X126249064Y-93750936D02*
X125425000Y-94575000D01*
X131199063Y-94424063D02*
X131199063Y-94127936D01*
X132000000Y-95225000D02*
X131199063Y-94424063D01*
X125700000Y-94300000D02*
X125425000Y-94575000D01*
X125425000Y-94575000D02*
X123600000Y-96400000D01*
X131199063Y-94127936D02*
X130822063Y-93750936D01*
X123600000Y-106560000D02*
X123600000Y-106524000D01*
X123600000Y-106524000D02*
X126746000Y-103378000D01*
X119634000Y-94234000D02*
X119380000Y-93980000D01*
X126746000Y-94234000D02*
X119634000Y-94234000D01*
X126746000Y-99237800D02*
X126746000Y-94234000D01*
X126746000Y-103378000D02*
X126746000Y-99237800D01*
X141485999Y-103835001D02*
X145154001Y-103835001D01*
X141350998Y-103700000D02*
X141485999Y-103835001D01*
X140450000Y-103700000D02*
X141350998Y-103700000D01*
X145154001Y-103835001D02*
X145674990Y-103314012D01*
X145674990Y-93421200D02*
X145338800Y-93421200D01*
X145542000Y-101422200D02*
X145674990Y-101289210D01*
X145338800Y-93421200D02*
X145034000Y-93726000D01*
X143414999Y-102095999D02*
X144088798Y-101422200D01*
X145154001Y-103835001D02*
X144025999Y-103835001D01*
X144025999Y-103835001D02*
X143414999Y-103224001D01*
X144088798Y-101422200D02*
X145542000Y-101422200D01*
X145674990Y-101289210D02*
X145674990Y-93421200D01*
X143414999Y-103224001D02*
X143414999Y-102095999D01*
%TD*%
D15*
%TO.N,GND*%
G36*
X141149474Y-104283261D02*
G01*
X141051875Y-104380860D01*
X140911247Y-104591324D01*
X140814381Y-104825179D01*
X140765000Y-105073439D01*
X140765000Y-105326561D01*
X140814381Y-105574821D01*
X140911247Y-105808676D01*
X141051875Y-106019140D01*
X141230860Y-106198125D01*
X141441324Y-106338753D01*
X141675179Y-106435619D01*
X141848027Y-106470000D01*
X141675179Y-106504381D01*
X141441324Y-106601247D01*
X141230860Y-106741875D01*
X141051875Y-106920860D01*
X140911247Y-107131324D01*
X140814381Y-107365179D01*
X140765000Y-107613439D01*
X140765000Y-107866561D01*
X140814381Y-108114821D01*
X140911247Y-108348676D01*
X141051875Y-108559140D01*
X141230860Y-108738125D01*
X141441324Y-108878753D01*
X141675179Y-108975619D01*
X141923439Y-109025000D01*
X142176561Y-109025000D01*
X142424821Y-108975619D01*
X142658676Y-108878753D01*
X142869140Y-108738125D01*
X143048125Y-108559140D01*
X143188753Y-108348676D01*
X143285619Y-108114821D01*
X143320000Y-107941973D01*
X143354381Y-108114821D01*
X143451247Y-108348676D01*
X143591875Y-108559140D01*
X143770860Y-108738125D01*
X143981324Y-108878753D01*
X144215179Y-108975619D01*
X144463439Y-109025000D01*
X144716561Y-109025000D01*
X144964821Y-108975619D01*
X145198676Y-108878753D01*
X145409140Y-108738125D01*
X145565001Y-108582264D01*
X145565001Y-113053000D01*
X118595000Y-113053000D01*
X118595000Y-108839000D01*
X119801741Y-108839000D01*
X119775000Y-108973439D01*
X119775000Y-109226561D01*
X119824381Y-109474821D01*
X119921247Y-109708676D01*
X120061875Y-109919140D01*
X120240860Y-110098125D01*
X120451324Y-110238753D01*
X120685179Y-110335619D01*
X120858027Y-110370000D01*
X120685179Y-110404381D01*
X120451324Y-110501247D01*
X120240860Y-110641875D01*
X120061875Y-110820860D01*
X119921247Y-111031324D01*
X119824381Y-111265179D01*
X119775000Y-111513439D01*
X119775000Y-111766561D01*
X119824381Y-112014821D01*
X119921247Y-112248676D01*
X120061875Y-112459140D01*
X120240860Y-112638125D01*
X120451324Y-112778753D01*
X120685179Y-112875619D01*
X120933439Y-112925000D01*
X121186561Y-112925000D01*
X121434821Y-112875619D01*
X121668676Y-112778753D01*
X121879140Y-112638125D01*
X122058125Y-112459140D01*
X122198753Y-112248676D01*
X122295619Y-112014821D01*
X122330000Y-111841973D01*
X122364381Y-112014821D01*
X122461247Y-112248676D01*
X122601875Y-112459140D01*
X122780860Y-112638125D01*
X122991324Y-112778753D01*
X123225179Y-112875619D01*
X123473439Y-112925000D01*
X123726561Y-112925000D01*
X123974821Y-112875619D01*
X124208676Y-112778753D01*
X124419140Y-112638125D01*
X124598125Y-112459140D01*
X124738753Y-112248676D01*
X124835619Y-112014821D01*
X124885000Y-111766561D01*
X124885000Y-111513439D01*
X124835619Y-111265179D01*
X124738753Y-111031324D01*
X124726510Y-111013001D01*
X125796505Y-111013001D01*
X125824001Y-111015709D01*
X125851497Y-111013001D01*
X125851507Y-111013001D01*
X125933780Y-111004898D01*
X126039340Y-110972876D01*
X126136625Y-110920876D01*
X126186279Y-110880126D01*
X126200531Y-110868430D01*
X126200532Y-110868429D01*
X126221896Y-110850896D01*
X126239429Y-110829532D01*
X127466762Y-109602200D01*
X128394519Y-109602200D01*
X128487718Y-109695399D01*
X128624478Y-109786779D01*
X128776439Y-109849723D01*
X128937759Y-109881812D01*
X129102239Y-109881812D01*
X129263559Y-109849723D01*
X129415520Y-109786779D01*
X129552280Y-109695399D01*
X129668586Y-109579093D01*
X129759966Y-109442333D01*
X129790001Y-109369823D01*
X129790001Y-109815531D01*
X129701413Y-109904119D01*
X129610033Y-110040879D01*
X129547089Y-110192840D01*
X129515000Y-110354160D01*
X129515000Y-110518640D01*
X129547089Y-110679960D01*
X129610033Y-110831921D01*
X129701413Y-110968681D01*
X129817719Y-111084987D01*
X129954479Y-111176367D01*
X130106440Y-111239311D01*
X130267760Y-111271400D01*
X130432240Y-111271400D01*
X130593560Y-111239311D01*
X130745521Y-111176367D01*
X130882281Y-111084987D01*
X130998587Y-110968681D01*
X131089967Y-110831921D01*
X131152911Y-110679960D01*
X131185000Y-110518640D01*
X131185000Y-110354160D01*
X131152911Y-110192840D01*
X131089967Y-110040879D01*
X130998587Y-109904119D01*
X130910000Y-109815532D01*
X130910000Y-106973468D01*
X130925187Y-106958281D01*
X131016567Y-106821521D01*
X131079511Y-106669560D01*
X131111600Y-106508240D01*
X131111600Y-106343760D01*
X131111118Y-106341337D01*
X131143693Y-106368070D01*
X131165388Y-106385875D01*
X131262672Y-106437875D01*
X131287241Y-106445328D01*
X131368233Y-106469897D01*
X131450506Y-106478000D01*
X131450516Y-106478000D01*
X131478012Y-106480708D01*
X131505508Y-106478000D01*
X132071702Y-106478000D01*
X132099198Y-106480708D01*
X132126694Y-106478000D01*
X132126704Y-106478000D01*
X132208977Y-106469897D01*
X132314537Y-106437875D01*
X132411822Y-106385875D01*
X132414863Y-106383379D01*
X132475728Y-106333429D01*
X132475729Y-106333428D01*
X132497093Y-106315895D01*
X132514626Y-106294530D01*
X132573558Y-106235599D01*
X132805642Y-106235599D01*
X132854601Y-106284558D01*
X132854601Y-106516642D01*
X132223464Y-107147779D01*
X132202106Y-107165307D01*
X132184578Y-107186665D01*
X132184571Y-107186672D01*
X132132125Y-107250578D01*
X132080540Y-107347089D01*
X132080126Y-107347863D01*
X132048103Y-107453423D01*
X132040717Y-107528415D01*
X131951413Y-107617719D01*
X131860033Y-107754479D01*
X131797089Y-107906440D01*
X131765000Y-108067760D01*
X131765000Y-108232240D01*
X131797089Y-108393560D01*
X131860033Y-108545521D01*
X131951413Y-108682281D01*
X132067719Y-108798587D01*
X132204479Y-108889967D01*
X132356440Y-108952911D01*
X132517760Y-108985000D01*
X132643041Y-108985000D01*
X132965002Y-109306962D01*
X132965001Y-111116041D01*
X132908781Y-111172261D01*
X132872027Y-111164950D01*
X132707547Y-111164950D01*
X132546227Y-111197039D01*
X132394266Y-111259983D01*
X132257506Y-111351363D01*
X132141200Y-111467669D01*
X132049820Y-111604429D01*
X131986876Y-111756390D01*
X131954787Y-111917710D01*
X131954787Y-112082190D01*
X131986876Y-112243510D01*
X132049820Y-112395471D01*
X132141200Y-112532231D01*
X132257506Y-112648537D01*
X132394266Y-112739917D01*
X132546227Y-112802861D01*
X132707547Y-112834950D01*
X132872027Y-112834950D01*
X133033347Y-112802861D01*
X133185308Y-112739917D01*
X133322068Y-112648537D01*
X133438374Y-112532231D01*
X133529754Y-112395471D01*
X133592698Y-112243510D01*
X133624787Y-112082190D01*
X133624787Y-112040175D01*
X133901538Y-111763424D01*
X133922896Y-111745896D01*
X133940424Y-111724538D01*
X133940430Y-111724532D01*
X133992876Y-111660626D01*
X134044875Y-111563341D01*
X134044876Y-111563340D01*
X134076898Y-111457780D01*
X134085001Y-111375507D01*
X134085001Y-111375498D01*
X134087709Y-111348002D01*
X134085001Y-111320506D01*
X134085001Y-109102497D01*
X134087709Y-109075001D01*
X134085001Y-109047505D01*
X134085001Y-109047495D01*
X134076898Y-108965222D01*
X134044876Y-108859662D01*
X134006390Y-108787660D01*
X133992876Y-108762376D01*
X133940430Y-108698470D01*
X133940424Y-108698464D01*
X133922896Y-108677106D01*
X133901538Y-108659578D01*
X133435000Y-108193041D01*
X133435000Y-108067760D01*
X133402911Y-107906440D01*
X133339967Y-107754479D01*
X133284177Y-107670984D01*
X133791132Y-107164029D01*
X133812496Y-107146496D01*
X133830030Y-107125131D01*
X133882476Y-107061226D01*
X133919544Y-106991875D01*
X133934476Y-106963940D01*
X133966498Y-106858380D01*
X133974601Y-106776107D01*
X133974601Y-106776097D01*
X133977309Y-106748601D01*
X133974601Y-106721105D01*
X133974601Y-106080095D01*
X133977309Y-106052599D01*
X133974601Y-106025103D01*
X133974601Y-106025093D01*
X133966498Y-105942820D01*
X133934476Y-105837260D01*
X133934476Y-105837259D01*
X133882476Y-105739974D01*
X133830030Y-105676069D01*
X133830029Y-105676068D01*
X133812496Y-105654704D01*
X133791132Y-105637171D01*
X133453029Y-105299068D01*
X133435496Y-105277704D01*
X133408586Y-105255619D01*
X133350225Y-105207724D01*
X133337980Y-105201179D01*
X133252940Y-105155724D01*
X133147380Y-105123702D01*
X133065107Y-105115599D01*
X133065097Y-105115599D01*
X133037601Y-105112891D01*
X133010105Y-105115599D01*
X132369095Y-105115599D01*
X132341599Y-105112891D01*
X132314103Y-105115599D01*
X132314093Y-105115599D01*
X132231820Y-105123702D01*
X132126260Y-105155724D01*
X132028975Y-105207724D01*
X131943704Y-105277704D01*
X131926167Y-105299073D01*
X131867240Y-105358000D01*
X131736620Y-105358000D01*
X131736620Y-104902000D01*
X140335000Y-104902000D01*
X140359776Y-104899560D01*
X140383601Y-104892333D01*
X140405557Y-104880597D01*
X140424803Y-104864803D01*
X140857931Y-104431675D01*
X140982281Y-104348587D01*
X141063868Y-104267000D01*
X141129660Y-104267000D01*
X141149474Y-104283261D01*
G37*
X141149474Y-104283261D02*
X141051875Y-104380860D01*
X140911247Y-104591324D01*
X140814381Y-104825179D01*
X140765000Y-105073439D01*
X140765000Y-105326561D01*
X140814381Y-105574821D01*
X140911247Y-105808676D01*
X141051875Y-106019140D01*
X141230860Y-106198125D01*
X141441324Y-106338753D01*
X141675179Y-106435619D01*
X141848027Y-106470000D01*
X141675179Y-106504381D01*
X141441324Y-106601247D01*
X141230860Y-106741875D01*
X141051875Y-106920860D01*
X140911247Y-107131324D01*
X140814381Y-107365179D01*
X140765000Y-107613439D01*
X140765000Y-107866561D01*
X140814381Y-108114821D01*
X140911247Y-108348676D01*
X141051875Y-108559140D01*
X141230860Y-108738125D01*
X141441324Y-108878753D01*
X141675179Y-108975619D01*
X141923439Y-109025000D01*
X142176561Y-109025000D01*
X142424821Y-108975619D01*
X142658676Y-108878753D01*
X142869140Y-108738125D01*
X143048125Y-108559140D01*
X143188753Y-108348676D01*
X143285619Y-108114821D01*
X143320000Y-107941973D01*
X143354381Y-108114821D01*
X143451247Y-108348676D01*
X143591875Y-108559140D01*
X143770860Y-108738125D01*
X143981324Y-108878753D01*
X144215179Y-108975619D01*
X144463439Y-109025000D01*
X144716561Y-109025000D01*
X144964821Y-108975619D01*
X145198676Y-108878753D01*
X145409140Y-108738125D01*
X145565001Y-108582264D01*
X145565001Y-113053000D01*
X118595000Y-113053000D01*
X118595000Y-108839000D01*
X119801741Y-108839000D01*
X119775000Y-108973439D01*
X119775000Y-109226561D01*
X119824381Y-109474821D01*
X119921247Y-109708676D01*
X120061875Y-109919140D01*
X120240860Y-110098125D01*
X120451324Y-110238753D01*
X120685179Y-110335619D01*
X120858027Y-110370000D01*
X120685179Y-110404381D01*
X120451324Y-110501247D01*
X120240860Y-110641875D01*
X120061875Y-110820860D01*
X119921247Y-111031324D01*
X119824381Y-111265179D01*
X119775000Y-111513439D01*
X119775000Y-111766561D01*
X119824381Y-112014821D01*
X119921247Y-112248676D01*
X120061875Y-112459140D01*
X120240860Y-112638125D01*
X120451324Y-112778753D01*
X120685179Y-112875619D01*
X120933439Y-112925000D01*
X121186561Y-112925000D01*
X121434821Y-112875619D01*
X121668676Y-112778753D01*
X121879140Y-112638125D01*
X122058125Y-112459140D01*
X122198753Y-112248676D01*
X122295619Y-112014821D01*
X122330000Y-111841973D01*
X122364381Y-112014821D01*
X122461247Y-112248676D01*
X122601875Y-112459140D01*
X122780860Y-112638125D01*
X122991324Y-112778753D01*
X123225179Y-112875619D01*
X123473439Y-112925000D01*
X123726561Y-112925000D01*
X123974821Y-112875619D01*
X124208676Y-112778753D01*
X124419140Y-112638125D01*
X124598125Y-112459140D01*
X124738753Y-112248676D01*
X124835619Y-112014821D01*
X124885000Y-111766561D01*
X124885000Y-111513439D01*
X124835619Y-111265179D01*
X124738753Y-111031324D01*
X124726510Y-111013001D01*
X125796505Y-111013001D01*
X125824001Y-111015709D01*
X125851497Y-111013001D01*
X125851507Y-111013001D01*
X125933780Y-111004898D01*
X126039340Y-110972876D01*
X126136625Y-110920876D01*
X126186279Y-110880126D01*
X126200531Y-110868430D01*
X126200532Y-110868429D01*
X126221896Y-110850896D01*
X126239429Y-110829532D01*
X127466762Y-109602200D01*
X128394519Y-109602200D01*
X128487718Y-109695399D01*
X128624478Y-109786779D01*
X128776439Y-109849723D01*
X128937759Y-109881812D01*
X129102239Y-109881812D01*
X129263559Y-109849723D01*
X129415520Y-109786779D01*
X129552280Y-109695399D01*
X129668586Y-109579093D01*
X129759966Y-109442333D01*
X129790001Y-109369823D01*
X129790001Y-109815531D01*
X129701413Y-109904119D01*
X129610033Y-110040879D01*
X129547089Y-110192840D01*
X129515000Y-110354160D01*
X129515000Y-110518640D01*
X129547089Y-110679960D01*
X129610033Y-110831921D01*
X129701413Y-110968681D01*
X129817719Y-111084987D01*
X129954479Y-111176367D01*
X130106440Y-111239311D01*
X130267760Y-111271400D01*
X130432240Y-111271400D01*
X130593560Y-111239311D01*
X130745521Y-111176367D01*
X130882281Y-111084987D01*
X130998587Y-110968681D01*
X131089967Y-110831921D01*
X131152911Y-110679960D01*
X131185000Y-110518640D01*
X131185000Y-110354160D01*
X131152911Y-110192840D01*
X131089967Y-110040879D01*
X130998587Y-109904119D01*
X130910000Y-109815532D01*
X130910000Y-106973468D01*
X130925187Y-106958281D01*
X131016567Y-106821521D01*
X131079511Y-106669560D01*
X131111600Y-106508240D01*
X131111600Y-106343760D01*
X131111118Y-106341337D01*
X131143693Y-106368070D01*
X131165388Y-106385875D01*
X131262672Y-106437875D01*
X131287241Y-106445328D01*
X131368233Y-106469897D01*
X131450506Y-106478000D01*
X131450516Y-106478000D01*
X131478012Y-106480708D01*
X131505508Y-106478000D01*
X132071702Y-106478000D01*
X132099198Y-106480708D01*
X132126694Y-106478000D01*
X132126704Y-106478000D01*
X132208977Y-106469897D01*
X132314537Y-106437875D01*
X132411822Y-106385875D01*
X132414863Y-106383379D01*
X132475728Y-106333429D01*
X132475729Y-106333428D01*
X132497093Y-106315895D01*
X132514626Y-106294530D01*
X132573558Y-106235599D01*
X132805642Y-106235599D01*
X132854601Y-106284558D01*
X132854601Y-106516642D01*
X132223464Y-107147779D01*
X132202106Y-107165307D01*
X132184578Y-107186665D01*
X132184571Y-107186672D01*
X132132125Y-107250578D01*
X132080540Y-107347089D01*
X132080126Y-107347863D01*
X132048103Y-107453423D01*
X132040717Y-107528415D01*
X131951413Y-107617719D01*
X131860033Y-107754479D01*
X131797089Y-107906440D01*
X131765000Y-108067760D01*
X131765000Y-108232240D01*
X131797089Y-108393560D01*
X131860033Y-108545521D01*
X131951413Y-108682281D01*
X132067719Y-108798587D01*
X132204479Y-108889967D01*
X132356440Y-108952911D01*
X132517760Y-108985000D01*
X132643041Y-108985000D01*
X132965002Y-109306962D01*
X132965001Y-111116041D01*
X132908781Y-111172261D01*
X132872027Y-111164950D01*
X132707547Y-111164950D01*
X132546227Y-111197039D01*
X132394266Y-111259983D01*
X132257506Y-111351363D01*
X132141200Y-111467669D01*
X132049820Y-111604429D01*
X131986876Y-111756390D01*
X131954787Y-111917710D01*
X131954787Y-112082190D01*
X131986876Y-112243510D01*
X132049820Y-112395471D01*
X132141200Y-112532231D01*
X132257506Y-112648537D01*
X132394266Y-112739917D01*
X132546227Y-112802861D01*
X132707547Y-112834950D01*
X132872027Y-112834950D01*
X133033347Y-112802861D01*
X133185308Y-112739917D01*
X133322068Y-112648537D01*
X133438374Y-112532231D01*
X133529754Y-112395471D01*
X133592698Y-112243510D01*
X133624787Y-112082190D01*
X133624787Y-112040175D01*
X133901538Y-111763424D01*
X133922896Y-111745896D01*
X133940424Y-111724538D01*
X133940430Y-111724532D01*
X133992876Y-111660626D01*
X134044875Y-111563341D01*
X134044876Y-111563340D01*
X134076898Y-111457780D01*
X134085001Y-111375507D01*
X134085001Y-111375498D01*
X134087709Y-111348002D01*
X134085001Y-111320506D01*
X134085001Y-109102497D01*
X134087709Y-109075001D01*
X134085001Y-109047505D01*
X134085001Y-109047495D01*
X134076898Y-108965222D01*
X134044876Y-108859662D01*
X134006390Y-108787660D01*
X133992876Y-108762376D01*
X133940430Y-108698470D01*
X133940424Y-108698464D01*
X133922896Y-108677106D01*
X133901538Y-108659578D01*
X133435000Y-108193041D01*
X133435000Y-108067760D01*
X133402911Y-107906440D01*
X133339967Y-107754479D01*
X133284177Y-107670984D01*
X133791132Y-107164029D01*
X133812496Y-107146496D01*
X133830030Y-107125131D01*
X133882476Y-107061226D01*
X133919544Y-106991875D01*
X133934476Y-106963940D01*
X133966498Y-106858380D01*
X133974601Y-106776107D01*
X133974601Y-106776097D01*
X133977309Y-106748601D01*
X133974601Y-106721105D01*
X133974601Y-106080095D01*
X133977309Y-106052599D01*
X133974601Y-106025103D01*
X133974601Y-106025093D01*
X133966498Y-105942820D01*
X133934476Y-105837260D01*
X133934476Y-105837259D01*
X133882476Y-105739974D01*
X133830030Y-105676069D01*
X133830029Y-105676068D01*
X133812496Y-105654704D01*
X133791132Y-105637171D01*
X133453029Y-105299068D01*
X133435496Y-105277704D01*
X133408586Y-105255619D01*
X133350225Y-105207724D01*
X133337980Y-105201179D01*
X133252940Y-105155724D01*
X133147380Y-105123702D01*
X133065107Y-105115599D01*
X133065097Y-105115599D01*
X133037601Y-105112891D01*
X133010105Y-105115599D01*
X132369095Y-105115599D01*
X132341599Y-105112891D01*
X132314103Y-105115599D01*
X132314093Y-105115599D01*
X132231820Y-105123702D01*
X132126260Y-105155724D01*
X132028975Y-105207724D01*
X131943704Y-105277704D01*
X131926167Y-105299073D01*
X131867240Y-105358000D01*
X131736620Y-105358000D01*
X131736620Y-104902000D01*
X140335000Y-104902000D01*
X140359776Y-104899560D01*
X140383601Y-104892333D01*
X140405557Y-104880597D01*
X140424803Y-104864803D01*
X140857931Y-104431675D01*
X140982281Y-104348587D01*
X141063868Y-104267000D01*
X141129660Y-104267000D01*
X141149474Y-104283261D01*
G36*
X129716600Y-105805132D02*
G01*
X129628013Y-105893719D01*
X129536633Y-106030479D01*
X129473689Y-106182440D01*
X129441600Y-106343760D01*
X129441600Y-106508240D01*
X129473689Y-106669560D01*
X129536633Y-106821521D01*
X129628013Y-106958281D01*
X129744319Y-107074587D01*
X129790001Y-107105110D01*
X129790000Y-108272494D01*
X129790000Y-108723800D01*
X129759966Y-108651291D01*
X129668586Y-108514531D01*
X129552280Y-108398225D01*
X129415520Y-108306845D01*
X129263559Y-108243901D01*
X129102239Y-108211812D01*
X128937759Y-108211812D01*
X128776439Y-108243901D01*
X128624478Y-108306845D01*
X128487718Y-108398225D01*
X128403743Y-108482200D01*
X127262298Y-108482200D01*
X127234802Y-108479492D01*
X127207306Y-108482200D01*
X127207296Y-108482200D01*
X127125023Y-108490303D01*
X127019463Y-108522325D01*
X126995518Y-108535124D01*
X126922177Y-108574325D01*
X126858271Y-108626771D01*
X126858265Y-108626777D01*
X126836907Y-108644305D01*
X126819379Y-108665663D01*
X125592042Y-109893001D01*
X124615591Y-109893001D01*
X124738753Y-109708676D01*
X124799094Y-109562999D01*
X125189107Y-109562999D01*
X125216603Y-109565707D01*
X125244099Y-109562999D01*
X125244109Y-109562999D01*
X125326382Y-109554896D01*
X125431942Y-109522874D01*
X125529227Y-109470874D01*
X125545366Y-109457629D01*
X125593133Y-109418428D01*
X125593134Y-109418427D01*
X125614498Y-109400894D01*
X125632032Y-109379529D01*
X126933138Y-108078424D01*
X126954496Y-108060896D01*
X126972024Y-108039538D01*
X126972030Y-108039532D01*
X127024476Y-107975626D01*
X127076475Y-107878341D01*
X127076476Y-107878340D01*
X127108498Y-107772780D01*
X127116601Y-107690507D01*
X127116601Y-107690495D01*
X127119309Y-107663002D01*
X127116601Y-107635509D01*
X127116601Y-106772096D01*
X127119309Y-106744600D01*
X127116601Y-106717104D01*
X127116601Y-106717095D01*
X127108498Y-106634822D01*
X127076476Y-106529262D01*
X127027628Y-106437874D01*
X127024476Y-106431976D01*
X126972030Y-106368070D01*
X126972024Y-106368064D01*
X126954496Y-106346706D01*
X126933137Y-106329177D01*
X126920600Y-106316640D01*
X126920600Y-106191360D01*
X126888511Y-106030040D01*
X126849808Y-105936602D01*
X128310422Y-104902000D01*
X129716600Y-104902000D01*
X129716600Y-105805132D01*
G37*
X129716600Y-105805132D02*
X129628013Y-105893719D01*
X129536633Y-106030479D01*
X129473689Y-106182440D01*
X129441600Y-106343760D01*
X129441600Y-106508240D01*
X129473689Y-106669560D01*
X129536633Y-106821521D01*
X129628013Y-106958281D01*
X129744319Y-107074587D01*
X129790001Y-107105110D01*
X129790000Y-108272494D01*
X129790000Y-108723800D01*
X129759966Y-108651291D01*
X129668586Y-108514531D01*
X129552280Y-108398225D01*
X129415520Y-108306845D01*
X129263559Y-108243901D01*
X129102239Y-108211812D01*
X128937759Y-108211812D01*
X128776439Y-108243901D01*
X128624478Y-108306845D01*
X128487718Y-108398225D01*
X128403743Y-108482200D01*
X127262298Y-108482200D01*
X127234802Y-108479492D01*
X127207306Y-108482200D01*
X127207296Y-108482200D01*
X127125023Y-108490303D01*
X127019463Y-108522325D01*
X126995518Y-108535124D01*
X126922177Y-108574325D01*
X126858271Y-108626771D01*
X126858265Y-108626777D01*
X126836907Y-108644305D01*
X126819379Y-108665663D01*
X125592042Y-109893001D01*
X124615591Y-109893001D01*
X124738753Y-109708676D01*
X124799094Y-109562999D01*
X125189107Y-109562999D01*
X125216603Y-109565707D01*
X125244099Y-109562999D01*
X125244109Y-109562999D01*
X125326382Y-109554896D01*
X125431942Y-109522874D01*
X125529227Y-109470874D01*
X125545366Y-109457629D01*
X125593133Y-109418428D01*
X125593134Y-109418427D01*
X125614498Y-109400894D01*
X125632032Y-109379529D01*
X126933138Y-108078424D01*
X126954496Y-108060896D01*
X126972024Y-108039538D01*
X126972030Y-108039532D01*
X127024476Y-107975626D01*
X127076475Y-107878341D01*
X127076476Y-107878340D01*
X127108498Y-107772780D01*
X127116601Y-107690507D01*
X127116601Y-107690495D01*
X127119309Y-107663002D01*
X127116601Y-107635509D01*
X127116601Y-106772096D01*
X127119309Y-106744600D01*
X127116601Y-106717104D01*
X127116601Y-106717095D01*
X127108498Y-106634822D01*
X127076476Y-106529262D01*
X127027628Y-106437874D01*
X127024476Y-106431976D01*
X126972030Y-106368070D01*
X126972024Y-106368064D01*
X126954496Y-106346706D01*
X126933137Y-106329177D01*
X126920600Y-106316640D01*
X126920600Y-106191360D01*
X126888511Y-106030040D01*
X126849808Y-105936602D01*
X128310422Y-104902000D01*
X129716600Y-104902000D01*
X129716600Y-105805132D01*
G36*
X125553319Y-106922187D02*
G01*
X125690079Y-107013567D01*
X125842040Y-107076511D01*
X125996601Y-107107256D01*
X125996601Y-107431041D01*
X125349000Y-108078643D01*
X125349000Y-106999674D01*
X125513960Y-106882828D01*
X125553319Y-106922187D01*
G37*
X125553319Y-106922187D02*
X125690079Y-107013567D01*
X125842040Y-107076511D01*
X125996601Y-107107256D01*
X125996601Y-107431041D01*
X125349000Y-108078643D01*
X125349000Y-106999674D01*
X125513960Y-106882828D01*
X125553319Y-106922187D01*
%TO.N,GNDA*%
G36*
X133176903Y-93409102D02*
G01*
X132975283Y-93543820D01*
X132803820Y-93715283D01*
X132669102Y-93916903D01*
X132576307Y-94140931D01*
X132529000Y-94378757D01*
X132529000Y-94621243D01*
X132576307Y-94859069D01*
X132669102Y-95083097D01*
X132803820Y-95284717D01*
X132975283Y-95456180D01*
X133176903Y-95590898D01*
X133400931Y-95683693D01*
X133638757Y-95731000D01*
X133881243Y-95731000D01*
X134119069Y-95683693D01*
X134343097Y-95590898D01*
X134544717Y-95456180D01*
X134716180Y-95284717D01*
X134850898Y-95083097D01*
X134943693Y-94859069D01*
X134991000Y-94621243D01*
X134991000Y-94378757D01*
X134943693Y-94140931D01*
X134850898Y-93916903D01*
X134716180Y-93715283D01*
X134544717Y-93543820D01*
X134343097Y-93409102D01*
X134309052Y-93395000D01*
X135750948Y-93395000D01*
X135716903Y-93409102D01*
X135515283Y-93543820D01*
X135343820Y-93715283D01*
X135209102Y-93916903D01*
X135116307Y-94140931D01*
X135069000Y-94378757D01*
X135069000Y-94621243D01*
X135116307Y-94859069D01*
X135209102Y-95083097D01*
X135343820Y-95284717D01*
X135515283Y-95456180D01*
X135716903Y-95590898D01*
X135794001Y-95622833D01*
X135794001Y-96077587D01*
X135790400Y-96114147D01*
X135790400Y-96114154D01*
X135787953Y-96139000D01*
X135790400Y-96163846D01*
X135790401Y-98494807D01*
X135102820Y-99182389D01*
X132060665Y-99182389D01*
X132035811Y-99179941D01*
X132010957Y-99182389D01*
X131936618Y-99189711D01*
X131841236Y-99218644D01*
X131753332Y-99265630D01*
X131676284Y-99328862D01*
X131660440Y-99348168D01*
X130782600Y-100226009D01*
X130782600Y-98726445D01*
X130785047Y-98701599D01*
X130782600Y-98676753D01*
X130782600Y-98676746D01*
X130775278Y-98602407D01*
X130746345Y-98507025D01*
X130699359Y-98419121D01*
X130636127Y-98342073D01*
X130616820Y-98326228D01*
X129781000Y-97490409D01*
X129781000Y-97348078D01*
X129750987Y-97197191D01*
X129692113Y-97055058D01*
X129606642Y-96927141D01*
X129506000Y-96826499D01*
X129506000Y-96159590D01*
X130408654Y-95256937D01*
X130550984Y-95256937D01*
X130701871Y-95226924D01*
X130844004Y-95168050D01*
X130971921Y-95082579D01*
X131080704Y-94973796D01*
X131166175Y-94845879D01*
X131225049Y-94703746D01*
X131255062Y-94552859D01*
X131255062Y-94399015D01*
X131225049Y-94248128D01*
X131166175Y-94105995D01*
X131080704Y-93978078D01*
X130971921Y-93869295D01*
X130844004Y-93783824D01*
X130701871Y-93724950D01*
X130550984Y-93694937D01*
X130397140Y-93694937D01*
X130246253Y-93724950D01*
X130104120Y-93783824D01*
X129976203Y-93869295D01*
X129867420Y-93978078D01*
X129781949Y-94105995D01*
X129723075Y-94248128D01*
X129693062Y-94399015D01*
X129693062Y-94541345D01*
X128659780Y-95574627D01*
X128640474Y-95590472D01*
X128577242Y-95667520D01*
X128557903Y-95703701D01*
X128530255Y-95755425D01*
X128501322Y-95850807D01*
X128491553Y-95949999D01*
X128494001Y-95974855D01*
X128494000Y-96826499D01*
X128393358Y-96927141D01*
X128307887Y-97055058D01*
X128249013Y-97197191D01*
X128219000Y-97348078D01*
X128219000Y-97501922D01*
X128249013Y-97652809D01*
X128307887Y-97794942D01*
X128393358Y-97922859D01*
X128502141Y-98031642D01*
X128630058Y-98117113D01*
X128772191Y-98175987D01*
X128923078Y-98206000D01*
X129065409Y-98206000D01*
X129770601Y-98911193D01*
X129770600Y-104013000D01*
X127381000Y-104013000D01*
X127356224Y-104015440D01*
X127332399Y-104022667D01*
X127304800Y-104038400D01*
X125965868Y-105042599D01*
X125762453Y-105042599D01*
X125737599Y-105040151D01*
X125712745Y-105042599D01*
X125638406Y-105049921D01*
X125543024Y-105078854D01*
X125455120Y-105125840D01*
X125378072Y-105189072D01*
X125362228Y-105208378D01*
X125020379Y-105550228D01*
X125001073Y-105566072D01*
X124937841Y-105643120D01*
X124915194Y-105685490D01*
X124890854Y-105731025D01*
X124871879Y-105793579D01*
X124871641Y-105793080D01*
X124697588Y-105559731D01*
X124481355Y-105364822D01*
X124231252Y-105215843D01*
X124068832Y-105158228D01*
X124183097Y-105110898D01*
X124384717Y-104976180D01*
X124556180Y-104804717D01*
X124690898Y-104603097D01*
X124783693Y-104379069D01*
X124831000Y-104141243D01*
X124831000Y-103898757D01*
X124783693Y-103660931D01*
X124690898Y-103436903D01*
X124556180Y-103235283D01*
X124384717Y-103063820D01*
X124183097Y-102929102D01*
X123959069Y-102836307D01*
X123721243Y-102789000D01*
X123478757Y-102789000D01*
X123240931Y-102836307D01*
X123016903Y-102929102D01*
X122815283Y-103063820D01*
X122643820Y-103235283D01*
X122509102Y-103436903D01*
X122416307Y-103660931D01*
X122369000Y-103898757D01*
X122369000Y-104141243D01*
X122416307Y-104379069D01*
X122509102Y-104603097D01*
X122643820Y-104804717D01*
X122815283Y-104976180D01*
X123016903Y-105110898D01*
X123131168Y-105158228D01*
X122968748Y-105215843D01*
X122718645Y-105364822D01*
X122502412Y-105559731D01*
X122330000Y-105790880D01*
X122157588Y-105559731D01*
X121941355Y-105364822D01*
X121691252Y-105215843D01*
X121528832Y-105158228D01*
X121643097Y-105110898D01*
X121844717Y-104976180D01*
X122016180Y-104804717D01*
X122150898Y-104603097D01*
X122243693Y-104379069D01*
X122291000Y-104141243D01*
X122291000Y-103898757D01*
X122243693Y-103660931D01*
X122150898Y-103436903D01*
X122016180Y-103235283D01*
X121844717Y-103063820D01*
X121643097Y-102929102D01*
X121419069Y-102836307D01*
X121181243Y-102789000D01*
X120938757Y-102789000D01*
X120700931Y-102836307D01*
X120476903Y-102929102D01*
X120275283Y-103063820D01*
X120103820Y-103235283D01*
X119969102Y-103436903D01*
X119876307Y-103660931D01*
X119829000Y-103898757D01*
X119829000Y-104141243D01*
X119876307Y-104379069D01*
X119969102Y-104603097D01*
X120103820Y-104804717D01*
X120275283Y-104976180D01*
X120476903Y-105110898D01*
X120591168Y-105158228D01*
X120428748Y-105215843D01*
X120178645Y-105364822D01*
X119962412Y-105559731D01*
X119788359Y-105793080D01*
X119663175Y-106055901D01*
X119618524Y-106203110D01*
X119739845Y-106433000D01*
X120933000Y-106433000D01*
X120933000Y-106413000D01*
X121187000Y-106413000D01*
X121187000Y-106433000D01*
X123473000Y-106433000D01*
X123473000Y-106413000D01*
X123727000Y-106413000D01*
X123727000Y-106433000D01*
X123747000Y-106433000D01*
X123747000Y-106687000D01*
X123727000Y-106687000D01*
X123727000Y-106707000D01*
X123473000Y-106707000D01*
X123473000Y-106687000D01*
X121187000Y-106687000D01*
X121187000Y-106707000D01*
X120933000Y-106707000D01*
X120933000Y-106687000D01*
X119739845Y-106687000D01*
X119618524Y-106916890D01*
X119663175Y-107064099D01*
X119788359Y-107326920D01*
X119962412Y-107560269D01*
X120032428Y-107623380D01*
X119832808Y-107823000D01*
X118541000Y-107823000D01*
X118541000Y-101358757D01*
X119829000Y-101358757D01*
X119829000Y-101601243D01*
X119876307Y-101839069D01*
X119969102Y-102063097D01*
X120103820Y-102264717D01*
X120275283Y-102436180D01*
X120476903Y-102570898D01*
X120700931Y-102663693D01*
X120938757Y-102711000D01*
X121181243Y-102711000D01*
X121419069Y-102663693D01*
X121643097Y-102570898D01*
X121844717Y-102436180D01*
X122016180Y-102264717D01*
X122150898Y-102063097D01*
X122243693Y-101839069D01*
X122291000Y-101601243D01*
X122291000Y-101358757D01*
X122369000Y-101358757D01*
X122369000Y-101601243D01*
X122416307Y-101839069D01*
X122509102Y-102063097D01*
X122643820Y-102264717D01*
X122815283Y-102436180D01*
X123016903Y-102570898D01*
X123240931Y-102663693D01*
X123478757Y-102711000D01*
X123721243Y-102711000D01*
X123959069Y-102663693D01*
X124183097Y-102570898D01*
X124384717Y-102436180D01*
X124556180Y-102264717D01*
X124690898Y-102063097D01*
X124783693Y-101839069D01*
X124831000Y-101601243D01*
X124831000Y-101358757D01*
X124783693Y-101120931D01*
X124690898Y-100896903D01*
X124556180Y-100695283D01*
X124384717Y-100523820D01*
X124183097Y-100389102D01*
X123959069Y-100296307D01*
X123721243Y-100249000D01*
X123478757Y-100249000D01*
X123240931Y-100296307D01*
X123016903Y-100389102D01*
X122815283Y-100523820D01*
X122643820Y-100695283D01*
X122509102Y-100896903D01*
X122416307Y-101120931D01*
X122369000Y-101358757D01*
X122291000Y-101358757D01*
X122243693Y-101120931D01*
X122150898Y-100896903D01*
X122016180Y-100695283D01*
X121844717Y-100523820D01*
X121643097Y-100389102D01*
X121419069Y-100296307D01*
X121181243Y-100249000D01*
X120938757Y-100249000D01*
X120700931Y-100296307D01*
X120476903Y-100389102D01*
X120275283Y-100523820D01*
X120103820Y-100695283D01*
X119969102Y-100896903D01*
X119876307Y-101120931D01*
X119829000Y-101358757D01*
X118541000Y-101358757D01*
X118541000Y-96756890D01*
X119618524Y-96756890D01*
X119663175Y-96904099D01*
X119788359Y-97166920D01*
X119962412Y-97400269D01*
X120178645Y-97595178D01*
X120428748Y-97744157D01*
X120591168Y-97801772D01*
X120476903Y-97849102D01*
X120275283Y-97983820D01*
X120103820Y-98155283D01*
X119969102Y-98356903D01*
X119876307Y-98580931D01*
X119829000Y-98818757D01*
X119829000Y-99061243D01*
X119876307Y-99299069D01*
X119969102Y-99523097D01*
X120103820Y-99724717D01*
X120275283Y-99896180D01*
X120476903Y-100030898D01*
X120700931Y-100123693D01*
X120938757Y-100171000D01*
X121181243Y-100171000D01*
X121419069Y-100123693D01*
X121643097Y-100030898D01*
X121844717Y-99896180D01*
X122016180Y-99724717D01*
X122150898Y-99523097D01*
X122243693Y-99299069D01*
X122291000Y-99061243D01*
X122291000Y-98818757D01*
X122243693Y-98580931D01*
X122150898Y-98356903D01*
X122016180Y-98155283D01*
X121844717Y-97983820D01*
X121643097Y-97849102D01*
X121528832Y-97801772D01*
X121691252Y-97744157D01*
X121941355Y-97595178D01*
X122137502Y-97418374D01*
X122160498Y-97494180D01*
X122219463Y-97604494D01*
X122298815Y-97701185D01*
X122395506Y-97780537D01*
X122505820Y-97839502D01*
X122625518Y-97875812D01*
X122750000Y-97888072D01*
X122960294Y-97886927D01*
X122815283Y-97983820D01*
X122643820Y-98155283D01*
X122509102Y-98356903D01*
X122416307Y-98580931D01*
X122369000Y-98818757D01*
X122369000Y-99061243D01*
X122416307Y-99299069D01*
X122509102Y-99523097D01*
X122643820Y-99724717D01*
X122815283Y-99896180D01*
X123016903Y-100030898D01*
X123240931Y-100123693D01*
X123478757Y-100171000D01*
X123721243Y-100171000D01*
X123959069Y-100123693D01*
X124183097Y-100030898D01*
X124384717Y-99896180D01*
X124556180Y-99724717D01*
X124690898Y-99523097D01*
X124783693Y-99299069D01*
X124831000Y-99061243D01*
X124831000Y-98818757D01*
X124783693Y-98580931D01*
X124690898Y-98356903D01*
X124556180Y-98155283D01*
X124384717Y-97983820D01*
X124239706Y-97886927D01*
X124450000Y-97888072D01*
X124574482Y-97875812D01*
X124694180Y-97839502D01*
X124804494Y-97780537D01*
X124901185Y-97701185D01*
X124980537Y-97604494D01*
X125039502Y-97494180D01*
X125075812Y-97374482D01*
X125088072Y-97250000D01*
X125085000Y-96685750D01*
X124926250Y-96527000D01*
X123727000Y-96527000D01*
X123727000Y-96547000D01*
X123473000Y-96547000D01*
X123473000Y-96527000D01*
X121187000Y-96527000D01*
X121187000Y-96547000D01*
X120933000Y-96547000D01*
X120933000Y-96527000D01*
X119739845Y-96527000D01*
X119618524Y-96756890D01*
X118541000Y-96756890D01*
X118541000Y-96043110D01*
X119618524Y-96043110D01*
X119739845Y-96273000D01*
X120933000Y-96273000D01*
X120933000Y-95079186D01*
X121187000Y-95079186D01*
X121187000Y-96273000D01*
X123473000Y-96273000D01*
X123473000Y-95073750D01*
X123727000Y-95073750D01*
X123727000Y-96273000D01*
X124926250Y-96273000D01*
X125085000Y-96114250D01*
X125088072Y-95550000D01*
X125075812Y-95425518D01*
X125039502Y-95305820D01*
X124980537Y-95195506D01*
X124901185Y-95098815D01*
X124804494Y-95019463D01*
X124694180Y-94960498D01*
X124574482Y-94924188D01*
X124450000Y-94911928D01*
X123885750Y-94915000D01*
X123727000Y-95073750D01*
X123473000Y-95073750D01*
X123314250Y-94915000D01*
X122750000Y-94911928D01*
X122625518Y-94924188D01*
X122505820Y-94960498D01*
X122395506Y-95019463D01*
X122298815Y-95098815D01*
X122219463Y-95195506D01*
X122160498Y-95305820D01*
X122137502Y-95381626D01*
X121941355Y-95204822D01*
X121691252Y-95055843D01*
X121416891Y-94958519D01*
X121187000Y-95079186D01*
X120933000Y-95079186D01*
X120703109Y-94958519D01*
X120428748Y-95055843D01*
X120178645Y-95204822D01*
X119962412Y-95399731D01*
X119788359Y-95633080D01*
X119663175Y-95895901D01*
X119618524Y-96043110D01*
X118541000Y-96043110D01*
X118541000Y-93395000D01*
X133210948Y-93395000D01*
X133176903Y-93409102D01*
G37*
X133176903Y-93409102D02*
X132975283Y-93543820D01*
X132803820Y-93715283D01*
X132669102Y-93916903D01*
X132576307Y-94140931D01*
X132529000Y-94378757D01*
X132529000Y-94621243D01*
X132576307Y-94859069D01*
X132669102Y-95083097D01*
X132803820Y-95284717D01*
X132975283Y-95456180D01*
X133176903Y-95590898D01*
X133400931Y-95683693D01*
X133638757Y-95731000D01*
X133881243Y-95731000D01*
X134119069Y-95683693D01*
X134343097Y-95590898D01*
X134544717Y-95456180D01*
X134716180Y-95284717D01*
X134850898Y-95083097D01*
X134943693Y-94859069D01*
X134991000Y-94621243D01*
X134991000Y-94378757D01*
X134943693Y-94140931D01*
X134850898Y-93916903D01*
X134716180Y-93715283D01*
X134544717Y-93543820D01*
X134343097Y-93409102D01*
X134309052Y-93395000D01*
X135750948Y-93395000D01*
X135716903Y-93409102D01*
X135515283Y-93543820D01*
X135343820Y-93715283D01*
X135209102Y-93916903D01*
X135116307Y-94140931D01*
X135069000Y-94378757D01*
X135069000Y-94621243D01*
X135116307Y-94859069D01*
X135209102Y-95083097D01*
X135343820Y-95284717D01*
X135515283Y-95456180D01*
X135716903Y-95590898D01*
X135794001Y-95622833D01*
X135794001Y-96077587D01*
X135790400Y-96114147D01*
X135790400Y-96114154D01*
X135787953Y-96139000D01*
X135790400Y-96163846D01*
X135790401Y-98494807D01*
X135102820Y-99182389D01*
X132060665Y-99182389D01*
X132035811Y-99179941D01*
X132010957Y-99182389D01*
X131936618Y-99189711D01*
X131841236Y-99218644D01*
X131753332Y-99265630D01*
X131676284Y-99328862D01*
X131660440Y-99348168D01*
X130782600Y-100226009D01*
X130782600Y-98726445D01*
X130785047Y-98701599D01*
X130782600Y-98676753D01*
X130782600Y-98676746D01*
X130775278Y-98602407D01*
X130746345Y-98507025D01*
X130699359Y-98419121D01*
X130636127Y-98342073D01*
X130616820Y-98326228D01*
X129781000Y-97490409D01*
X129781000Y-97348078D01*
X129750987Y-97197191D01*
X129692113Y-97055058D01*
X129606642Y-96927141D01*
X129506000Y-96826499D01*
X129506000Y-96159590D01*
X130408654Y-95256937D01*
X130550984Y-95256937D01*
X130701871Y-95226924D01*
X130844004Y-95168050D01*
X130971921Y-95082579D01*
X131080704Y-94973796D01*
X131166175Y-94845879D01*
X131225049Y-94703746D01*
X131255062Y-94552859D01*
X131255062Y-94399015D01*
X131225049Y-94248128D01*
X131166175Y-94105995D01*
X131080704Y-93978078D01*
X130971921Y-93869295D01*
X130844004Y-93783824D01*
X130701871Y-93724950D01*
X130550984Y-93694937D01*
X130397140Y-93694937D01*
X130246253Y-93724950D01*
X130104120Y-93783824D01*
X129976203Y-93869295D01*
X129867420Y-93978078D01*
X129781949Y-94105995D01*
X129723075Y-94248128D01*
X129693062Y-94399015D01*
X129693062Y-94541345D01*
X128659780Y-95574627D01*
X128640474Y-95590472D01*
X128577242Y-95667520D01*
X128557903Y-95703701D01*
X128530255Y-95755425D01*
X128501322Y-95850807D01*
X128491553Y-95949999D01*
X128494001Y-95974855D01*
X128494000Y-96826499D01*
X128393358Y-96927141D01*
X128307887Y-97055058D01*
X128249013Y-97197191D01*
X128219000Y-97348078D01*
X128219000Y-97501922D01*
X128249013Y-97652809D01*
X128307887Y-97794942D01*
X128393358Y-97922859D01*
X128502141Y-98031642D01*
X128630058Y-98117113D01*
X128772191Y-98175987D01*
X128923078Y-98206000D01*
X129065409Y-98206000D01*
X129770601Y-98911193D01*
X129770600Y-104013000D01*
X127381000Y-104013000D01*
X127356224Y-104015440D01*
X127332399Y-104022667D01*
X127304800Y-104038400D01*
X125965868Y-105042599D01*
X125762453Y-105042599D01*
X125737599Y-105040151D01*
X125712745Y-105042599D01*
X125638406Y-105049921D01*
X125543024Y-105078854D01*
X125455120Y-105125840D01*
X125378072Y-105189072D01*
X125362228Y-105208378D01*
X125020379Y-105550228D01*
X125001073Y-105566072D01*
X124937841Y-105643120D01*
X124915194Y-105685490D01*
X124890854Y-105731025D01*
X124871879Y-105793579D01*
X124871641Y-105793080D01*
X124697588Y-105559731D01*
X124481355Y-105364822D01*
X124231252Y-105215843D01*
X124068832Y-105158228D01*
X124183097Y-105110898D01*
X124384717Y-104976180D01*
X124556180Y-104804717D01*
X124690898Y-104603097D01*
X124783693Y-104379069D01*
X124831000Y-104141243D01*
X124831000Y-103898757D01*
X124783693Y-103660931D01*
X124690898Y-103436903D01*
X124556180Y-103235283D01*
X124384717Y-103063820D01*
X124183097Y-102929102D01*
X123959069Y-102836307D01*
X123721243Y-102789000D01*
X123478757Y-102789000D01*
X123240931Y-102836307D01*
X123016903Y-102929102D01*
X122815283Y-103063820D01*
X122643820Y-103235283D01*
X122509102Y-103436903D01*
X122416307Y-103660931D01*
X122369000Y-103898757D01*
X122369000Y-104141243D01*
X122416307Y-104379069D01*
X122509102Y-104603097D01*
X122643820Y-104804717D01*
X122815283Y-104976180D01*
X123016903Y-105110898D01*
X123131168Y-105158228D01*
X122968748Y-105215843D01*
X122718645Y-105364822D01*
X122502412Y-105559731D01*
X122330000Y-105790880D01*
X122157588Y-105559731D01*
X121941355Y-105364822D01*
X121691252Y-105215843D01*
X121528832Y-105158228D01*
X121643097Y-105110898D01*
X121844717Y-104976180D01*
X122016180Y-104804717D01*
X122150898Y-104603097D01*
X122243693Y-104379069D01*
X122291000Y-104141243D01*
X122291000Y-103898757D01*
X122243693Y-103660931D01*
X122150898Y-103436903D01*
X122016180Y-103235283D01*
X121844717Y-103063820D01*
X121643097Y-102929102D01*
X121419069Y-102836307D01*
X121181243Y-102789000D01*
X120938757Y-102789000D01*
X120700931Y-102836307D01*
X120476903Y-102929102D01*
X120275283Y-103063820D01*
X120103820Y-103235283D01*
X119969102Y-103436903D01*
X119876307Y-103660931D01*
X119829000Y-103898757D01*
X119829000Y-104141243D01*
X119876307Y-104379069D01*
X119969102Y-104603097D01*
X120103820Y-104804717D01*
X120275283Y-104976180D01*
X120476903Y-105110898D01*
X120591168Y-105158228D01*
X120428748Y-105215843D01*
X120178645Y-105364822D01*
X119962412Y-105559731D01*
X119788359Y-105793080D01*
X119663175Y-106055901D01*
X119618524Y-106203110D01*
X119739845Y-106433000D01*
X120933000Y-106433000D01*
X120933000Y-106413000D01*
X121187000Y-106413000D01*
X121187000Y-106433000D01*
X123473000Y-106433000D01*
X123473000Y-106413000D01*
X123727000Y-106413000D01*
X123727000Y-106433000D01*
X123747000Y-106433000D01*
X123747000Y-106687000D01*
X123727000Y-106687000D01*
X123727000Y-106707000D01*
X123473000Y-106707000D01*
X123473000Y-106687000D01*
X121187000Y-106687000D01*
X121187000Y-106707000D01*
X120933000Y-106707000D01*
X120933000Y-106687000D01*
X119739845Y-106687000D01*
X119618524Y-106916890D01*
X119663175Y-107064099D01*
X119788359Y-107326920D01*
X119962412Y-107560269D01*
X120032428Y-107623380D01*
X119832808Y-107823000D01*
X118541000Y-107823000D01*
X118541000Y-101358757D01*
X119829000Y-101358757D01*
X119829000Y-101601243D01*
X119876307Y-101839069D01*
X119969102Y-102063097D01*
X120103820Y-102264717D01*
X120275283Y-102436180D01*
X120476903Y-102570898D01*
X120700931Y-102663693D01*
X120938757Y-102711000D01*
X121181243Y-102711000D01*
X121419069Y-102663693D01*
X121643097Y-102570898D01*
X121844717Y-102436180D01*
X122016180Y-102264717D01*
X122150898Y-102063097D01*
X122243693Y-101839069D01*
X122291000Y-101601243D01*
X122291000Y-101358757D01*
X122369000Y-101358757D01*
X122369000Y-101601243D01*
X122416307Y-101839069D01*
X122509102Y-102063097D01*
X122643820Y-102264717D01*
X122815283Y-102436180D01*
X123016903Y-102570898D01*
X123240931Y-102663693D01*
X123478757Y-102711000D01*
X123721243Y-102711000D01*
X123959069Y-102663693D01*
X124183097Y-102570898D01*
X124384717Y-102436180D01*
X124556180Y-102264717D01*
X124690898Y-102063097D01*
X124783693Y-101839069D01*
X124831000Y-101601243D01*
X124831000Y-101358757D01*
X124783693Y-101120931D01*
X124690898Y-100896903D01*
X124556180Y-100695283D01*
X124384717Y-100523820D01*
X124183097Y-100389102D01*
X123959069Y-100296307D01*
X123721243Y-100249000D01*
X123478757Y-100249000D01*
X123240931Y-100296307D01*
X123016903Y-100389102D01*
X122815283Y-100523820D01*
X122643820Y-100695283D01*
X122509102Y-100896903D01*
X122416307Y-101120931D01*
X122369000Y-101358757D01*
X122291000Y-101358757D01*
X122243693Y-101120931D01*
X122150898Y-100896903D01*
X122016180Y-100695283D01*
X121844717Y-100523820D01*
X121643097Y-100389102D01*
X121419069Y-100296307D01*
X121181243Y-100249000D01*
X120938757Y-100249000D01*
X120700931Y-100296307D01*
X120476903Y-100389102D01*
X120275283Y-100523820D01*
X120103820Y-100695283D01*
X119969102Y-100896903D01*
X119876307Y-101120931D01*
X119829000Y-101358757D01*
X118541000Y-101358757D01*
X118541000Y-96756890D01*
X119618524Y-96756890D01*
X119663175Y-96904099D01*
X119788359Y-97166920D01*
X119962412Y-97400269D01*
X120178645Y-97595178D01*
X120428748Y-97744157D01*
X120591168Y-97801772D01*
X120476903Y-97849102D01*
X120275283Y-97983820D01*
X120103820Y-98155283D01*
X119969102Y-98356903D01*
X119876307Y-98580931D01*
X119829000Y-98818757D01*
X119829000Y-99061243D01*
X119876307Y-99299069D01*
X119969102Y-99523097D01*
X120103820Y-99724717D01*
X120275283Y-99896180D01*
X120476903Y-100030898D01*
X120700931Y-100123693D01*
X120938757Y-100171000D01*
X121181243Y-100171000D01*
X121419069Y-100123693D01*
X121643097Y-100030898D01*
X121844717Y-99896180D01*
X122016180Y-99724717D01*
X122150898Y-99523097D01*
X122243693Y-99299069D01*
X122291000Y-99061243D01*
X122291000Y-98818757D01*
X122243693Y-98580931D01*
X122150898Y-98356903D01*
X122016180Y-98155283D01*
X121844717Y-97983820D01*
X121643097Y-97849102D01*
X121528832Y-97801772D01*
X121691252Y-97744157D01*
X121941355Y-97595178D01*
X122137502Y-97418374D01*
X122160498Y-97494180D01*
X122219463Y-97604494D01*
X122298815Y-97701185D01*
X122395506Y-97780537D01*
X122505820Y-97839502D01*
X122625518Y-97875812D01*
X122750000Y-97888072D01*
X122960294Y-97886927D01*
X122815283Y-97983820D01*
X122643820Y-98155283D01*
X122509102Y-98356903D01*
X122416307Y-98580931D01*
X122369000Y-98818757D01*
X122369000Y-99061243D01*
X122416307Y-99299069D01*
X122509102Y-99523097D01*
X122643820Y-99724717D01*
X122815283Y-99896180D01*
X123016903Y-100030898D01*
X123240931Y-100123693D01*
X123478757Y-100171000D01*
X123721243Y-100171000D01*
X123959069Y-100123693D01*
X124183097Y-100030898D01*
X124384717Y-99896180D01*
X124556180Y-99724717D01*
X124690898Y-99523097D01*
X124783693Y-99299069D01*
X124831000Y-99061243D01*
X124831000Y-98818757D01*
X124783693Y-98580931D01*
X124690898Y-98356903D01*
X124556180Y-98155283D01*
X124384717Y-97983820D01*
X124239706Y-97886927D01*
X124450000Y-97888072D01*
X124574482Y-97875812D01*
X124694180Y-97839502D01*
X124804494Y-97780537D01*
X124901185Y-97701185D01*
X124980537Y-97604494D01*
X125039502Y-97494180D01*
X125075812Y-97374482D01*
X125088072Y-97250000D01*
X125085000Y-96685750D01*
X124926250Y-96527000D01*
X123727000Y-96527000D01*
X123727000Y-96547000D01*
X123473000Y-96547000D01*
X123473000Y-96527000D01*
X121187000Y-96527000D01*
X121187000Y-96547000D01*
X120933000Y-96547000D01*
X120933000Y-96527000D01*
X119739845Y-96527000D01*
X119618524Y-96756890D01*
X118541000Y-96756890D01*
X118541000Y-96043110D01*
X119618524Y-96043110D01*
X119739845Y-96273000D01*
X120933000Y-96273000D01*
X120933000Y-95079186D01*
X121187000Y-95079186D01*
X121187000Y-96273000D01*
X123473000Y-96273000D01*
X123473000Y-95073750D01*
X123727000Y-95073750D01*
X123727000Y-96273000D01*
X124926250Y-96273000D01*
X125085000Y-96114250D01*
X125088072Y-95550000D01*
X125075812Y-95425518D01*
X125039502Y-95305820D01*
X124980537Y-95195506D01*
X124901185Y-95098815D01*
X124804494Y-95019463D01*
X124694180Y-94960498D01*
X124574482Y-94924188D01*
X124450000Y-94911928D01*
X123885750Y-94915000D01*
X123727000Y-95073750D01*
X123473000Y-95073750D01*
X123314250Y-94915000D01*
X122750000Y-94911928D01*
X122625518Y-94924188D01*
X122505820Y-94960498D01*
X122395506Y-95019463D01*
X122298815Y-95098815D01*
X122219463Y-95195506D01*
X122160498Y-95305820D01*
X122137502Y-95381626D01*
X121941355Y-95204822D01*
X121691252Y-95055843D01*
X121416891Y-94958519D01*
X121187000Y-95079186D01*
X120933000Y-95079186D01*
X120703109Y-94958519D01*
X120428748Y-95055843D01*
X120178645Y-95204822D01*
X119962412Y-95399731D01*
X119788359Y-95633080D01*
X119663175Y-95895901D01*
X119618524Y-96043110D01*
X118541000Y-96043110D01*
X118541000Y-93395000D01*
X133210948Y-93395000D01*
X133176903Y-93409102D01*
G36*
X137671678Y-93437304D02*
G01*
X137636299Y-93503492D01*
X137614513Y-93575311D01*
X137607157Y-93650000D01*
X137607157Y-95350000D01*
X137614513Y-95424689D01*
X137636299Y-95496508D01*
X137671678Y-95562696D01*
X137719289Y-95620711D01*
X137777304Y-95668322D01*
X137843492Y-95703701D01*
X137915311Y-95725487D01*
X137990000Y-95732843D01*
X139690000Y-95732843D01*
X139764689Y-95725487D01*
X139836508Y-95703701D01*
X139902696Y-95668322D01*
X139960711Y-95620711D01*
X140008322Y-95562696D01*
X140043701Y-95496508D01*
X140065487Y-95424689D01*
X140072843Y-95350000D01*
X140072843Y-93650000D01*
X140065487Y-93575311D01*
X140043701Y-93503492D01*
X140008322Y-93437304D01*
X139973605Y-93395000D01*
X145619000Y-93395000D01*
X145619000Y-96499600D01*
X145554896Y-96435496D01*
X145438791Y-96551601D01*
X145361157Y-96302528D01*
X145097117Y-96176629D01*
X144813589Y-96104661D01*
X144521469Y-96089389D01*
X144231981Y-96131401D01*
X143956253Y-96229081D01*
X143818843Y-96302528D01*
X143741208Y-96551603D01*
X144590000Y-97400395D01*
X144604143Y-97386253D01*
X144783748Y-97565858D01*
X144769605Y-97580000D01*
X144783748Y-97594143D01*
X144604143Y-97773748D01*
X144590000Y-97759605D01*
X143741208Y-98608397D01*
X143816514Y-98850000D01*
X143741208Y-99091603D01*
X144590000Y-99940395D01*
X144604143Y-99926253D01*
X144783748Y-100105858D01*
X144769605Y-100120000D01*
X144783748Y-100134143D01*
X144604143Y-100313748D01*
X144590000Y-100299605D01*
X143741208Y-101148397D01*
X143818843Y-101397472D01*
X144082883Y-101523371D01*
X144104228Y-101528789D01*
X144006903Y-101569102D01*
X143805283Y-101703820D01*
X143633820Y-101875283D01*
X143499102Y-102076903D01*
X143406307Y-102300931D01*
X143359000Y-102538757D01*
X143359000Y-102781243D01*
X143406307Y-103019069D01*
X143499102Y-103243097D01*
X143589241Y-103378000D01*
X143050759Y-103378000D01*
X143140898Y-103243097D01*
X143233693Y-103019069D01*
X143281000Y-102781243D01*
X143281000Y-102538757D01*
X143233693Y-102300931D01*
X143140898Y-102076903D01*
X143006180Y-101875283D01*
X142834717Y-101703820D01*
X142633097Y-101569102D01*
X142409069Y-101476307D01*
X142171243Y-101429000D01*
X141928757Y-101429000D01*
X141690931Y-101476307D01*
X141466903Y-101569102D01*
X141265283Y-101703820D01*
X141093820Y-101875283D01*
X140959102Y-102076903D01*
X140866307Y-102300931D01*
X140819000Y-102538757D01*
X140819000Y-102781243D01*
X140866307Y-103019069D01*
X140959102Y-103243097D01*
X141049241Y-103378000D01*
X140716000Y-103378000D01*
X140691224Y-103380440D01*
X140659204Y-103391408D01*
X139416020Y-104013000D01*
X131682620Y-104013000D01*
X131682620Y-101417571D01*
X132455793Y-100644399D01*
X136142367Y-100644399D01*
X136149013Y-100677809D01*
X136207887Y-100819942D01*
X136293358Y-100947859D01*
X136402141Y-101056642D01*
X136530058Y-101142113D01*
X136672191Y-101200987D01*
X136823078Y-101231000D01*
X136976922Y-101231000D01*
X137127809Y-101200987D01*
X137269942Y-101142113D01*
X137397859Y-101056642D01*
X137506642Y-100947859D01*
X137592113Y-100819942D01*
X137650987Y-100677809D01*
X137681000Y-100526922D01*
X137681000Y-100373078D01*
X137650987Y-100222191D01*
X137592113Y-100080058D01*
X137537790Y-99998757D01*
X140819000Y-99998757D01*
X140819000Y-100241243D01*
X140866307Y-100479069D01*
X140959102Y-100703097D01*
X141093820Y-100904717D01*
X141265283Y-101076180D01*
X141466903Y-101210898D01*
X141690931Y-101303693D01*
X141928757Y-101351000D01*
X142171243Y-101351000D01*
X142409069Y-101303693D01*
X142633097Y-101210898D01*
X142834717Y-101076180D01*
X143006180Y-100904717D01*
X143140898Y-100703097D01*
X143184148Y-100598683D01*
X143239081Y-100753747D01*
X143312528Y-100891157D01*
X143561603Y-100968792D01*
X144410395Y-100120000D01*
X143561603Y-99271208D01*
X143312528Y-99348843D01*
X143186629Y-99612883D01*
X143181211Y-99634228D01*
X143140898Y-99536903D01*
X143006180Y-99335283D01*
X142834717Y-99163820D01*
X142633097Y-99029102D01*
X142409069Y-98936307D01*
X142171243Y-98889000D01*
X141928757Y-98889000D01*
X141690931Y-98936307D01*
X141466903Y-99029102D01*
X141265283Y-99163820D01*
X141093820Y-99335283D01*
X140959102Y-99536903D01*
X140866307Y-99760931D01*
X140819000Y-99998757D01*
X137537790Y-99998757D01*
X137506642Y-99952141D01*
X137397859Y-99843358D01*
X137269942Y-99757887D01*
X137127809Y-99699013D01*
X136976922Y-99669000D01*
X136823078Y-99669000D01*
X136794322Y-99674720D01*
X136782974Y-99668654D01*
X136687592Y-99639721D01*
X136613253Y-99632399D01*
X136613245Y-99632399D01*
X136588399Y-99629952D01*
X136563553Y-99632399D01*
X136083992Y-99632399D01*
X136636620Y-99079772D01*
X136655927Y-99063927D01*
X136719159Y-98986879D01*
X136766145Y-98898975D01*
X136795078Y-98803593D01*
X136802400Y-98729254D01*
X136804848Y-98704400D01*
X136802400Y-98679546D01*
X136802400Y-96980000D01*
X140817157Y-96980000D01*
X140817157Y-98180000D01*
X140829317Y-98303462D01*
X140865329Y-98422179D01*
X140923810Y-98531589D01*
X141002512Y-98627488D01*
X141098411Y-98706190D01*
X141207821Y-98764671D01*
X141326538Y-98800683D01*
X141450000Y-98812843D01*
X142650000Y-98812843D01*
X142773462Y-98800683D01*
X142892179Y-98764671D01*
X143001589Y-98706190D01*
X143097488Y-98627488D01*
X143176190Y-98531589D01*
X143234671Y-98422179D01*
X143270683Y-98303462D01*
X143273227Y-98277630D01*
X143312528Y-98351157D01*
X143561603Y-98428792D01*
X144410395Y-97580000D01*
X143561603Y-96731208D01*
X143312528Y-96808843D01*
X143273953Y-96889743D01*
X143270683Y-96856538D01*
X143234671Y-96737821D01*
X143176190Y-96628411D01*
X143097488Y-96532512D01*
X143001589Y-96453810D01*
X142892179Y-96395329D01*
X142773462Y-96359317D01*
X142650000Y-96347157D01*
X141450000Y-96347157D01*
X141326538Y-96359317D01*
X141207821Y-96395329D01*
X141098411Y-96453810D01*
X141002512Y-96532512D01*
X140923810Y-96628411D01*
X140865329Y-96737821D01*
X140829317Y-96856538D01*
X140817157Y-96980000D01*
X136802400Y-96980000D01*
X136802400Y-96196804D01*
X136806000Y-96160254D01*
X136806000Y-96160247D01*
X136808447Y-96135401D01*
X136806000Y-96110555D01*
X136806000Y-95622832D01*
X136883097Y-95590898D01*
X137084717Y-95456180D01*
X137256180Y-95284717D01*
X137390898Y-95083097D01*
X137483693Y-94859069D01*
X137531000Y-94621243D01*
X137531000Y-94378757D01*
X137483693Y-94140931D01*
X137390898Y-93916903D01*
X137256180Y-93715283D01*
X137084717Y-93543820D01*
X136883097Y-93409102D01*
X136849052Y-93395000D01*
X137706395Y-93395000D01*
X137671678Y-93437304D01*
G37*
X137671678Y-93437304D02*
X137636299Y-93503492D01*
X137614513Y-93575311D01*
X137607157Y-93650000D01*
X137607157Y-95350000D01*
X137614513Y-95424689D01*
X137636299Y-95496508D01*
X137671678Y-95562696D01*
X137719289Y-95620711D01*
X137777304Y-95668322D01*
X137843492Y-95703701D01*
X137915311Y-95725487D01*
X137990000Y-95732843D01*
X139690000Y-95732843D01*
X139764689Y-95725487D01*
X139836508Y-95703701D01*
X139902696Y-95668322D01*
X139960711Y-95620711D01*
X140008322Y-95562696D01*
X140043701Y-95496508D01*
X140065487Y-95424689D01*
X140072843Y-95350000D01*
X140072843Y-93650000D01*
X140065487Y-93575311D01*
X140043701Y-93503492D01*
X140008322Y-93437304D01*
X139973605Y-93395000D01*
X145619000Y-93395000D01*
X145619000Y-96499600D01*
X145554896Y-96435496D01*
X145438791Y-96551601D01*
X145361157Y-96302528D01*
X145097117Y-96176629D01*
X144813589Y-96104661D01*
X144521469Y-96089389D01*
X144231981Y-96131401D01*
X143956253Y-96229081D01*
X143818843Y-96302528D01*
X143741208Y-96551603D01*
X144590000Y-97400395D01*
X144604143Y-97386253D01*
X144783748Y-97565858D01*
X144769605Y-97580000D01*
X144783748Y-97594143D01*
X144604143Y-97773748D01*
X144590000Y-97759605D01*
X143741208Y-98608397D01*
X143816514Y-98850000D01*
X143741208Y-99091603D01*
X144590000Y-99940395D01*
X144604143Y-99926253D01*
X144783748Y-100105858D01*
X144769605Y-100120000D01*
X144783748Y-100134143D01*
X144604143Y-100313748D01*
X144590000Y-100299605D01*
X143741208Y-101148397D01*
X143818843Y-101397472D01*
X144082883Y-101523371D01*
X144104228Y-101528789D01*
X144006903Y-101569102D01*
X143805283Y-101703820D01*
X143633820Y-101875283D01*
X143499102Y-102076903D01*
X143406307Y-102300931D01*
X143359000Y-102538757D01*
X143359000Y-102781243D01*
X143406307Y-103019069D01*
X143499102Y-103243097D01*
X143589241Y-103378000D01*
X143050759Y-103378000D01*
X143140898Y-103243097D01*
X143233693Y-103019069D01*
X143281000Y-102781243D01*
X143281000Y-102538757D01*
X143233693Y-102300931D01*
X143140898Y-102076903D01*
X143006180Y-101875283D01*
X142834717Y-101703820D01*
X142633097Y-101569102D01*
X142409069Y-101476307D01*
X142171243Y-101429000D01*
X141928757Y-101429000D01*
X141690931Y-101476307D01*
X141466903Y-101569102D01*
X141265283Y-101703820D01*
X141093820Y-101875283D01*
X140959102Y-102076903D01*
X140866307Y-102300931D01*
X140819000Y-102538757D01*
X140819000Y-102781243D01*
X140866307Y-103019069D01*
X140959102Y-103243097D01*
X141049241Y-103378000D01*
X140716000Y-103378000D01*
X140691224Y-103380440D01*
X140659204Y-103391408D01*
X139416020Y-104013000D01*
X131682620Y-104013000D01*
X131682620Y-101417571D01*
X132455793Y-100644399D01*
X136142367Y-100644399D01*
X136149013Y-100677809D01*
X136207887Y-100819942D01*
X136293358Y-100947859D01*
X136402141Y-101056642D01*
X136530058Y-101142113D01*
X136672191Y-101200987D01*
X136823078Y-101231000D01*
X136976922Y-101231000D01*
X137127809Y-101200987D01*
X137269942Y-101142113D01*
X137397859Y-101056642D01*
X137506642Y-100947859D01*
X137592113Y-100819942D01*
X137650987Y-100677809D01*
X137681000Y-100526922D01*
X137681000Y-100373078D01*
X137650987Y-100222191D01*
X137592113Y-100080058D01*
X137537790Y-99998757D01*
X140819000Y-99998757D01*
X140819000Y-100241243D01*
X140866307Y-100479069D01*
X140959102Y-100703097D01*
X141093820Y-100904717D01*
X141265283Y-101076180D01*
X141466903Y-101210898D01*
X141690931Y-101303693D01*
X141928757Y-101351000D01*
X142171243Y-101351000D01*
X142409069Y-101303693D01*
X142633097Y-101210898D01*
X142834717Y-101076180D01*
X143006180Y-100904717D01*
X143140898Y-100703097D01*
X143184148Y-100598683D01*
X143239081Y-100753747D01*
X143312528Y-100891157D01*
X143561603Y-100968792D01*
X144410395Y-100120000D01*
X143561603Y-99271208D01*
X143312528Y-99348843D01*
X143186629Y-99612883D01*
X143181211Y-99634228D01*
X143140898Y-99536903D01*
X143006180Y-99335283D01*
X142834717Y-99163820D01*
X142633097Y-99029102D01*
X142409069Y-98936307D01*
X142171243Y-98889000D01*
X141928757Y-98889000D01*
X141690931Y-98936307D01*
X141466903Y-99029102D01*
X141265283Y-99163820D01*
X141093820Y-99335283D01*
X140959102Y-99536903D01*
X140866307Y-99760931D01*
X140819000Y-99998757D01*
X137537790Y-99998757D01*
X137506642Y-99952141D01*
X137397859Y-99843358D01*
X137269942Y-99757887D01*
X137127809Y-99699013D01*
X136976922Y-99669000D01*
X136823078Y-99669000D01*
X136794322Y-99674720D01*
X136782974Y-99668654D01*
X136687592Y-99639721D01*
X136613253Y-99632399D01*
X136613245Y-99632399D01*
X136588399Y-99629952D01*
X136563553Y-99632399D01*
X136083992Y-99632399D01*
X136636620Y-99079772D01*
X136655927Y-99063927D01*
X136719159Y-98986879D01*
X136766145Y-98898975D01*
X136795078Y-98803593D01*
X136802400Y-98729254D01*
X136804848Y-98704400D01*
X136802400Y-98679546D01*
X136802400Y-96980000D01*
X140817157Y-96980000D01*
X140817157Y-98180000D01*
X140829317Y-98303462D01*
X140865329Y-98422179D01*
X140923810Y-98531589D01*
X141002512Y-98627488D01*
X141098411Y-98706190D01*
X141207821Y-98764671D01*
X141326538Y-98800683D01*
X141450000Y-98812843D01*
X142650000Y-98812843D01*
X142773462Y-98800683D01*
X142892179Y-98764671D01*
X143001589Y-98706190D01*
X143097488Y-98627488D01*
X143176190Y-98531589D01*
X143234671Y-98422179D01*
X143270683Y-98303462D01*
X143273227Y-98277630D01*
X143312528Y-98351157D01*
X143561603Y-98428792D01*
X144410395Y-97580000D01*
X143561603Y-96731208D01*
X143312528Y-96808843D01*
X143273953Y-96889743D01*
X143270683Y-96856538D01*
X143234671Y-96737821D01*
X143176190Y-96628411D01*
X143097488Y-96532512D01*
X143001589Y-96453810D01*
X142892179Y-96395329D01*
X142773462Y-96359317D01*
X142650000Y-96347157D01*
X141450000Y-96347157D01*
X141326538Y-96359317D01*
X141207821Y-96395329D01*
X141098411Y-96453810D01*
X141002512Y-96532512D01*
X140923810Y-96628411D01*
X140865329Y-96737821D01*
X140829317Y-96856538D01*
X140817157Y-96980000D01*
X136802400Y-96980000D01*
X136802400Y-96196804D01*
X136806000Y-96160254D01*
X136806000Y-96160247D01*
X136808447Y-96135401D01*
X136806000Y-96110555D01*
X136806000Y-95622832D01*
X136883097Y-95590898D01*
X137084717Y-95456180D01*
X137256180Y-95284717D01*
X137390898Y-95083097D01*
X137483693Y-94859069D01*
X137531000Y-94621243D01*
X137531000Y-94378757D01*
X137483693Y-94140931D01*
X137390898Y-93916903D01*
X137256180Y-93715283D01*
X137084717Y-93543820D01*
X136883097Y-93409102D01*
X136849052Y-93395000D01*
X137706395Y-93395000D01*
X137671678Y-93437304D01*
G36*
X145619001Y-103378000D02*
G01*
X145590759Y-103378000D01*
X145619001Y-103335733D01*
X145619001Y-103378000D01*
G37*
X145619001Y-103378000D02*
X145590759Y-103378000D01*
X145619001Y-103335733D01*
X145619001Y-103378000D01*
G36*
X145554896Y-101264504D02*
G01*
X145619000Y-101200400D01*
X145619000Y-101984267D01*
X145546180Y-101875283D01*
X145374717Y-101703820D01*
X145173097Y-101569102D01*
X145068683Y-101525852D01*
X145223747Y-101470919D01*
X145361157Y-101397472D01*
X145438791Y-101148399D01*
X145554896Y-101264504D01*
G37*
X145554896Y-101264504D02*
X145619000Y-101200400D01*
X145619000Y-101984267D01*
X145546180Y-101875283D01*
X145374717Y-101703820D01*
X145173097Y-101569102D01*
X145068683Y-101525852D01*
X145223747Y-101470919D01*
X145361157Y-101397472D01*
X145438791Y-101148399D01*
X145554896Y-101264504D01*
%TD*%
M02*
