%TF.GenerationSoftware,KiCad,Pcbnew,(5.1.6-0)*%
%TF.CreationDate,2022-11-03T10:15:40+01:00*%
%TF.ProjectId,Monitorswitch,4d6f6e69-746f-4727-9377-697463682e6b,rev?*%
%TF.SameCoordinates,Original*%
%TF.FileFunction,Paste,Top*%
%TF.FilePolarity,Positive*%
%FSLAX46Y46*%
G04 Gerber Fmt 4.6, Leading zero omitted, Abs format (unit mm)*
G04 Created by KiCad (PCBNEW (5.1.6-0)) date 2022-11-03 10:15:40*
%MOMM*%
%LPD*%
G01*
G04 APERTURE LIST*
%ADD10R,1.060000X0.650000*%
G04 APERTURE END LIST*
D10*
%TO.C,U3*%
X129174600Y-107223600D03*
X129174600Y-106273600D03*
X129174600Y-108173600D03*
X126974600Y-108173600D03*
X126974600Y-107223600D03*
X126974600Y-106273600D03*
%TD*%
%TO.C,U2*%
X129184400Y-111389200D03*
X129184400Y-110439200D03*
X129184400Y-112339200D03*
X126984400Y-112339200D03*
X126984400Y-111389200D03*
X126984400Y-110439200D03*
%TD*%
%TO.C,R1*%
G36*
G01*
X134237500Y-111175000D02*
X133762500Y-111175000D01*
G75*
G02*
X133525000Y-110937500I0J237500D01*
G01*
X133525000Y-110362500D01*
G75*
G02*
X133762500Y-110125000I237500J0D01*
G01*
X134237500Y-110125000D01*
G75*
G02*
X134475000Y-110362500I0J-237500D01*
G01*
X134475000Y-110937500D01*
G75*
G02*
X134237500Y-111175000I-237500J0D01*
G01*
G37*
G36*
G01*
X134237500Y-112925000D02*
X133762500Y-112925000D01*
G75*
G02*
X133525000Y-112687500I0J237500D01*
G01*
X133525000Y-112112500D01*
G75*
G02*
X133762500Y-111875000I237500J0D01*
G01*
X134237500Y-111875000D01*
G75*
G02*
X134475000Y-112112500I0J-237500D01*
G01*
X134475000Y-112687500D01*
G75*
G02*
X134237500Y-112925000I-237500J0D01*
G01*
G37*
%TD*%
%TO.C,FB2*%
G36*
G01*
X135925000Y-97337500D02*
X135925000Y-96862500D01*
G75*
G02*
X136162500Y-96625000I237500J0D01*
G01*
X136737500Y-96625000D01*
G75*
G02*
X136975000Y-96862500I0J-237500D01*
G01*
X136975000Y-97337500D01*
G75*
G02*
X136737500Y-97575000I-237500J0D01*
G01*
X136162500Y-97575000D01*
G75*
G02*
X135925000Y-97337500I0J237500D01*
G01*
G37*
G36*
G01*
X134175000Y-97337500D02*
X134175000Y-96862500D01*
G75*
G02*
X134412500Y-96625000I237500J0D01*
G01*
X134987500Y-96625000D01*
G75*
G02*
X135225000Y-96862500I0J-237500D01*
G01*
X135225000Y-97337500D01*
G75*
G02*
X134987500Y-97575000I-237500J0D01*
G01*
X134412500Y-97575000D01*
G75*
G02*
X134175000Y-97337500I0J237500D01*
G01*
G37*
%TD*%
%TO.C,FB1*%
G36*
G01*
X135900000Y-99187500D02*
X135900000Y-98712500D01*
G75*
G02*
X136137500Y-98475000I237500J0D01*
G01*
X136712500Y-98475000D01*
G75*
G02*
X136950000Y-98712500I0J-237500D01*
G01*
X136950000Y-99187500D01*
G75*
G02*
X136712500Y-99425000I-237500J0D01*
G01*
X136137500Y-99425000D01*
G75*
G02*
X135900000Y-99187500I0J237500D01*
G01*
G37*
G36*
G01*
X134150000Y-99187500D02*
X134150000Y-98712500D01*
G75*
G02*
X134387500Y-98475000I237500J0D01*
G01*
X134962500Y-98475000D01*
G75*
G02*
X135200000Y-98712500I0J-237500D01*
G01*
X135200000Y-99187500D01*
G75*
G02*
X134962500Y-99425000I-237500J0D01*
G01*
X134387500Y-99425000D01*
G75*
G02*
X134150000Y-99187500I0J237500D01*
G01*
G37*
%TD*%
%TO.C,C4*%
G36*
G01*
X136657501Y-110920000D02*
X135757499Y-110920000D01*
G75*
G02*
X135507500Y-110670001I0J249999D01*
G01*
X135507500Y-110019999D01*
G75*
G02*
X135757499Y-109770000I249999J0D01*
G01*
X136657501Y-109770000D01*
G75*
G02*
X136907500Y-110019999I0J-249999D01*
G01*
X136907500Y-110670001D01*
G75*
G02*
X136657501Y-110920000I-249999J0D01*
G01*
G37*
G36*
G01*
X136657501Y-112970000D02*
X135757499Y-112970000D01*
G75*
G02*
X135507500Y-112720001I0J249999D01*
G01*
X135507500Y-112069999D01*
G75*
G02*
X135757499Y-111820000I249999J0D01*
G01*
X136657501Y-111820000D01*
G75*
G02*
X136907500Y-112069999I0J-249999D01*
G01*
X136907500Y-112720001D01*
G75*
G02*
X136657501Y-112970000I-249999J0D01*
G01*
G37*
%TD*%
%TO.C,C3*%
G36*
G01*
X131787500Y-106925000D02*
X131312500Y-106925000D01*
G75*
G02*
X131075000Y-106687500I0J237500D01*
G01*
X131075000Y-106112500D01*
G75*
G02*
X131312500Y-105875000I237500J0D01*
G01*
X131787500Y-105875000D01*
G75*
G02*
X132025000Y-106112500I0J-237500D01*
G01*
X132025000Y-106687500D01*
G75*
G02*
X131787500Y-106925000I-237500J0D01*
G01*
G37*
G36*
G01*
X131787500Y-108675000D02*
X131312500Y-108675000D01*
G75*
G02*
X131075000Y-108437500I0J237500D01*
G01*
X131075000Y-107862500D01*
G75*
G02*
X131312500Y-107625000I237500J0D01*
G01*
X131787500Y-107625000D01*
G75*
G02*
X132025000Y-107862500I0J-237500D01*
G01*
X132025000Y-108437500D01*
G75*
G02*
X131787500Y-108675000I-237500J0D01*
G01*
G37*
%TD*%
%TO.C,C2*%
G36*
G01*
X131787500Y-111175000D02*
X131312500Y-111175000D01*
G75*
G02*
X131075000Y-110937500I0J237500D01*
G01*
X131075000Y-110362500D01*
G75*
G02*
X131312500Y-110125000I237500J0D01*
G01*
X131787500Y-110125000D01*
G75*
G02*
X132025000Y-110362500I0J-237500D01*
G01*
X132025000Y-110937500D01*
G75*
G02*
X131787500Y-111175000I-237500J0D01*
G01*
G37*
G36*
G01*
X131787500Y-112925000D02*
X131312500Y-112925000D01*
G75*
G02*
X131075000Y-112687500I0J237500D01*
G01*
X131075000Y-112112500D01*
G75*
G02*
X131312500Y-111875000I237500J0D01*
G01*
X131787500Y-111875000D01*
G75*
G02*
X132025000Y-112112500I0J-237500D01*
G01*
X132025000Y-112687500D01*
G75*
G02*
X131787500Y-112925000I-237500J0D01*
G01*
G37*
%TD*%
%TO.C,C1*%
G36*
G01*
X133087500Y-97675000D02*
X132612500Y-97675000D01*
G75*
G02*
X132375000Y-97437500I0J237500D01*
G01*
X132375000Y-96862500D01*
G75*
G02*
X132612500Y-96625000I237500J0D01*
G01*
X133087500Y-96625000D01*
G75*
G02*
X133325000Y-96862500I0J-237500D01*
G01*
X133325000Y-97437500D01*
G75*
G02*
X133087500Y-97675000I-237500J0D01*
G01*
G37*
G36*
G01*
X133087500Y-99425000D02*
X132612500Y-99425000D01*
G75*
G02*
X132375000Y-99187500I0J237500D01*
G01*
X132375000Y-98612500D01*
G75*
G02*
X132612500Y-98375000I237500J0D01*
G01*
X133087500Y-98375000D01*
G75*
G02*
X133325000Y-98612500I0J-237500D01*
G01*
X133325000Y-99187500D01*
G75*
G02*
X133087500Y-99425000I-237500J0D01*
G01*
G37*
%TD*%
%TO.C,U1*%
G36*
G01*
X126825000Y-96775000D02*
X126625000Y-96775000D01*
G75*
G02*
X126525000Y-96675000I0J100000D01*
G01*
X126525000Y-95400000D01*
G75*
G02*
X126625000Y-95300000I100000J0D01*
G01*
X126825000Y-95300000D01*
G75*
G02*
X126925000Y-95400000I0J-100000D01*
G01*
X126925000Y-96675000D01*
G75*
G02*
X126825000Y-96775000I-100000J0D01*
G01*
G37*
G36*
G01*
X127475000Y-96775000D02*
X127275000Y-96775000D01*
G75*
G02*
X127175000Y-96675000I0J100000D01*
G01*
X127175000Y-95400000D01*
G75*
G02*
X127275000Y-95300000I100000J0D01*
G01*
X127475000Y-95300000D01*
G75*
G02*
X127575000Y-95400000I0J-100000D01*
G01*
X127575000Y-96675000D01*
G75*
G02*
X127475000Y-96775000I-100000J0D01*
G01*
G37*
G36*
G01*
X128125000Y-96775000D02*
X127925000Y-96775000D01*
G75*
G02*
X127825000Y-96675000I0J100000D01*
G01*
X127825000Y-95400000D01*
G75*
G02*
X127925000Y-95300000I100000J0D01*
G01*
X128125000Y-95300000D01*
G75*
G02*
X128225000Y-95400000I0J-100000D01*
G01*
X128225000Y-96675000D01*
G75*
G02*
X128125000Y-96775000I-100000J0D01*
G01*
G37*
G36*
G01*
X128775000Y-96775000D02*
X128575000Y-96775000D01*
G75*
G02*
X128475000Y-96675000I0J100000D01*
G01*
X128475000Y-95400000D01*
G75*
G02*
X128575000Y-95300000I100000J0D01*
G01*
X128775000Y-95300000D01*
G75*
G02*
X128875000Y-95400000I0J-100000D01*
G01*
X128875000Y-96675000D01*
G75*
G02*
X128775000Y-96775000I-100000J0D01*
G01*
G37*
G36*
G01*
X129425000Y-96775000D02*
X129225000Y-96775000D01*
G75*
G02*
X129125000Y-96675000I0J100000D01*
G01*
X129125000Y-95400000D01*
G75*
G02*
X129225000Y-95300000I100000J0D01*
G01*
X129425000Y-95300000D01*
G75*
G02*
X129525000Y-95400000I0J-100000D01*
G01*
X129525000Y-96675000D01*
G75*
G02*
X129425000Y-96775000I-100000J0D01*
G01*
G37*
G36*
G01*
X130075000Y-96775000D02*
X129875000Y-96775000D01*
G75*
G02*
X129775000Y-96675000I0J100000D01*
G01*
X129775000Y-95400000D01*
G75*
G02*
X129875000Y-95300000I100000J0D01*
G01*
X130075000Y-95300000D01*
G75*
G02*
X130175000Y-95400000I0J-100000D01*
G01*
X130175000Y-96675000D01*
G75*
G02*
X130075000Y-96775000I-100000J0D01*
G01*
G37*
G36*
G01*
X130725000Y-96775000D02*
X130525000Y-96775000D01*
G75*
G02*
X130425000Y-96675000I0J100000D01*
G01*
X130425000Y-95400000D01*
G75*
G02*
X130525000Y-95300000I100000J0D01*
G01*
X130725000Y-95300000D01*
G75*
G02*
X130825000Y-95400000I0J-100000D01*
G01*
X130825000Y-96675000D01*
G75*
G02*
X130725000Y-96775000I-100000J0D01*
G01*
G37*
G36*
G01*
X131375000Y-96775000D02*
X131175000Y-96775000D01*
G75*
G02*
X131075000Y-96675000I0J100000D01*
G01*
X131075000Y-95400000D01*
G75*
G02*
X131175000Y-95300000I100000J0D01*
G01*
X131375000Y-95300000D01*
G75*
G02*
X131475000Y-95400000I0J-100000D01*
G01*
X131475000Y-96675000D01*
G75*
G02*
X131375000Y-96775000I-100000J0D01*
G01*
G37*
G36*
G01*
X131375000Y-102500000D02*
X131175000Y-102500000D01*
G75*
G02*
X131075000Y-102400000I0J100000D01*
G01*
X131075000Y-101125000D01*
G75*
G02*
X131175000Y-101025000I100000J0D01*
G01*
X131375000Y-101025000D01*
G75*
G02*
X131475000Y-101125000I0J-100000D01*
G01*
X131475000Y-102400000D01*
G75*
G02*
X131375000Y-102500000I-100000J0D01*
G01*
G37*
G36*
G01*
X130725000Y-102500000D02*
X130525000Y-102500000D01*
G75*
G02*
X130425000Y-102400000I0J100000D01*
G01*
X130425000Y-101125000D01*
G75*
G02*
X130525000Y-101025000I100000J0D01*
G01*
X130725000Y-101025000D01*
G75*
G02*
X130825000Y-101125000I0J-100000D01*
G01*
X130825000Y-102400000D01*
G75*
G02*
X130725000Y-102500000I-100000J0D01*
G01*
G37*
G36*
G01*
X130075000Y-102500000D02*
X129875000Y-102500000D01*
G75*
G02*
X129775000Y-102400000I0J100000D01*
G01*
X129775000Y-101125000D01*
G75*
G02*
X129875000Y-101025000I100000J0D01*
G01*
X130075000Y-101025000D01*
G75*
G02*
X130175000Y-101125000I0J-100000D01*
G01*
X130175000Y-102400000D01*
G75*
G02*
X130075000Y-102500000I-100000J0D01*
G01*
G37*
G36*
G01*
X129425000Y-102500000D02*
X129225000Y-102500000D01*
G75*
G02*
X129125000Y-102400000I0J100000D01*
G01*
X129125000Y-101125000D01*
G75*
G02*
X129225000Y-101025000I100000J0D01*
G01*
X129425000Y-101025000D01*
G75*
G02*
X129525000Y-101125000I0J-100000D01*
G01*
X129525000Y-102400000D01*
G75*
G02*
X129425000Y-102500000I-100000J0D01*
G01*
G37*
G36*
G01*
X128775000Y-102500000D02*
X128575000Y-102500000D01*
G75*
G02*
X128475000Y-102400000I0J100000D01*
G01*
X128475000Y-101125000D01*
G75*
G02*
X128575000Y-101025000I100000J0D01*
G01*
X128775000Y-101025000D01*
G75*
G02*
X128875000Y-101125000I0J-100000D01*
G01*
X128875000Y-102400000D01*
G75*
G02*
X128775000Y-102500000I-100000J0D01*
G01*
G37*
G36*
G01*
X128125000Y-102500000D02*
X127925000Y-102500000D01*
G75*
G02*
X127825000Y-102400000I0J100000D01*
G01*
X127825000Y-101125000D01*
G75*
G02*
X127925000Y-101025000I100000J0D01*
G01*
X128125000Y-101025000D01*
G75*
G02*
X128225000Y-101125000I0J-100000D01*
G01*
X128225000Y-102400000D01*
G75*
G02*
X128125000Y-102500000I-100000J0D01*
G01*
G37*
G36*
G01*
X127475000Y-102500000D02*
X127275000Y-102500000D01*
G75*
G02*
X127175000Y-102400000I0J100000D01*
G01*
X127175000Y-101125000D01*
G75*
G02*
X127275000Y-101025000I100000J0D01*
G01*
X127475000Y-101025000D01*
G75*
G02*
X127575000Y-101125000I0J-100000D01*
G01*
X127575000Y-102400000D01*
G75*
G02*
X127475000Y-102500000I-100000J0D01*
G01*
G37*
G36*
G01*
X126825000Y-102500000D02*
X126625000Y-102500000D01*
G75*
G02*
X126525000Y-102400000I0J100000D01*
G01*
X126525000Y-101125000D01*
G75*
G02*
X126625000Y-101025000I100000J0D01*
G01*
X126825000Y-101025000D01*
G75*
G02*
X126925000Y-101125000I0J-100000D01*
G01*
X126925000Y-102400000D01*
G75*
G02*
X126825000Y-102500000I-100000J0D01*
G01*
G37*
%TD*%
M02*
