%TF.GenerationSoftware,KiCad,Pcbnew,(5.1.6-0)*%
%TF.CreationDate,2022-11-03T10:15:40+01:00*%
%TF.ProjectId,Monitorswitch,4d6f6e69-746f-4727-9377-697463682e6b,rev?*%
%TF.SameCoordinates,Original*%
%TF.FileFunction,Copper,L1,Top*%
%TF.FilePolarity,Positive*%
%FSLAX46Y46*%
G04 Gerber Fmt 4.6, Leading zero omitted, Abs format (unit mm)*
G04 Created by KiCad (PCBNEW (5.1.6-0)) date 2022-11-03 10:15:40*
%MOMM*%
%LPD*%
G01*
G04 APERTURE LIST*
%TA.AperFunction,SMDPad,CuDef*%
%ADD10R,1.060000X0.650000*%
%TD*%
%TA.AperFunction,ComponentPad*%
%ADD11O,1.700000X1.700000*%
%TD*%
%TA.AperFunction,ComponentPad*%
%ADD12R,1.700000X1.700000*%
%TD*%
%TA.AperFunction,ComponentPad*%
%ADD13C,1.700000*%
%TD*%
%TA.AperFunction,ViaPad*%
%ADD14C,0.800000*%
%TD*%
%TA.AperFunction,Conductor*%
%ADD15C,0.250000*%
%TD*%
%TA.AperFunction,Conductor*%
%ADD16C,0.254000*%
%TD*%
G04 APERTURE END LIST*
D10*
%TO.P,U3,5*%
%TO.N,+5V*%
X129174600Y-107223600D03*
%TO.P,U3,6*%
%TO.N,/SWI*%
X129174600Y-106273600D03*
%TO.P,U3,4*%
%TO.N,/V_OUT*%
X129174600Y-108173600D03*
%TO.P,U3,3*%
%TO.N,/V_GFX*%
X126974600Y-108173600D03*
%TO.P,U3,2*%
%TO.N,GND*%
X126974600Y-107223600D03*
%TO.P,U3,1*%
%TO.N,/V_A*%
X126974600Y-106273600D03*
%TD*%
%TO.P,U2,5*%
%TO.N,+5V*%
X129184400Y-111389200D03*
%TO.P,U2,6*%
%TO.N,/SWI*%
X129184400Y-110439200D03*
%TO.P,U2,4*%
%TO.N,/H_OUT*%
X129184400Y-112339200D03*
%TO.P,U2,3*%
%TO.N,/H_GFX*%
X126984400Y-112339200D03*
%TO.P,U2,2*%
%TO.N,GND*%
X126984400Y-111389200D03*
%TO.P,U2,1*%
%TO.N,/H_A*%
X126984400Y-110439200D03*
%TD*%
D11*
%TO.P,J3,3*%
%TO.N,/SWI*%
X133760000Y-94500000D03*
%TO.P,J3,2*%
%TO.N,GND*%
X136300000Y-94500000D03*
D12*
%TO.P,J3,1*%
%TO.N,+5V*%
X138840000Y-94500000D03*
%TD*%
D13*
%TO.P,J1,10*%
%TO.N,Net-(J1-Pad10)*%
X144590000Y-107740000D03*
%TO.P,J1,8*%
%TO.N,Net-(J1-Pad8)*%
X144590000Y-105200000D03*
%TO.P,J1,6*%
%TO.N,Net-(J1-Pad6)*%
X144590000Y-102660000D03*
%TO.P,J1,4*%
%TO.N,GNDA*%
X144590000Y-100120000D03*
%TO.P,J1,2*%
X144590000Y-97580000D03*
%TO.P,J1,9*%
%TO.N,/V_GFX*%
X142050000Y-107740000D03*
%TO.P,J1,7*%
%TO.N,/H_GFX*%
X142050000Y-105200000D03*
%TO.P,J1,5*%
%TO.N,/B_GFX*%
X142050000Y-102660000D03*
%TO.P,J1,3*%
%TO.N,/G_GFX*%
X142050000Y-100120000D03*
%TO.P,J1,1*%
%TO.N,/R_GFX*%
%TA.AperFunction,ComponentPad*%
G36*
G01*
X141200000Y-98180000D02*
X141200000Y-96980000D01*
G75*
G02*
X141450000Y-96730000I250000J0D01*
G01*
X142650000Y-96730000D01*
G75*
G02*
X142900000Y-96980000I0J-250000D01*
G01*
X142900000Y-98180000D01*
G75*
G02*
X142650000Y-98430000I-250000J0D01*
G01*
X141450000Y-98430000D01*
G75*
G02*
X141200000Y-98180000I0J250000D01*
G01*
G37*
%TD.AperFunction*%
%TD*%
%TO.P,R1,2*%
%TO.N,/SWI*%
%TA.AperFunction,SMDPad,CuDef*%
G36*
G01*
X134237500Y-111175000D02*
X133762500Y-111175000D01*
G75*
G02*
X133525000Y-110937500I0J237500D01*
G01*
X133525000Y-110362500D01*
G75*
G02*
X133762500Y-110125000I237500J0D01*
G01*
X134237500Y-110125000D01*
G75*
G02*
X134475000Y-110362500I0J-237500D01*
G01*
X134475000Y-110937500D01*
G75*
G02*
X134237500Y-111175000I-237500J0D01*
G01*
G37*
%TD.AperFunction*%
%TO.P,R1,1*%
%TO.N,+5V*%
%TA.AperFunction,SMDPad,CuDef*%
G36*
G01*
X134237500Y-112925000D02*
X133762500Y-112925000D01*
G75*
G02*
X133525000Y-112687500I0J237500D01*
G01*
X133525000Y-112112500D01*
G75*
G02*
X133762500Y-111875000I237500J0D01*
G01*
X134237500Y-111875000D01*
G75*
G02*
X134475000Y-112112500I0J-237500D01*
G01*
X134475000Y-112687500D01*
G75*
G02*
X134237500Y-112925000I-237500J0D01*
G01*
G37*
%TD.AperFunction*%
%TD*%
D11*
%TO.P,J2,14*%
%TO.N,/H_OUT*%
X121060000Y-111640000D03*
%TO.P,J2,13*%
%TO.N,/H_A*%
X123600000Y-111640000D03*
%TO.P,J2,12*%
%TO.N,/V_OUT*%
X121060000Y-109100000D03*
%TO.P,J2,11*%
%TO.N,/V_A*%
X123600000Y-109100000D03*
%TO.P,J2,10*%
%TO.N,GNDA*%
X121060000Y-106560000D03*
%TO.P,J2,9*%
X123600000Y-106560000D03*
%TO.P,J2,8*%
%TO.N,/B_OUT*%
X121060000Y-104020000D03*
%TO.P,J2,7*%
%TO.N,/B_A*%
X123600000Y-104020000D03*
%TO.P,J2,6*%
%TO.N,/G_OUT*%
X121060000Y-101480000D03*
%TO.P,J2,5*%
%TO.N,/G_A*%
X123600000Y-101480000D03*
%TO.P,J2,4*%
%TO.N,/R_OUT*%
X121060000Y-98940000D03*
%TO.P,J2,3*%
%TO.N,/R_A*%
X123600000Y-98940000D03*
%TO.P,J2,2*%
%TO.N,GNDA*%
X121060000Y-96400000D03*
D12*
%TO.P,J2,1*%
X123600000Y-96400000D03*
%TD*%
%TO.P,FB2,2*%
%TO.N,GND*%
%TA.AperFunction,SMDPad,CuDef*%
G36*
G01*
X135925000Y-97337500D02*
X135925000Y-96862500D01*
G75*
G02*
X136162500Y-96625000I237500J0D01*
G01*
X136737500Y-96625000D01*
G75*
G02*
X136975000Y-96862500I0J-237500D01*
G01*
X136975000Y-97337500D01*
G75*
G02*
X136737500Y-97575000I-237500J0D01*
G01*
X136162500Y-97575000D01*
G75*
G02*
X135925000Y-97337500I0J237500D01*
G01*
G37*
%TD.AperFunction*%
%TO.P,FB2,1*%
%TO.N,GNDA*%
%TA.AperFunction,SMDPad,CuDef*%
G36*
G01*
X134175000Y-97337500D02*
X134175000Y-96862500D01*
G75*
G02*
X134412500Y-96625000I237500J0D01*
G01*
X134987500Y-96625000D01*
G75*
G02*
X135225000Y-96862500I0J-237500D01*
G01*
X135225000Y-97337500D01*
G75*
G02*
X134987500Y-97575000I-237500J0D01*
G01*
X134412500Y-97575000D01*
G75*
G02*
X134175000Y-97337500I0J237500D01*
G01*
G37*
%TD.AperFunction*%
%TD*%
%TO.P,FB1,2*%
%TO.N,+5V*%
%TA.AperFunction,SMDPad,CuDef*%
G36*
G01*
X135900000Y-99187500D02*
X135900000Y-98712500D01*
G75*
G02*
X136137500Y-98475000I237500J0D01*
G01*
X136712500Y-98475000D01*
G75*
G02*
X136950000Y-98712500I0J-237500D01*
G01*
X136950000Y-99187500D01*
G75*
G02*
X136712500Y-99425000I-237500J0D01*
G01*
X136137500Y-99425000D01*
G75*
G02*
X135900000Y-99187500I0J237500D01*
G01*
G37*
%TD.AperFunction*%
%TO.P,FB1,1*%
%TO.N,+5VA*%
%TA.AperFunction,SMDPad,CuDef*%
G36*
G01*
X134150000Y-99187500D02*
X134150000Y-98712500D01*
G75*
G02*
X134387500Y-98475000I237500J0D01*
G01*
X134962500Y-98475000D01*
G75*
G02*
X135200000Y-98712500I0J-237500D01*
G01*
X135200000Y-99187500D01*
G75*
G02*
X134962500Y-99425000I-237500J0D01*
G01*
X134387500Y-99425000D01*
G75*
G02*
X134150000Y-99187500I0J237500D01*
G01*
G37*
%TD.AperFunction*%
%TD*%
%TO.P,C4,2*%
%TO.N,GND*%
%TA.AperFunction,SMDPad,CuDef*%
G36*
G01*
X136657501Y-110920000D02*
X135757499Y-110920000D01*
G75*
G02*
X135507500Y-110670001I0J249999D01*
G01*
X135507500Y-110019999D01*
G75*
G02*
X135757499Y-109770000I249999J0D01*
G01*
X136657501Y-109770000D01*
G75*
G02*
X136907500Y-110019999I0J-249999D01*
G01*
X136907500Y-110670001D01*
G75*
G02*
X136657501Y-110920000I-249999J0D01*
G01*
G37*
%TD.AperFunction*%
%TO.P,C4,1*%
%TO.N,+5V*%
%TA.AperFunction,SMDPad,CuDef*%
G36*
G01*
X136657501Y-112970000D02*
X135757499Y-112970000D01*
G75*
G02*
X135507500Y-112720001I0J249999D01*
G01*
X135507500Y-112069999D01*
G75*
G02*
X135757499Y-111820000I249999J0D01*
G01*
X136657501Y-111820000D01*
G75*
G02*
X136907500Y-112069999I0J-249999D01*
G01*
X136907500Y-112720001D01*
G75*
G02*
X136657501Y-112970000I-249999J0D01*
G01*
G37*
%TD.AperFunction*%
%TD*%
%TO.P,C3,2*%
%TO.N,GND*%
%TA.AperFunction,SMDPad,CuDef*%
G36*
G01*
X131787500Y-106925000D02*
X131312500Y-106925000D01*
G75*
G02*
X131075000Y-106687500I0J237500D01*
G01*
X131075000Y-106112500D01*
G75*
G02*
X131312500Y-105875000I237500J0D01*
G01*
X131787500Y-105875000D01*
G75*
G02*
X132025000Y-106112500I0J-237500D01*
G01*
X132025000Y-106687500D01*
G75*
G02*
X131787500Y-106925000I-237500J0D01*
G01*
G37*
%TD.AperFunction*%
%TO.P,C3,1*%
%TO.N,+5V*%
%TA.AperFunction,SMDPad,CuDef*%
G36*
G01*
X131787500Y-108675000D02*
X131312500Y-108675000D01*
G75*
G02*
X131075000Y-108437500I0J237500D01*
G01*
X131075000Y-107862500D01*
G75*
G02*
X131312500Y-107625000I237500J0D01*
G01*
X131787500Y-107625000D01*
G75*
G02*
X132025000Y-107862500I0J-237500D01*
G01*
X132025000Y-108437500D01*
G75*
G02*
X131787500Y-108675000I-237500J0D01*
G01*
G37*
%TD.AperFunction*%
%TD*%
%TO.P,C2,2*%
%TO.N,GND*%
%TA.AperFunction,SMDPad,CuDef*%
G36*
G01*
X131787500Y-111175000D02*
X131312500Y-111175000D01*
G75*
G02*
X131075000Y-110937500I0J237500D01*
G01*
X131075000Y-110362500D01*
G75*
G02*
X131312500Y-110125000I237500J0D01*
G01*
X131787500Y-110125000D01*
G75*
G02*
X132025000Y-110362500I0J-237500D01*
G01*
X132025000Y-110937500D01*
G75*
G02*
X131787500Y-111175000I-237500J0D01*
G01*
G37*
%TD.AperFunction*%
%TO.P,C2,1*%
%TO.N,+5V*%
%TA.AperFunction,SMDPad,CuDef*%
G36*
G01*
X131787500Y-112925000D02*
X131312500Y-112925000D01*
G75*
G02*
X131075000Y-112687500I0J237500D01*
G01*
X131075000Y-112112500D01*
G75*
G02*
X131312500Y-111875000I237500J0D01*
G01*
X131787500Y-111875000D01*
G75*
G02*
X132025000Y-112112500I0J-237500D01*
G01*
X132025000Y-112687500D01*
G75*
G02*
X131787500Y-112925000I-237500J0D01*
G01*
G37*
%TD.AperFunction*%
%TD*%
%TO.P,C1,2*%
%TO.N,GNDA*%
%TA.AperFunction,SMDPad,CuDef*%
G36*
G01*
X133087500Y-97675000D02*
X132612500Y-97675000D01*
G75*
G02*
X132375000Y-97437500I0J237500D01*
G01*
X132375000Y-96862500D01*
G75*
G02*
X132612500Y-96625000I237500J0D01*
G01*
X133087500Y-96625000D01*
G75*
G02*
X133325000Y-96862500I0J-237500D01*
G01*
X133325000Y-97437500D01*
G75*
G02*
X133087500Y-97675000I-237500J0D01*
G01*
G37*
%TD.AperFunction*%
%TO.P,C1,1*%
%TO.N,+5VA*%
%TA.AperFunction,SMDPad,CuDef*%
G36*
G01*
X133087500Y-99425000D02*
X132612500Y-99425000D01*
G75*
G02*
X132375000Y-99187500I0J237500D01*
G01*
X132375000Y-98612500D01*
G75*
G02*
X132612500Y-98375000I237500J0D01*
G01*
X133087500Y-98375000D01*
G75*
G02*
X133325000Y-98612500I0J-237500D01*
G01*
X133325000Y-99187500D01*
G75*
G02*
X133087500Y-99425000I-237500J0D01*
G01*
G37*
%TD.AperFunction*%
%TD*%
%TO.P,U1,16*%
%TO.N,+5VA*%
%TA.AperFunction,SMDPad,CuDef*%
G36*
G01*
X126825000Y-96775000D02*
X126625000Y-96775000D01*
G75*
G02*
X126525000Y-96675000I0J100000D01*
G01*
X126525000Y-95400000D01*
G75*
G02*
X126625000Y-95300000I100000J0D01*
G01*
X126825000Y-95300000D01*
G75*
G02*
X126925000Y-95400000I0J-100000D01*
G01*
X126925000Y-96675000D01*
G75*
G02*
X126825000Y-96775000I-100000J0D01*
G01*
G37*
%TD.AperFunction*%
%TO.P,U1,15*%
%TO.N,GNDA*%
%TA.AperFunction,SMDPad,CuDef*%
G36*
G01*
X127475000Y-96775000D02*
X127275000Y-96775000D01*
G75*
G02*
X127175000Y-96675000I0J100000D01*
G01*
X127175000Y-95400000D01*
G75*
G02*
X127275000Y-95300000I100000J0D01*
G01*
X127475000Y-95300000D01*
G75*
G02*
X127575000Y-95400000I0J-100000D01*
G01*
X127575000Y-96675000D01*
G75*
G02*
X127475000Y-96775000I-100000J0D01*
G01*
G37*
%TD.AperFunction*%
%TO.P,U1,14*%
%TO.N,/SWI*%
%TA.AperFunction,SMDPad,CuDef*%
G36*
G01*
X128125000Y-96775000D02*
X127925000Y-96775000D01*
G75*
G02*
X127825000Y-96675000I0J100000D01*
G01*
X127825000Y-95400000D01*
G75*
G02*
X127925000Y-95300000I100000J0D01*
G01*
X128125000Y-95300000D01*
G75*
G02*
X128225000Y-95400000I0J-100000D01*
G01*
X128225000Y-96675000D01*
G75*
G02*
X128125000Y-96775000I-100000J0D01*
G01*
G37*
%TD.AperFunction*%
%TO.P,U1,13*%
%TO.N,/R_OUT*%
%TA.AperFunction,SMDPad,CuDef*%
G36*
G01*
X128775000Y-96775000D02*
X128575000Y-96775000D01*
G75*
G02*
X128475000Y-96675000I0J100000D01*
G01*
X128475000Y-95400000D01*
G75*
G02*
X128575000Y-95300000I100000J0D01*
G01*
X128775000Y-95300000D01*
G75*
G02*
X128875000Y-95400000I0J-100000D01*
G01*
X128875000Y-96675000D01*
G75*
G02*
X128775000Y-96775000I-100000J0D01*
G01*
G37*
%TD.AperFunction*%
%TO.P,U1,12*%
%TO.N,/G_OUT*%
%TA.AperFunction,SMDPad,CuDef*%
G36*
G01*
X129425000Y-96775000D02*
X129225000Y-96775000D01*
G75*
G02*
X129125000Y-96675000I0J100000D01*
G01*
X129125000Y-95400000D01*
G75*
G02*
X129225000Y-95300000I100000J0D01*
G01*
X129425000Y-95300000D01*
G75*
G02*
X129525000Y-95400000I0J-100000D01*
G01*
X129525000Y-96675000D01*
G75*
G02*
X129425000Y-96775000I-100000J0D01*
G01*
G37*
%TD.AperFunction*%
%TO.P,U1,11*%
%TO.N,/B_OUT*%
%TA.AperFunction,SMDPad,CuDef*%
G36*
G01*
X130075000Y-96775000D02*
X129875000Y-96775000D01*
G75*
G02*
X129775000Y-96675000I0J100000D01*
G01*
X129775000Y-95400000D01*
G75*
G02*
X129875000Y-95300000I100000J0D01*
G01*
X130075000Y-95300000D01*
G75*
G02*
X130175000Y-95400000I0J-100000D01*
G01*
X130175000Y-96675000D01*
G75*
G02*
X130075000Y-96775000I-100000J0D01*
G01*
G37*
%TD.AperFunction*%
%TO.P,U1,10*%
%TO.N,Net-(U1-Pad10)*%
%TA.AperFunction,SMDPad,CuDef*%
G36*
G01*
X130725000Y-96775000D02*
X130525000Y-96775000D01*
G75*
G02*
X130425000Y-96675000I0J100000D01*
G01*
X130425000Y-95400000D01*
G75*
G02*
X130525000Y-95300000I100000J0D01*
G01*
X130725000Y-95300000D01*
G75*
G02*
X130825000Y-95400000I0J-100000D01*
G01*
X130825000Y-96675000D01*
G75*
G02*
X130725000Y-96775000I-100000J0D01*
G01*
G37*
%TD.AperFunction*%
%TO.P,U1,9*%
%TO.N,GNDA*%
%TA.AperFunction,SMDPad,CuDef*%
G36*
G01*
X131375000Y-96775000D02*
X131175000Y-96775000D01*
G75*
G02*
X131075000Y-96675000I0J100000D01*
G01*
X131075000Y-95400000D01*
G75*
G02*
X131175000Y-95300000I100000J0D01*
G01*
X131375000Y-95300000D01*
G75*
G02*
X131475000Y-95400000I0J-100000D01*
G01*
X131475000Y-96675000D01*
G75*
G02*
X131375000Y-96775000I-100000J0D01*
G01*
G37*
%TD.AperFunction*%
%TO.P,U1,8*%
%TA.AperFunction,SMDPad,CuDef*%
G36*
G01*
X131375000Y-102500000D02*
X131175000Y-102500000D01*
G75*
G02*
X131075000Y-102400000I0J100000D01*
G01*
X131075000Y-101125000D01*
G75*
G02*
X131175000Y-101025000I100000J0D01*
G01*
X131375000Y-101025000D01*
G75*
G02*
X131475000Y-101125000I0J-100000D01*
G01*
X131475000Y-102400000D01*
G75*
G02*
X131375000Y-102500000I-100000J0D01*
G01*
G37*
%TD.AperFunction*%
%TO.P,U1,7*%
%TA.AperFunction,SMDPad,CuDef*%
G36*
G01*
X130725000Y-102500000D02*
X130525000Y-102500000D01*
G75*
G02*
X130425000Y-102400000I0J100000D01*
G01*
X130425000Y-101125000D01*
G75*
G02*
X130525000Y-101025000I100000J0D01*
G01*
X130725000Y-101025000D01*
G75*
G02*
X130825000Y-101125000I0J-100000D01*
G01*
X130825000Y-102400000D01*
G75*
G02*
X130725000Y-102500000I-100000J0D01*
G01*
G37*
%TD.AperFunction*%
%TO.P,U1,6*%
%TO.N,/B_A*%
%TA.AperFunction,SMDPad,CuDef*%
G36*
G01*
X130075000Y-102500000D02*
X129875000Y-102500000D01*
G75*
G02*
X129775000Y-102400000I0J100000D01*
G01*
X129775000Y-101125000D01*
G75*
G02*
X129875000Y-101025000I100000J0D01*
G01*
X130075000Y-101025000D01*
G75*
G02*
X130175000Y-101125000I0J-100000D01*
G01*
X130175000Y-102400000D01*
G75*
G02*
X130075000Y-102500000I-100000J0D01*
G01*
G37*
%TD.AperFunction*%
%TO.P,U1,5*%
%TO.N,/B_GFX*%
%TA.AperFunction,SMDPad,CuDef*%
G36*
G01*
X129425000Y-102500000D02*
X129225000Y-102500000D01*
G75*
G02*
X129125000Y-102400000I0J100000D01*
G01*
X129125000Y-101125000D01*
G75*
G02*
X129225000Y-101025000I100000J0D01*
G01*
X129425000Y-101025000D01*
G75*
G02*
X129525000Y-101125000I0J-100000D01*
G01*
X129525000Y-102400000D01*
G75*
G02*
X129425000Y-102500000I-100000J0D01*
G01*
G37*
%TD.AperFunction*%
%TO.P,U1,4*%
%TO.N,/G_A*%
%TA.AperFunction,SMDPad,CuDef*%
G36*
G01*
X128775000Y-102500000D02*
X128575000Y-102500000D01*
G75*
G02*
X128475000Y-102400000I0J100000D01*
G01*
X128475000Y-101125000D01*
G75*
G02*
X128575000Y-101025000I100000J0D01*
G01*
X128775000Y-101025000D01*
G75*
G02*
X128875000Y-101125000I0J-100000D01*
G01*
X128875000Y-102400000D01*
G75*
G02*
X128775000Y-102500000I-100000J0D01*
G01*
G37*
%TD.AperFunction*%
%TO.P,U1,3*%
%TO.N,/G_GFX*%
%TA.AperFunction,SMDPad,CuDef*%
G36*
G01*
X128125000Y-102500000D02*
X127925000Y-102500000D01*
G75*
G02*
X127825000Y-102400000I0J100000D01*
G01*
X127825000Y-101125000D01*
G75*
G02*
X127925000Y-101025000I100000J0D01*
G01*
X128125000Y-101025000D01*
G75*
G02*
X128225000Y-101125000I0J-100000D01*
G01*
X128225000Y-102400000D01*
G75*
G02*
X128125000Y-102500000I-100000J0D01*
G01*
G37*
%TD.AperFunction*%
%TO.P,U1,2*%
%TO.N,/R_A*%
%TA.AperFunction,SMDPad,CuDef*%
G36*
G01*
X127475000Y-102500000D02*
X127275000Y-102500000D01*
G75*
G02*
X127175000Y-102400000I0J100000D01*
G01*
X127175000Y-101125000D01*
G75*
G02*
X127275000Y-101025000I100000J0D01*
G01*
X127475000Y-101025000D01*
G75*
G02*
X127575000Y-101125000I0J-100000D01*
G01*
X127575000Y-102400000D01*
G75*
G02*
X127475000Y-102500000I-100000J0D01*
G01*
G37*
%TD.AperFunction*%
%TO.P,U1,1*%
%TO.N,/R_GFX*%
%TA.AperFunction,SMDPad,CuDef*%
G36*
G01*
X126825000Y-102500000D02*
X126625000Y-102500000D01*
G75*
G02*
X126525000Y-102400000I0J100000D01*
G01*
X126525000Y-101125000D01*
G75*
G02*
X126625000Y-101025000I100000J0D01*
G01*
X126825000Y-101025000D01*
G75*
G02*
X126925000Y-101125000I0J-100000D01*
G01*
X126925000Y-102400000D01*
G75*
G02*
X126825000Y-102500000I-100000J0D01*
G01*
G37*
%TD.AperFunction*%
%TD*%
D14*
%TO.N,/SWI*%
X129000000Y-97425000D03*
X130474062Y-94475937D03*
X130276600Y-106426000D03*
X130350000Y-110436400D03*
%TO.N,/V_OUT*%
X129019999Y-109046812D03*
%TO.N,/V_A*%
X126085600Y-106273600D03*
%TO.N,GND*%
X140000000Y-105400000D03*
X135600000Y-105200000D03*
X125476000Y-109728000D03*
X119126000Y-110998000D03*
X136969500Y-110363000D03*
X125831600Y-107315000D03*
X132689600Y-106400600D03*
X125476000Y-111404400D03*
X119278400Y-112623600D03*
X144983200Y-112598200D03*
X143535400Y-109321600D03*
X137972800Y-112649000D03*
X138074400Y-109829600D03*
X131572000Y-109728000D03*
X127448255Y-105000028D03*
X138684000Y-107442000D03*
X134620000Y-109220000D03*
%TO.N,+5V*%
X132600000Y-108150000D03*
X136900000Y-100450000D03*
X132789787Y-111999950D03*
%TO.N,GNDA*%
X132000000Y-95225000D03*
X140450000Y-103700000D03*
X119380000Y-93980000D03*
X145034000Y-93726000D03*
X126746000Y-99237800D03*
X139395200Y-100584000D03*
X134442200Y-100863400D03*
X136702800Y-103682800D03*
X132105400Y-103682800D03*
X125443200Y-104716800D03*
X131495800Y-97866200D03*
%TD*%
D15*
%TO.N,/SWI*%
X128723942Y-97425000D02*
X129000000Y-97425000D01*
X128025000Y-96726058D02*
X128723942Y-97425000D01*
X128025000Y-96037500D02*
X128025000Y-96726058D01*
X133650000Y-111000000D02*
X134000000Y-110650000D01*
X130498125Y-94500000D02*
X133760000Y-94500000D01*
X130474062Y-94475937D02*
X130498125Y-94500000D01*
X129235200Y-106426000D02*
X129184400Y-106375200D01*
X130276600Y-106426000D02*
X129235200Y-106426000D01*
X130347200Y-110439200D02*
X130350000Y-110436400D01*
X129184400Y-110439200D02*
X130347200Y-110439200D01*
X132216725Y-111500010D02*
X133066735Y-110650000D01*
X130734220Y-111500010D02*
X132216725Y-111500010D01*
X130350000Y-111115790D02*
X130734220Y-111500010D01*
X133066735Y-110650000D02*
X134000000Y-110650000D01*
X130350000Y-110436400D02*
X130350000Y-111115790D01*
%TO.N,/V_OUT*%
X129174600Y-108892211D02*
X129019999Y-109046812D01*
X129174600Y-108173600D02*
X129174600Y-108892211D01*
%TO.N,/V_A*%
X127101600Y-106375200D02*
X126984400Y-106375200D01*
X123600000Y-109100000D02*
X124326000Y-109100000D01*
X126974600Y-106273600D02*
X126085600Y-106273600D01*
%TO.N,/V_GFX*%
X137041401Y-108464991D02*
X133676390Y-105099980D01*
X128373608Y-105099980D02*
X127844990Y-105628598D01*
X133676390Y-105099980D02*
X128373608Y-105099980D01*
X141325009Y-108464991D02*
X137041401Y-108464991D01*
X127844990Y-105628598D02*
X127844990Y-105631810D01*
X142050000Y-107740000D02*
X141325009Y-108464991D01*
X127464602Y-108173600D02*
X126974600Y-108173600D01*
X127844990Y-107793212D02*
X127464602Y-108173600D01*
X127844990Y-105628598D02*
X127844990Y-107793212D01*
%TO.N,GND*%
X136300000Y-96950000D02*
X136450000Y-97100000D01*
X136300000Y-94500000D02*
X136300000Y-96950000D01*
X136951500Y-110345000D02*
X136969500Y-110363000D01*
X136207500Y-110345000D02*
X136951500Y-110345000D01*
X119659001Y-110464999D02*
X119126000Y-110998000D01*
X123974003Y-110464999D02*
X119659001Y-110464999D01*
X124711002Y-109728000D02*
X123974003Y-110464999D01*
X125476000Y-109728000D02*
X124711002Y-109728000D01*
X125841800Y-107325200D02*
X125831600Y-107315000D01*
X126984400Y-107325200D02*
X125841800Y-107325200D01*
X125831600Y-107315000D02*
X125831600Y-107365800D01*
X136207500Y-109257520D02*
X135082500Y-108132520D01*
X136207500Y-110345000D02*
X136207500Y-109257520D01*
X132689000Y-106400000D02*
X132689600Y-106400600D01*
X131550000Y-106400000D02*
X132689000Y-106400000D01*
X133350580Y-106400600D02*
X135082500Y-108132520D01*
X132689600Y-106400600D02*
X133350580Y-106400600D01*
X126969200Y-111404400D02*
X126984400Y-111389200D01*
X125476000Y-111404400D02*
X126969200Y-111404400D01*
X135082500Y-109220000D02*
X135082500Y-108132520D01*
X132105400Y-109220000D02*
X134620000Y-109220000D01*
X131597400Y-109728000D02*
X132105400Y-109220000D01*
X131572000Y-109728000D02*
X131597400Y-109728000D01*
X131555399Y-109711399D02*
X131572000Y-109728000D01*
X125730000Y-107416600D02*
X125831600Y-107315000D01*
X124138591Y-110464999D02*
X125730000Y-108873590D01*
X123225997Y-110464999D02*
X124138591Y-110464999D01*
X122327990Y-107849990D02*
X122327990Y-109566992D01*
X125730000Y-108873590D02*
X125730000Y-107416600D01*
X122327990Y-109566992D02*
X123225997Y-110464999D01*
X119126000Y-109294998D02*
X120571008Y-107849990D01*
X120571008Y-107849990D02*
X122327990Y-107849990D01*
X119126000Y-110998000D02*
X119126000Y-109294998D01*
X122327990Y-107849990D02*
X125068010Y-107849990D01*
X125068010Y-107849990D02*
X125476000Y-108257980D01*
X125476000Y-108257980D02*
X125476000Y-109728000D01*
X127474402Y-111389200D02*
X126984400Y-111389200D01*
X127839401Y-111024201D02*
X127474402Y-111389200D01*
X127839401Y-109297401D02*
X127839401Y-111024201D01*
X127609600Y-109067600D02*
X127839401Y-109297401D01*
X126288800Y-109067600D02*
X127609600Y-109067600D01*
X125628400Y-109728000D02*
X126288800Y-109067600D01*
X125476000Y-109728000D02*
X125628400Y-109728000D01*
X133862790Y-104649970D02*
X128187207Y-104649971D01*
X134412820Y-105200000D02*
X133862790Y-104649970D01*
X135600000Y-105200000D02*
X134412820Y-105200000D01*
X127288579Y-105548599D02*
X125737599Y-105548599D01*
X125360599Y-106843999D02*
X125831600Y-107315000D01*
X125360599Y-105925599D02*
X125360599Y-106843999D01*
X125737599Y-105548599D02*
X125360599Y-105925599D01*
X127975589Y-104861589D02*
X127548411Y-104861589D01*
X128187207Y-104649971D02*
X127975589Y-104861589D01*
X127975589Y-104861589D02*
X127288579Y-105548599D01*
X127448255Y-104961745D02*
X127448255Y-105000028D01*
X127548411Y-104861589D02*
X127448255Y-104961745D01*
X134620000Y-109220000D02*
X135082500Y-109220000D01*
%TO.N,+5V*%
X132600000Y-108150000D02*
X131550000Y-108150000D01*
X134005000Y-112395000D02*
X134000000Y-112400000D01*
X138840000Y-94500000D02*
X138672000Y-94500000D01*
X137626500Y-95545500D02*
X137626500Y-97748500D01*
X138672000Y-94500000D02*
X137626500Y-95545500D01*
X136425000Y-98950000D02*
X137626500Y-97748500D01*
X136425000Y-98950000D02*
X136425000Y-99975000D01*
X136425000Y-99975000D02*
X136900000Y-100450000D01*
X132389737Y-112400000D02*
X132789787Y-111999950D01*
X131550000Y-112400000D02*
X132389737Y-112400000D01*
X136207500Y-112395000D02*
X134005000Y-112395000D01*
X134000000Y-112400000D02*
X133189837Y-112400000D01*
X133189837Y-112400000D02*
X132789787Y-111999950D01*
X131550000Y-108150000D02*
X131086200Y-108150000D01*
X130286200Y-107350000D02*
X130210000Y-107350000D01*
X131086200Y-108150000D02*
X130286200Y-107350000D01*
X130210000Y-107350000D02*
X129150000Y-107350000D01*
X129987000Y-111389200D02*
X129184400Y-111389200D01*
X130327400Y-111729600D02*
X129987000Y-111389200D01*
X130327400Y-112242600D02*
X130327400Y-111729600D01*
X130484800Y-112400000D02*
X130327400Y-112242600D01*
X131550000Y-112400000D02*
X130484800Y-112400000D01*
%TO.N,/R_OUT*%
X121060000Y-98940000D02*
X121060000Y-99412000D01*
X124968000Y-95504000D02*
X124968000Y-95758000D01*
X119884999Y-95835999D02*
X119884999Y-98802999D01*
X120495999Y-95224999D02*
X119884999Y-95835999D01*
X119884999Y-98802999D02*
X120022000Y-98940000D01*
X120022000Y-98940000D02*
X121060000Y-98940000D01*
X124710001Y-95224999D02*
X124485001Y-95224999D01*
X124485001Y-95224999D02*
X120495999Y-95224999D01*
X128550000Y-94850000D02*
X128675000Y-94975000D01*
X126130000Y-94850000D02*
X128550000Y-94850000D01*
X124968000Y-95250000D02*
X124968000Y-96469200D01*
X125368000Y-94850000D02*
X125730000Y-94850000D01*
X125368000Y-96475600D02*
X125368000Y-94850000D01*
X126111000Y-96520000D02*
X126111000Y-94869000D01*
X124485001Y-95224999D02*
X124942999Y-95224999D01*
X125730000Y-96520000D02*
X126111000Y-96520000D01*
X125361600Y-96469200D02*
X125368000Y-96475600D01*
X126111000Y-94869000D02*
X126130000Y-94850000D01*
X128675000Y-94975000D02*
X128675000Y-96037500D01*
X124968000Y-96469200D02*
X125361600Y-96469200D01*
X125730000Y-94850000D02*
X125730000Y-96520000D01*
X124942999Y-95224999D02*
X124968000Y-95250000D01*
%TO.N,/G_OUT*%
X119500000Y-101480000D02*
X119434989Y-101414989D01*
X121060000Y-101480000D02*
X119500000Y-101480000D01*
X119434989Y-95649599D02*
X119434989Y-99114989D01*
X120309598Y-94774990D02*
X119434989Y-95649599D01*
X124688601Y-94774989D02*
X120309598Y-94774990D01*
X125063600Y-94399990D02*
X124688601Y-94774989D01*
X129325000Y-94988590D02*
X128736400Y-94399990D01*
X128736400Y-94399990D02*
X125063600Y-94399990D01*
X119434989Y-99114989D02*
X119434989Y-99060000D01*
X129325000Y-96037500D02*
X129325000Y-94988590D01*
X119434989Y-101414989D02*
X119434989Y-99114989D01*
%TO.N,/B_OUT*%
X118984979Y-101944979D02*
X121060000Y-104020000D01*
X118984979Y-95463199D02*
X118984979Y-101944979D01*
X120123197Y-94324981D02*
X118984979Y-95463199D01*
X124502199Y-94324981D02*
X120123197Y-94324981D01*
X124877198Y-93949982D02*
X124502199Y-94324981D01*
X128922799Y-93949981D02*
X124877198Y-93949982D01*
X129975000Y-95002180D02*
X128922799Y-93949981D01*
X129975000Y-96037500D02*
X129975000Y-95002180D01*
%TO.N,/B_A*%
X123794981Y-103825019D02*
X123600000Y-104020000D01*
X127747801Y-103825019D02*
X123794981Y-103825019D01*
X128136830Y-103435990D02*
X127747801Y-103825019D01*
X129736010Y-103435990D02*
X128136830Y-103435990D01*
X129975000Y-103197000D02*
X129736010Y-103435990D01*
X129975000Y-101762500D02*
X129975000Y-103197000D01*
%TO.N,/B_GFX*%
X134195000Y-102660000D02*
X142050000Y-102660000D01*
X129698942Y-100700000D02*
X131688000Y-100700000D01*
X133648000Y-102660000D02*
X134195000Y-102660000D01*
X131688000Y-100700000D02*
X133648000Y-102660000D01*
X129325000Y-101073942D02*
X129698942Y-100700000D01*
X129325000Y-101762500D02*
X129325000Y-101073942D01*
%TO.N,/G_A*%
X125495010Y-103375010D02*
X123600000Y-101480000D01*
X127561400Y-103375010D02*
X125495010Y-103375010D01*
X128008420Y-102927990D02*
X127561400Y-103375010D01*
X128466010Y-102927990D02*
X128008420Y-102927990D01*
X128675000Y-102719000D02*
X128466010Y-102927990D01*
X128675000Y-101762500D02*
X128675000Y-102719000D01*
%TO.N,/G_GFX*%
X140540010Y-102209990D02*
X142050000Y-100700000D01*
X128848952Y-100249990D02*
X131874401Y-100249991D01*
X142050000Y-100700000D02*
X142050000Y-100120000D01*
X133834400Y-102209990D02*
X140540010Y-102209990D01*
X128025000Y-101073942D02*
X128848952Y-100249990D01*
X131874401Y-100249991D02*
X133834400Y-102209990D01*
X128025000Y-101762500D02*
X128025000Y-101073942D01*
%TO.N,/R_A*%
X125400000Y-102150000D02*
X125400000Y-100740000D01*
X127375000Y-102925000D02*
X126175000Y-102925000D01*
X125400000Y-100740000D02*
X123600000Y-98940000D01*
X126175000Y-102925000D02*
X125400000Y-102150000D01*
X127375000Y-101762500D02*
X127375000Y-102925000D01*
%TO.N,/R_GFX*%
X139990020Y-101759980D02*
X140550000Y-101200000D01*
X140550000Y-101200000D02*
X140550000Y-99080000D01*
X134020800Y-101759980D02*
X139990020Y-101759980D01*
X140550000Y-99080000D02*
X142050000Y-97580000D01*
X126725000Y-101073942D02*
X127998961Y-99799981D01*
X132060802Y-99799982D02*
X134020800Y-101759980D01*
X127998961Y-99799981D02*
X132060802Y-99799982D01*
X126725000Y-101762500D02*
X126725000Y-101073942D01*
%TO.N,/H_OUT*%
X122409201Y-112989201D02*
X121060000Y-111640000D01*
X128534399Y-112989201D02*
X122409201Y-112989201D01*
X129184400Y-112339200D02*
X128534399Y-112989201D01*
%TO.N,/H_A*%
X126984400Y-110226200D02*
X126984400Y-110439200D01*
X124786999Y-110453001D02*
X123600000Y-111640000D01*
X126970599Y-110453001D02*
X124786999Y-110453001D01*
X126984400Y-110439200D02*
X126970599Y-110453001D01*
%TO.N,/H_GFX*%
X128294999Y-105814999D02*
X128294999Y-108993211D01*
X142614001Y-108915001D02*
X136855001Y-108915001D01*
X128560008Y-105549990D02*
X128294999Y-105814999D01*
X136855001Y-108915001D02*
X133489990Y-105549990D01*
X133489990Y-105549990D02*
X128560008Y-105549990D01*
X143225001Y-106375001D02*
X143225001Y-108304001D01*
X143225001Y-108304001D02*
X142614001Y-108915001D01*
X142050000Y-105200000D02*
X143225001Y-106375001D01*
X128294999Y-112038999D02*
X128065998Y-112268000D01*
X128294999Y-108993211D02*
X128294999Y-112038999D01*
X127055600Y-112268000D02*
X126984400Y-112339200D01*
X128065998Y-112268000D02*
X127055600Y-112268000D01*
%TO.N,GNDA*%
X127375000Y-96037500D02*
X127375000Y-97425000D01*
X127375000Y-97425000D02*
X128100000Y-98150000D01*
X128100000Y-98150000D02*
X130450000Y-98150000D01*
X130450000Y-98150000D02*
X131275000Y-97325000D01*
X130625000Y-101762500D02*
X131275000Y-101762500D01*
X131275000Y-103125000D02*
X131300000Y-103150000D01*
X131275000Y-101762500D02*
X131275000Y-103125000D01*
X131287500Y-96050000D02*
X131275000Y-96037500D01*
X144590000Y-100120000D02*
X144590000Y-97580000D01*
X131450000Y-97150000D02*
X131275000Y-96975000D01*
X131275000Y-96975000D02*
X131275000Y-96037500D01*
X132850000Y-97150000D02*
X131450000Y-97150000D01*
X131275000Y-97325000D02*
X131275000Y-96975000D01*
X131275000Y-95950000D02*
X132000000Y-95225000D01*
X131275000Y-96037500D02*
X131275000Y-95950000D01*
X134650000Y-97150000D02*
X134700000Y-97100000D01*
X132850000Y-97150000D02*
X134650000Y-97150000D01*
X135574990Y-101124990D02*
X135650000Y-101200000D01*
X141211820Y-96404990D02*
X143414990Y-96404990D01*
X140099990Y-97516820D02*
X141211820Y-96404990D01*
X139900000Y-101200000D02*
X140099990Y-101000010D01*
X134700000Y-97654490D02*
X135574990Y-98529480D01*
X135650000Y-101200000D02*
X139900000Y-101200000D01*
X143414990Y-96404990D02*
X144590000Y-97580000D01*
X140099990Y-101000010D02*
X140099990Y-97516820D01*
X134700000Y-97100000D02*
X134700000Y-97654490D01*
X139900000Y-103150000D02*
X140450000Y-103700000D01*
X131300000Y-103150000D02*
X139900000Y-103150000D01*
X142544999Y-103835001D02*
X143414999Y-102965001D01*
X141485999Y-103835001D02*
X142544999Y-103835001D01*
X143414999Y-101295001D02*
X144590000Y-100120000D01*
X141350998Y-103700000D02*
X141485999Y-103835001D01*
X143414999Y-102965001D02*
X143414999Y-101295001D01*
X140450000Y-103700000D02*
X141350998Y-103700000D01*
X121060000Y-106560000D02*
X119260000Y-106560000D01*
X118534970Y-94825030D02*
X119380000Y-93980000D01*
X118534970Y-105834970D02*
X118534970Y-94825030D01*
X119260000Y-106560000D02*
X118534970Y-105834970D01*
X135574990Y-99121010D02*
X135574990Y-99370520D01*
X135574990Y-99370520D02*
X134869510Y-100076000D01*
X135574990Y-98529480D02*
X135574990Y-99121010D01*
X135574990Y-99121010D02*
X135574990Y-101124990D01*
X123600000Y-96400000D02*
X123908200Y-96400000D01*
X123908200Y-96400000D02*
X126746000Y-99237800D01*
X122326400Y-98399600D02*
X122326400Y-106502200D01*
X122268600Y-106560000D02*
X121060000Y-106560000D01*
X122326400Y-106502200D02*
X122268600Y-106560000D01*
X122326400Y-96483200D02*
X122409600Y-96400000D01*
X122409600Y-96400000D02*
X121060000Y-96400000D01*
X122326400Y-98399600D02*
X122326400Y-96483200D01*
X123600000Y-96400000D02*
X122409600Y-96400000D01*
X125443200Y-104716800D02*
X123600000Y-106560000D01*
X141485999Y-103835001D02*
X145154001Y-103835001D01*
X145154001Y-103835001D02*
X145674990Y-103314012D01*
X145364200Y-93395800D02*
X145034000Y-93726000D01*
X145338800Y-101447600D02*
X145674990Y-101111410D01*
X143414999Y-103224001D02*
X143414999Y-102095999D01*
X144063398Y-101447600D02*
X145338800Y-101447600D01*
X145674990Y-93395800D02*
X145364200Y-93395800D01*
X143414999Y-102095999D02*
X144063398Y-101447600D01*
X144025999Y-103835001D02*
X143414999Y-103224001D01*
X145674990Y-101111410D02*
X145674990Y-93395800D01*
X145154001Y-103835001D02*
X144025999Y-103835001D01*
X125884972Y-104275028D02*
X125443200Y-104716800D01*
X127934202Y-104275028D02*
X125884972Y-104275028D01*
X128323230Y-103886000D02*
X127934202Y-104275028D01*
X140264000Y-103886000D02*
X128323230Y-103886000D01*
X140450000Y-103700000D02*
X140264000Y-103886000D01*
%TO.N,+5VA*%
X132274990Y-98900000D02*
X131975000Y-98600010D01*
X132850000Y-98900000D02*
X132274990Y-98900000D01*
X131975000Y-98600010D02*
X127850010Y-98600010D01*
X126725000Y-97475000D02*
X126725000Y-96037500D01*
X127850010Y-98600010D02*
X126725000Y-97475000D01*
X132900000Y-98950000D02*
X132850000Y-98900000D01*
X134675000Y-98950000D02*
X132900000Y-98950000D01*
%TD*%
D16*
%TO.N,GND*%
G36*
X136388145Y-109240105D02*
G01*
X136334500Y-109293750D01*
X136334500Y-110218000D01*
X137383750Y-110218000D01*
X137542500Y-110059250D01*
X137545572Y-109770000D01*
X137533312Y-109645518D01*
X137497002Y-109525820D01*
X137469838Y-109475001D01*
X142586505Y-109475001D01*
X142614001Y-109477709D01*
X142641497Y-109475001D01*
X142641507Y-109475001D01*
X142723780Y-109466898D01*
X142829340Y-109434876D01*
X142926625Y-109382876D01*
X143011896Y-109312896D01*
X143029428Y-109291533D01*
X143601537Y-108719424D01*
X143622896Y-108701896D01*
X143640424Y-108680538D01*
X143640430Y-108680532D01*
X143673261Y-108640526D01*
X143770860Y-108738125D01*
X143981324Y-108878753D01*
X144215179Y-108975619D01*
X144463439Y-109025000D01*
X144716561Y-109025000D01*
X144964821Y-108975619D01*
X145198676Y-108878753D01*
X145409140Y-108738125D01*
X145565001Y-108582264D01*
X145565001Y-113053000D01*
X137254855Y-113053000D01*
X137292301Y-112982944D01*
X137331402Y-112854048D01*
X137344604Y-112720001D01*
X137344604Y-112069999D01*
X137331402Y-111935952D01*
X137292301Y-111807056D01*
X137228806Y-111688265D01*
X137143356Y-111584144D01*
X137079197Y-111531490D01*
X137151680Y-111509502D01*
X137261994Y-111450537D01*
X137358685Y-111371185D01*
X137438037Y-111274494D01*
X137497002Y-111164180D01*
X137533312Y-111044482D01*
X137545572Y-110920000D01*
X137542500Y-110630750D01*
X137383750Y-110472000D01*
X136334500Y-110472000D01*
X136334500Y-110492000D01*
X136080500Y-110492000D01*
X136080500Y-110472000D01*
X136060500Y-110472000D01*
X136060500Y-110218000D01*
X136080500Y-110218000D01*
X136080500Y-109293750D01*
X135921750Y-109135000D01*
X135507500Y-109131928D01*
X135383018Y-109144188D01*
X135263320Y-109180498D01*
X135153006Y-109239463D01*
X135056315Y-109318815D01*
X134976963Y-109415506D01*
X134917998Y-109525820D01*
X134881688Y-109645518D01*
X134869428Y-109770000D01*
X134872500Y-110059250D01*
X135031248Y-110217998D01*
X134895231Y-110217998D01*
X134860753Y-110104340D01*
X134798413Y-109987710D01*
X134714517Y-109885483D01*
X134612290Y-109801587D01*
X134495660Y-109739247D01*
X134369109Y-109700858D01*
X134237500Y-109687896D01*
X133762500Y-109687896D01*
X133630891Y-109700858D01*
X133504340Y-109739247D01*
X133387710Y-109801587D01*
X133285483Y-109885483D01*
X133201587Y-109987710D01*
X133146912Y-110090000D01*
X133094231Y-110090000D01*
X133066735Y-110087292D01*
X133039239Y-110090000D01*
X133039229Y-110090000D01*
X132956956Y-110098103D01*
X132875964Y-110122672D01*
X132851395Y-110130125D01*
X132754110Y-110182125D01*
X132733920Y-110198695D01*
X132668840Y-110252105D01*
X132661322Y-110261265D01*
X132663072Y-110125000D01*
X132650812Y-110000518D01*
X132614502Y-109880820D01*
X132555537Y-109770506D01*
X132476185Y-109673815D01*
X132379494Y-109594463D01*
X132269180Y-109535498D01*
X132149482Y-109499188D01*
X132025000Y-109486928D01*
X131835750Y-109490000D01*
X131677000Y-109648750D01*
X131677000Y-110523000D01*
X131697000Y-110523000D01*
X131697000Y-110777000D01*
X131677000Y-110777000D01*
X131677000Y-110797000D01*
X131423000Y-110797000D01*
X131423000Y-110777000D01*
X131403000Y-110777000D01*
X131403000Y-110523000D01*
X131423000Y-110523000D01*
X131423000Y-109648750D01*
X131264250Y-109490000D01*
X131075000Y-109486928D01*
X130950518Y-109499188D01*
X130830820Y-109535498D01*
X130720506Y-109594463D01*
X130646322Y-109655344D01*
X130593560Y-109633489D01*
X130432240Y-109601400D01*
X130267760Y-109601400D01*
X130106440Y-109633489D01*
X129954479Y-109696433D01*
X129910534Y-109725796D01*
X129881672Y-109710369D01*
X129799675Y-109685495D01*
X129714400Y-109677096D01*
X129570583Y-109677096D01*
X129668586Y-109579093D01*
X129759966Y-109442333D01*
X129822910Y-109290372D01*
X129854999Y-109129052D01*
X129854999Y-108964572D01*
X129844302Y-108910794D01*
X129871872Y-108902431D01*
X129947442Y-108862039D01*
X130013679Y-108807679D01*
X130068039Y-108741442D01*
X130108431Y-108665872D01*
X130133305Y-108583875D01*
X130141704Y-108498600D01*
X130141704Y-107997463D01*
X130644031Y-108499791D01*
X130650858Y-108569109D01*
X130689247Y-108695660D01*
X130751587Y-108812290D01*
X130835483Y-108914517D01*
X130937710Y-108998413D01*
X131054340Y-109060753D01*
X131180891Y-109099142D01*
X131312500Y-109112104D01*
X131787500Y-109112104D01*
X131919109Y-109099142D01*
X132045660Y-109060753D01*
X132162290Y-108998413D01*
X132264259Y-108914729D01*
X132356440Y-108952911D01*
X132517760Y-108985000D01*
X132682240Y-108985000D01*
X132843560Y-108952911D01*
X132995521Y-108889967D01*
X133132281Y-108798587D01*
X133248587Y-108682281D01*
X133339967Y-108545521D01*
X133402911Y-108393560D01*
X133435000Y-108232240D01*
X133435000Y-108067760D01*
X133402911Y-107906440D01*
X133339967Y-107754479D01*
X133248587Y-107617719D01*
X133132281Y-107501413D01*
X132995521Y-107410033D01*
X132843560Y-107347089D01*
X132682240Y-107315000D01*
X132526398Y-107315000D01*
X132555537Y-107279494D01*
X132614502Y-107169180D01*
X132650812Y-107049482D01*
X132663072Y-106925000D01*
X132660000Y-106685750D01*
X132501250Y-106527000D01*
X131677000Y-106527000D01*
X131677000Y-106547000D01*
X131423000Y-106547000D01*
X131423000Y-106527000D01*
X131403000Y-106527000D01*
X131403000Y-106273000D01*
X131423000Y-106273000D01*
X131423000Y-106253000D01*
X131677000Y-106253000D01*
X131677000Y-106273000D01*
X132501250Y-106273000D01*
X132660000Y-106114250D01*
X132660055Y-106109990D01*
X133258031Y-106109990D01*
X136388145Y-109240105D01*
G37*
X136388145Y-109240105D02*
X136334500Y-109293750D01*
X136334500Y-110218000D01*
X137383750Y-110218000D01*
X137542500Y-110059250D01*
X137545572Y-109770000D01*
X137533312Y-109645518D01*
X137497002Y-109525820D01*
X137469838Y-109475001D01*
X142586505Y-109475001D01*
X142614001Y-109477709D01*
X142641497Y-109475001D01*
X142641507Y-109475001D01*
X142723780Y-109466898D01*
X142829340Y-109434876D01*
X142926625Y-109382876D01*
X143011896Y-109312896D01*
X143029428Y-109291533D01*
X143601537Y-108719424D01*
X143622896Y-108701896D01*
X143640424Y-108680538D01*
X143640430Y-108680532D01*
X143673261Y-108640526D01*
X143770860Y-108738125D01*
X143981324Y-108878753D01*
X144215179Y-108975619D01*
X144463439Y-109025000D01*
X144716561Y-109025000D01*
X144964821Y-108975619D01*
X145198676Y-108878753D01*
X145409140Y-108738125D01*
X145565001Y-108582264D01*
X145565001Y-113053000D01*
X137254855Y-113053000D01*
X137292301Y-112982944D01*
X137331402Y-112854048D01*
X137344604Y-112720001D01*
X137344604Y-112069999D01*
X137331402Y-111935952D01*
X137292301Y-111807056D01*
X137228806Y-111688265D01*
X137143356Y-111584144D01*
X137079197Y-111531490D01*
X137151680Y-111509502D01*
X137261994Y-111450537D01*
X137358685Y-111371185D01*
X137438037Y-111274494D01*
X137497002Y-111164180D01*
X137533312Y-111044482D01*
X137545572Y-110920000D01*
X137542500Y-110630750D01*
X137383750Y-110472000D01*
X136334500Y-110472000D01*
X136334500Y-110492000D01*
X136080500Y-110492000D01*
X136080500Y-110472000D01*
X136060500Y-110472000D01*
X136060500Y-110218000D01*
X136080500Y-110218000D01*
X136080500Y-109293750D01*
X135921750Y-109135000D01*
X135507500Y-109131928D01*
X135383018Y-109144188D01*
X135263320Y-109180498D01*
X135153006Y-109239463D01*
X135056315Y-109318815D01*
X134976963Y-109415506D01*
X134917998Y-109525820D01*
X134881688Y-109645518D01*
X134869428Y-109770000D01*
X134872500Y-110059250D01*
X135031248Y-110217998D01*
X134895231Y-110217998D01*
X134860753Y-110104340D01*
X134798413Y-109987710D01*
X134714517Y-109885483D01*
X134612290Y-109801587D01*
X134495660Y-109739247D01*
X134369109Y-109700858D01*
X134237500Y-109687896D01*
X133762500Y-109687896D01*
X133630891Y-109700858D01*
X133504340Y-109739247D01*
X133387710Y-109801587D01*
X133285483Y-109885483D01*
X133201587Y-109987710D01*
X133146912Y-110090000D01*
X133094231Y-110090000D01*
X133066735Y-110087292D01*
X133039239Y-110090000D01*
X133039229Y-110090000D01*
X132956956Y-110098103D01*
X132875964Y-110122672D01*
X132851395Y-110130125D01*
X132754110Y-110182125D01*
X132733920Y-110198695D01*
X132668840Y-110252105D01*
X132661322Y-110261265D01*
X132663072Y-110125000D01*
X132650812Y-110000518D01*
X132614502Y-109880820D01*
X132555537Y-109770506D01*
X132476185Y-109673815D01*
X132379494Y-109594463D01*
X132269180Y-109535498D01*
X132149482Y-109499188D01*
X132025000Y-109486928D01*
X131835750Y-109490000D01*
X131677000Y-109648750D01*
X131677000Y-110523000D01*
X131697000Y-110523000D01*
X131697000Y-110777000D01*
X131677000Y-110777000D01*
X131677000Y-110797000D01*
X131423000Y-110797000D01*
X131423000Y-110777000D01*
X131403000Y-110777000D01*
X131403000Y-110523000D01*
X131423000Y-110523000D01*
X131423000Y-109648750D01*
X131264250Y-109490000D01*
X131075000Y-109486928D01*
X130950518Y-109499188D01*
X130830820Y-109535498D01*
X130720506Y-109594463D01*
X130646322Y-109655344D01*
X130593560Y-109633489D01*
X130432240Y-109601400D01*
X130267760Y-109601400D01*
X130106440Y-109633489D01*
X129954479Y-109696433D01*
X129910534Y-109725796D01*
X129881672Y-109710369D01*
X129799675Y-109685495D01*
X129714400Y-109677096D01*
X129570583Y-109677096D01*
X129668586Y-109579093D01*
X129759966Y-109442333D01*
X129822910Y-109290372D01*
X129854999Y-109129052D01*
X129854999Y-108964572D01*
X129844302Y-108910794D01*
X129871872Y-108902431D01*
X129947442Y-108862039D01*
X130013679Y-108807679D01*
X130068039Y-108741442D01*
X130108431Y-108665872D01*
X130133305Y-108583875D01*
X130141704Y-108498600D01*
X130141704Y-107997463D01*
X130644031Y-108499791D01*
X130650858Y-108569109D01*
X130689247Y-108695660D01*
X130751587Y-108812290D01*
X130835483Y-108914517D01*
X130937710Y-108998413D01*
X131054340Y-109060753D01*
X131180891Y-109099142D01*
X131312500Y-109112104D01*
X131787500Y-109112104D01*
X131919109Y-109099142D01*
X132045660Y-109060753D01*
X132162290Y-108998413D01*
X132264259Y-108914729D01*
X132356440Y-108952911D01*
X132517760Y-108985000D01*
X132682240Y-108985000D01*
X132843560Y-108952911D01*
X132995521Y-108889967D01*
X133132281Y-108798587D01*
X133248587Y-108682281D01*
X133339967Y-108545521D01*
X133402911Y-108393560D01*
X133435000Y-108232240D01*
X133435000Y-108067760D01*
X133402911Y-107906440D01*
X133339967Y-107754479D01*
X133248587Y-107617719D01*
X133132281Y-107501413D01*
X132995521Y-107410033D01*
X132843560Y-107347089D01*
X132682240Y-107315000D01*
X132526398Y-107315000D01*
X132555537Y-107279494D01*
X132614502Y-107169180D01*
X132650812Y-107049482D01*
X132663072Y-106925000D01*
X132660000Y-106685750D01*
X132501250Y-106527000D01*
X131677000Y-106527000D01*
X131677000Y-106547000D01*
X131423000Y-106547000D01*
X131423000Y-106527000D01*
X131403000Y-106527000D01*
X131403000Y-106273000D01*
X131423000Y-106273000D01*
X131423000Y-106253000D01*
X131677000Y-106253000D01*
X131677000Y-106273000D01*
X132501250Y-106273000D01*
X132660000Y-106114250D01*
X132660055Y-106109990D01*
X133258031Y-106109990D01*
X136388145Y-109240105D01*
G36*
X119775000Y-108973439D02*
G01*
X119775000Y-109226561D01*
X119824381Y-109474821D01*
X119921247Y-109708676D01*
X120061875Y-109919140D01*
X120240860Y-110098125D01*
X120451324Y-110238753D01*
X120685179Y-110335619D01*
X120858027Y-110370000D01*
X120685179Y-110404381D01*
X120451324Y-110501247D01*
X120240860Y-110641875D01*
X120061875Y-110820860D01*
X119921247Y-111031324D01*
X119824381Y-111265179D01*
X119775000Y-111513439D01*
X119775000Y-111766561D01*
X119824381Y-112014821D01*
X119921247Y-112248676D01*
X120061875Y-112459140D01*
X120240860Y-112638125D01*
X120451324Y-112778753D01*
X120685179Y-112875619D01*
X120933439Y-112925000D01*
X121186561Y-112925000D01*
X121434821Y-112875619D01*
X121483497Y-112855457D01*
X121681040Y-113053000D01*
X118595000Y-113053000D01*
X118595000Y-108839000D01*
X119801741Y-108839000D01*
X119775000Y-108973439D01*
G37*
X119775000Y-108973439D02*
X119775000Y-109226561D01*
X119824381Y-109474821D01*
X119921247Y-109708676D01*
X120061875Y-109919140D01*
X120240860Y-110098125D01*
X120451324Y-110238753D01*
X120685179Y-110335619D01*
X120858027Y-110370000D01*
X120685179Y-110404381D01*
X120451324Y-110501247D01*
X120240860Y-110641875D01*
X120061875Y-110820860D01*
X119921247Y-111031324D01*
X119824381Y-111265179D01*
X119775000Y-111513439D01*
X119775000Y-111766561D01*
X119824381Y-112014821D01*
X119921247Y-112248676D01*
X120061875Y-112459140D01*
X120240860Y-112638125D01*
X120451324Y-112778753D01*
X120685179Y-112875619D01*
X120933439Y-112925000D01*
X121186561Y-112925000D01*
X121434821Y-112875619D01*
X121483497Y-112855457D01*
X121681040Y-113053000D01*
X118595000Y-113053000D01*
X118595000Y-108839000D01*
X119801741Y-108839000D01*
X119775000Y-108973439D01*
G36*
X125816328Y-111064200D02*
G01*
X125819400Y-111103450D01*
X125978150Y-111262200D01*
X126857400Y-111262200D01*
X126857400Y-111242200D01*
X127111400Y-111242200D01*
X127111400Y-111262200D01*
X127131400Y-111262200D01*
X127131400Y-111516200D01*
X127111400Y-111516200D01*
X127111400Y-111536200D01*
X126857400Y-111536200D01*
X126857400Y-111516200D01*
X125978150Y-111516200D01*
X125819400Y-111674950D01*
X125816328Y-111714200D01*
X125828588Y-111838682D01*
X125864898Y-111958380D01*
X125923863Y-112068694D01*
X126003215Y-112165385D01*
X126017296Y-112176941D01*
X126017296Y-112429201D01*
X124618130Y-112429201D01*
X124738753Y-112248676D01*
X124835619Y-112014821D01*
X124885000Y-111766561D01*
X124885000Y-111513439D01*
X124835619Y-111265179D01*
X124815457Y-111216503D01*
X125018959Y-111013001D01*
X125821370Y-111013001D01*
X125816328Y-111064200D01*
G37*
X125816328Y-111064200D02*
X125819400Y-111103450D01*
X125978150Y-111262200D01*
X126857400Y-111262200D01*
X126857400Y-111242200D01*
X127111400Y-111242200D01*
X127111400Y-111262200D01*
X127131400Y-111262200D01*
X127131400Y-111516200D01*
X127111400Y-111516200D01*
X127111400Y-111536200D01*
X126857400Y-111536200D01*
X126857400Y-111516200D01*
X125978150Y-111516200D01*
X125819400Y-111674950D01*
X125816328Y-111714200D01*
X125828588Y-111838682D01*
X125864898Y-111958380D01*
X125923863Y-112068694D01*
X126003215Y-112165385D01*
X126017296Y-112176941D01*
X126017296Y-112429201D01*
X124618130Y-112429201D01*
X124738753Y-112248676D01*
X124835619Y-112014821D01*
X124885000Y-111766561D01*
X124885000Y-111513439D01*
X124835619Y-111265179D01*
X124815457Y-111216503D01*
X125018959Y-111013001D01*
X125821370Y-111013001D01*
X125816328Y-111064200D01*
G36*
X122364381Y-109474821D02*
G01*
X122461247Y-109708676D01*
X122601875Y-109919140D01*
X122780860Y-110098125D01*
X122991324Y-110238753D01*
X123225179Y-110335619D01*
X123398027Y-110370000D01*
X123225179Y-110404381D01*
X122991324Y-110501247D01*
X122780860Y-110641875D01*
X122601875Y-110820860D01*
X122461247Y-111031324D01*
X122364381Y-111265179D01*
X122330000Y-111438027D01*
X122295619Y-111265179D01*
X122198753Y-111031324D01*
X122058125Y-110820860D01*
X121879140Y-110641875D01*
X121668676Y-110501247D01*
X121434821Y-110404381D01*
X121261973Y-110370000D01*
X121434821Y-110335619D01*
X121668676Y-110238753D01*
X121879140Y-110098125D01*
X122058125Y-109919140D01*
X122198753Y-109708676D01*
X122295619Y-109474821D01*
X122330000Y-109301973D01*
X122364381Y-109474821D01*
G37*
X122364381Y-109474821D02*
X122461247Y-109708676D01*
X122601875Y-109919140D01*
X122780860Y-110098125D01*
X122991324Y-110238753D01*
X123225179Y-110335619D01*
X123398027Y-110370000D01*
X123225179Y-110404381D01*
X122991324Y-110501247D01*
X122780860Y-110641875D01*
X122601875Y-110820860D01*
X122461247Y-111031324D01*
X122364381Y-111265179D01*
X122330000Y-111438027D01*
X122295619Y-111265179D01*
X122198753Y-111031324D01*
X122058125Y-110820860D01*
X121879140Y-110641875D01*
X121668676Y-110501247D01*
X121434821Y-110404381D01*
X121261973Y-110370000D01*
X121434821Y-110335619D01*
X121668676Y-110238753D01*
X121879140Y-110098125D01*
X122058125Y-109919140D01*
X122198753Y-109708676D01*
X122295619Y-109474821D01*
X122330000Y-109301973D01*
X122364381Y-109474821D01*
G36*
X124023497Y-110424543D02*
G01*
X123974821Y-110404381D01*
X123801973Y-110370000D01*
X123974821Y-110335619D01*
X124208676Y-110238753D01*
X124210518Y-110237522D01*
X124023497Y-110424543D01*
G37*
X124023497Y-110424543D02*
X123974821Y-110404381D01*
X123801973Y-110370000D01*
X123974821Y-110335619D01*
X124208676Y-110238753D01*
X124210518Y-110237522D01*
X124023497Y-110424543D01*
G36*
X125553319Y-106922187D02*
G01*
X125690079Y-107013567D01*
X125842040Y-107076511D01*
X126003360Y-107108600D01*
X126167840Y-107108600D01*
X126228167Y-107096600D01*
X126847600Y-107096600D01*
X126847600Y-107076600D01*
X127101600Y-107076600D01*
X127101600Y-107096600D01*
X127121600Y-107096600D01*
X127121600Y-107350600D01*
X127101600Y-107350600D01*
X127101600Y-107370600D01*
X126847600Y-107370600D01*
X126847600Y-107350600D01*
X125968350Y-107350600D01*
X125809600Y-107509350D01*
X125806528Y-107548600D01*
X125818788Y-107673082D01*
X125855098Y-107792780D01*
X125914063Y-107903094D01*
X125993415Y-107999785D01*
X126007496Y-108011341D01*
X126007496Y-108498600D01*
X126015895Y-108583875D01*
X126040769Y-108665872D01*
X126081161Y-108741442D01*
X126135521Y-108807679D01*
X126201758Y-108862039D01*
X126277328Y-108902431D01*
X126359325Y-108927305D01*
X126444600Y-108935704D01*
X127504600Y-108935704D01*
X127589875Y-108927305D01*
X127671872Y-108902431D01*
X127735000Y-108868689D01*
X127735000Y-108965696D01*
X127734999Y-108965706D01*
X127734999Y-109738872D01*
X127681672Y-109710369D01*
X127599675Y-109685495D01*
X127514400Y-109677096D01*
X127103385Y-109677096D01*
X127094178Y-109674303D01*
X126984400Y-109663491D01*
X126874621Y-109674303D01*
X126865414Y-109677096D01*
X126454400Y-109677096D01*
X126369125Y-109685495D01*
X126287128Y-109710369D01*
X126211558Y-109750761D01*
X126145321Y-109805121D01*
X126090961Y-109871358D01*
X126079393Y-109893001D01*
X124814494Y-109893001D01*
X124786998Y-109890293D01*
X124759502Y-109893001D01*
X124759493Y-109893001D01*
X124677220Y-109901104D01*
X124589573Y-109927692D01*
X124598125Y-109919140D01*
X124738753Y-109708676D01*
X124835619Y-109474821D01*
X124885000Y-109226561D01*
X124885000Y-109137659D01*
X124888709Y-109100000D01*
X124885000Y-109062341D01*
X124885000Y-108973439D01*
X124858259Y-108839000D01*
X124968000Y-108839000D01*
X124992776Y-108836560D01*
X125016601Y-108829333D01*
X125038557Y-108817597D01*
X125057803Y-108801803D01*
X125073597Y-108782557D01*
X125085333Y-108760601D01*
X125093724Y-108729961D01*
X125339997Y-107006051D01*
X125513960Y-106882828D01*
X125553319Y-106922187D01*
G37*
X125553319Y-106922187D02*
X125690079Y-107013567D01*
X125842040Y-107076511D01*
X126003360Y-107108600D01*
X126167840Y-107108600D01*
X126228167Y-107096600D01*
X126847600Y-107096600D01*
X126847600Y-107076600D01*
X127101600Y-107076600D01*
X127101600Y-107096600D01*
X127121600Y-107096600D01*
X127121600Y-107350600D01*
X127101600Y-107350600D01*
X127101600Y-107370600D01*
X126847600Y-107370600D01*
X126847600Y-107350600D01*
X125968350Y-107350600D01*
X125809600Y-107509350D01*
X125806528Y-107548600D01*
X125818788Y-107673082D01*
X125855098Y-107792780D01*
X125914063Y-107903094D01*
X125993415Y-107999785D01*
X126007496Y-108011341D01*
X126007496Y-108498600D01*
X126015895Y-108583875D01*
X126040769Y-108665872D01*
X126081161Y-108741442D01*
X126135521Y-108807679D01*
X126201758Y-108862039D01*
X126277328Y-108902431D01*
X126359325Y-108927305D01*
X126444600Y-108935704D01*
X127504600Y-108935704D01*
X127589875Y-108927305D01*
X127671872Y-108902431D01*
X127735000Y-108868689D01*
X127735000Y-108965696D01*
X127734999Y-108965706D01*
X127734999Y-109738872D01*
X127681672Y-109710369D01*
X127599675Y-109685495D01*
X127514400Y-109677096D01*
X127103385Y-109677096D01*
X127094178Y-109674303D01*
X126984400Y-109663491D01*
X126874621Y-109674303D01*
X126865414Y-109677096D01*
X126454400Y-109677096D01*
X126369125Y-109685495D01*
X126287128Y-109710369D01*
X126211558Y-109750761D01*
X126145321Y-109805121D01*
X126090961Y-109871358D01*
X126079393Y-109893001D01*
X124814494Y-109893001D01*
X124786998Y-109890293D01*
X124759502Y-109893001D01*
X124759493Y-109893001D01*
X124677220Y-109901104D01*
X124589573Y-109927692D01*
X124598125Y-109919140D01*
X124738753Y-109708676D01*
X124835619Y-109474821D01*
X124885000Y-109226561D01*
X124885000Y-109137659D01*
X124888709Y-109100000D01*
X124885000Y-109062341D01*
X124885000Y-108973439D01*
X124858259Y-108839000D01*
X124968000Y-108839000D01*
X124992776Y-108836560D01*
X125016601Y-108829333D01*
X125038557Y-108817597D01*
X125057803Y-108801803D01*
X125073597Y-108782557D01*
X125085333Y-108760601D01*
X125093724Y-108729961D01*
X125339997Y-107006051D01*
X125513960Y-106882828D01*
X125553319Y-106922187D01*
G36*
X141149474Y-104283261D02*
G01*
X141051875Y-104380860D01*
X140911247Y-104591324D01*
X140814381Y-104825179D01*
X140765000Y-105073439D01*
X140765000Y-105326561D01*
X140814381Y-105574821D01*
X140911247Y-105808676D01*
X141051875Y-106019140D01*
X141230860Y-106198125D01*
X141441324Y-106338753D01*
X141675179Y-106435619D01*
X141848027Y-106470000D01*
X141675179Y-106504381D01*
X141441324Y-106601247D01*
X141230860Y-106741875D01*
X141051875Y-106920860D01*
X140911247Y-107131324D01*
X140814381Y-107365179D01*
X140765000Y-107613439D01*
X140765000Y-107866561D01*
X140772644Y-107904991D01*
X137273361Y-107904991D01*
X134270369Y-104902000D01*
X140335000Y-104902000D01*
X140359776Y-104899560D01*
X140383601Y-104892333D01*
X140405557Y-104880597D01*
X140424803Y-104864803D01*
X140857931Y-104431675D01*
X140982281Y-104348587D01*
X141063868Y-104267000D01*
X141129660Y-104267000D01*
X141149474Y-104283261D01*
G37*
X141149474Y-104283261D02*
X141051875Y-104380860D01*
X140911247Y-104591324D01*
X140814381Y-104825179D01*
X140765000Y-105073439D01*
X140765000Y-105326561D01*
X140814381Y-105574821D01*
X140911247Y-105808676D01*
X141051875Y-106019140D01*
X141230860Y-106198125D01*
X141441324Y-106338753D01*
X141675179Y-106435619D01*
X141848027Y-106470000D01*
X141675179Y-106504381D01*
X141441324Y-106601247D01*
X141230860Y-106741875D01*
X141051875Y-106920860D01*
X140911247Y-107131324D01*
X140814381Y-107365179D01*
X140765000Y-107613439D01*
X140765000Y-107866561D01*
X140772644Y-107904991D01*
X137273361Y-107904991D01*
X134270369Y-104902000D01*
X140335000Y-104902000D01*
X140359776Y-104899560D01*
X140383601Y-104892333D01*
X140405557Y-104880597D01*
X140424803Y-104864803D01*
X140857931Y-104431675D01*
X140982281Y-104348587D01*
X141063868Y-104267000D01*
X141129660Y-104267000D01*
X141149474Y-104283261D01*
%TO.N,GNDA*%
G36*
X118562221Y-102227458D02*
G01*
X118625453Y-102304506D01*
X118644760Y-102320351D01*
X119908242Y-103583833D01*
X119876307Y-103660931D01*
X119829000Y-103898757D01*
X119829000Y-104141243D01*
X119876307Y-104379069D01*
X119969102Y-104603097D01*
X120103820Y-104804717D01*
X120275283Y-104976180D01*
X120476903Y-105110898D01*
X120591168Y-105158228D01*
X120428748Y-105215843D01*
X120178645Y-105364822D01*
X119962412Y-105559731D01*
X119788359Y-105793080D01*
X119663175Y-106055901D01*
X119618524Y-106203110D01*
X119739845Y-106433000D01*
X120933000Y-106433000D01*
X120933000Y-106413000D01*
X121187000Y-106413000D01*
X121187000Y-106433000D01*
X123473000Y-106433000D01*
X123473000Y-106413000D01*
X123727000Y-106413000D01*
X123727000Y-106433000D01*
X123747000Y-106433000D01*
X123747000Y-106687000D01*
X123727000Y-106687000D01*
X123727000Y-106707000D01*
X123473000Y-106707000D01*
X123473000Y-106687000D01*
X121187000Y-106687000D01*
X121187000Y-106707000D01*
X120933000Y-106707000D01*
X120933000Y-106687000D01*
X119739845Y-106687000D01*
X119618524Y-106916890D01*
X119663175Y-107064099D01*
X119788359Y-107326920D01*
X119962412Y-107560269D01*
X120058513Y-107646893D01*
X119882406Y-107823000D01*
X118541000Y-107823000D01*
X118541000Y-102187757D01*
X118562221Y-102227458D01*
G37*
X118562221Y-102227458D02*
X118625453Y-102304506D01*
X118644760Y-102320351D01*
X119908242Y-103583833D01*
X119876307Y-103660931D01*
X119829000Y-103898757D01*
X119829000Y-104141243D01*
X119876307Y-104379069D01*
X119969102Y-104603097D01*
X120103820Y-104804717D01*
X120275283Y-104976180D01*
X120476903Y-105110898D01*
X120591168Y-105158228D01*
X120428748Y-105215843D01*
X120178645Y-105364822D01*
X119962412Y-105559731D01*
X119788359Y-105793080D01*
X119663175Y-106055901D01*
X119618524Y-106203110D01*
X119739845Y-106433000D01*
X120933000Y-106433000D01*
X120933000Y-106413000D01*
X121187000Y-106413000D01*
X121187000Y-106433000D01*
X123473000Y-106433000D01*
X123473000Y-106413000D01*
X123727000Y-106413000D01*
X123727000Y-106433000D01*
X123747000Y-106433000D01*
X123747000Y-106687000D01*
X123727000Y-106687000D01*
X123727000Y-106707000D01*
X123473000Y-106707000D01*
X123473000Y-106687000D01*
X121187000Y-106687000D01*
X121187000Y-106707000D01*
X120933000Y-106707000D01*
X120933000Y-106687000D01*
X119739845Y-106687000D01*
X119618524Y-106916890D01*
X119663175Y-107064099D01*
X119788359Y-107326920D01*
X119962412Y-107560269D01*
X120058513Y-107646893D01*
X119882406Y-107823000D01*
X118541000Y-107823000D01*
X118541000Y-102187757D01*
X118562221Y-102227458D01*
G36*
X126950396Y-104393386D02*
G01*
X126841613Y-104502169D01*
X126773264Y-104604461D01*
X126199152Y-105042599D01*
X125762453Y-105042599D01*
X125737599Y-105040151D01*
X125712745Y-105042599D01*
X125638406Y-105049921D01*
X125543024Y-105078854D01*
X125455120Y-105125840D01*
X125378072Y-105189072D01*
X125362228Y-105208378D01*
X125020384Y-105550223D01*
X125001072Y-105566072D01*
X124937840Y-105643120D01*
X124890854Y-105731025D01*
X124871879Y-105793579D01*
X124871641Y-105793080D01*
X124697588Y-105559731D01*
X124481355Y-105364822D01*
X124231252Y-105215843D01*
X124068832Y-105158228D01*
X124183097Y-105110898D01*
X124384717Y-104976180D01*
X124556180Y-104804717D01*
X124690898Y-104603097D01*
X124783693Y-104379069D01*
X124793251Y-104331019D01*
X127043735Y-104331019D01*
X126950396Y-104393386D01*
G37*
X126950396Y-104393386D02*
X126841613Y-104502169D01*
X126773264Y-104604461D01*
X126199152Y-105042599D01*
X125762453Y-105042599D01*
X125737599Y-105040151D01*
X125712745Y-105042599D01*
X125638406Y-105049921D01*
X125543024Y-105078854D01*
X125455120Y-105125840D01*
X125378072Y-105189072D01*
X125362228Y-105208378D01*
X125020384Y-105550223D01*
X125001072Y-105566072D01*
X124937840Y-105643120D01*
X124890854Y-105731025D01*
X124871879Y-105793579D01*
X124871641Y-105793080D01*
X124697588Y-105559731D01*
X124481355Y-105364822D01*
X124231252Y-105215843D01*
X124068832Y-105158228D01*
X124183097Y-105110898D01*
X124384717Y-104976180D01*
X124556180Y-104804717D01*
X124690898Y-104603097D01*
X124783693Y-104379069D01*
X124793251Y-104331019D01*
X127043735Y-104331019D01*
X126950396Y-104393386D01*
G36*
X122160498Y-97494180D02*
G01*
X122219463Y-97604494D01*
X122298815Y-97701185D01*
X122395506Y-97780537D01*
X122505820Y-97839502D01*
X122625518Y-97875812D01*
X122750000Y-97888072D01*
X122960294Y-97886927D01*
X122815283Y-97983820D01*
X122643820Y-98155283D01*
X122509102Y-98356903D01*
X122416307Y-98580931D01*
X122369000Y-98818757D01*
X122369000Y-99061243D01*
X122416307Y-99299069D01*
X122509102Y-99523097D01*
X122643820Y-99724717D01*
X122815283Y-99896180D01*
X123016903Y-100030898D01*
X123240931Y-100123693D01*
X123478757Y-100171000D01*
X123721243Y-100171000D01*
X123959069Y-100123693D01*
X124036167Y-100091758D01*
X124894001Y-100949593D01*
X124894000Y-102058409D01*
X124751758Y-101916167D01*
X124783693Y-101839069D01*
X124831000Y-101601243D01*
X124831000Y-101358757D01*
X124783693Y-101120931D01*
X124690898Y-100896903D01*
X124556180Y-100695283D01*
X124384717Y-100523820D01*
X124183097Y-100389102D01*
X123959069Y-100296307D01*
X123721243Y-100249000D01*
X123478757Y-100249000D01*
X123240931Y-100296307D01*
X123016903Y-100389102D01*
X122815283Y-100523820D01*
X122643820Y-100695283D01*
X122509102Y-100896903D01*
X122416307Y-101120931D01*
X122369000Y-101358757D01*
X122369000Y-101601243D01*
X122416307Y-101839069D01*
X122509102Y-102063097D01*
X122643820Y-102264717D01*
X122815283Y-102436180D01*
X123016903Y-102570898D01*
X123240931Y-102663693D01*
X123478757Y-102711000D01*
X123721243Y-102711000D01*
X123959069Y-102663693D01*
X124036167Y-102631758D01*
X124723427Y-103319019D01*
X124612131Y-103319019D01*
X124556180Y-103235283D01*
X124384717Y-103063820D01*
X124183097Y-102929102D01*
X123959069Y-102836307D01*
X123721243Y-102789000D01*
X123478757Y-102789000D01*
X123240931Y-102836307D01*
X123016903Y-102929102D01*
X122815283Y-103063820D01*
X122643820Y-103235283D01*
X122509102Y-103436903D01*
X122416307Y-103660931D01*
X122369000Y-103898757D01*
X122369000Y-104141243D01*
X122416307Y-104379069D01*
X122509102Y-104603097D01*
X122643820Y-104804717D01*
X122815283Y-104976180D01*
X123016903Y-105110898D01*
X123131168Y-105158228D01*
X122968748Y-105215843D01*
X122718645Y-105364822D01*
X122502412Y-105559731D01*
X122330000Y-105790880D01*
X122157588Y-105559731D01*
X121941355Y-105364822D01*
X121691252Y-105215843D01*
X121528832Y-105158228D01*
X121643097Y-105110898D01*
X121844717Y-104976180D01*
X122016180Y-104804717D01*
X122150898Y-104603097D01*
X122243693Y-104379069D01*
X122291000Y-104141243D01*
X122291000Y-103898757D01*
X122243693Y-103660931D01*
X122150898Y-103436903D01*
X122016180Y-103235283D01*
X121844717Y-103063820D01*
X121643097Y-102929102D01*
X121419069Y-102836307D01*
X121181243Y-102789000D01*
X120938757Y-102789000D01*
X120700931Y-102836307D01*
X120623833Y-102868242D01*
X119741591Y-101986000D01*
X119937168Y-101986000D01*
X119969102Y-102063097D01*
X120103820Y-102264717D01*
X120275283Y-102436180D01*
X120476903Y-102570898D01*
X120700931Y-102663693D01*
X120938757Y-102711000D01*
X121181243Y-102711000D01*
X121419069Y-102663693D01*
X121643097Y-102570898D01*
X121844717Y-102436180D01*
X122016180Y-102264717D01*
X122150898Y-102063097D01*
X122243693Y-101839069D01*
X122291000Y-101601243D01*
X122291000Y-101358757D01*
X122243693Y-101120931D01*
X122150898Y-100896903D01*
X122016180Y-100695283D01*
X121844717Y-100523820D01*
X121643097Y-100389102D01*
X121419069Y-100296307D01*
X121181243Y-100249000D01*
X120938757Y-100249000D01*
X120700931Y-100296307D01*
X120476903Y-100389102D01*
X120275283Y-100523820D01*
X120103820Y-100695283D01*
X119969102Y-100896903D01*
X119940989Y-100964774D01*
X119940989Y-99455226D01*
X119969102Y-99523097D01*
X120103820Y-99724717D01*
X120275283Y-99896180D01*
X120476903Y-100030898D01*
X120700931Y-100123693D01*
X120938757Y-100171000D01*
X121181243Y-100171000D01*
X121419069Y-100123693D01*
X121643097Y-100030898D01*
X121844717Y-99896180D01*
X122016180Y-99724717D01*
X122150898Y-99523097D01*
X122243693Y-99299069D01*
X122291000Y-99061243D01*
X122291000Y-98818757D01*
X122243693Y-98580931D01*
X122150898Y-98356903D01*
X122016180Y-98155283D01*
X121844717Y-97983820D01*
X121643097Y-97849102D01*
X121528832Y-97801772D01*
X121691252Y-97744157D01*
X121941355Y-97595178D01*
X122137502Y-97418374D01*
X122160498Y-97494180D01*
G37*
X122160498Y-97494180D02*
X122219463Y-97604494D01*
X122298815Y-97701185D01*
X122395506Y-97780537D01*
X122505820Y-97839502D01*
X122625518Y-97875812D01*
X122750000Y-97888072D01*
X122960294Y-97886927D01*
X122815283Y-97983820D01*
X122643820Y-98155283D01*
X122509102Y-98356903D01*
X122416307Y-98580931D01*
X122369000Y-98818757D01*
X122369000Y-99061243D01*
X122416307Y-99299069D01*
X122509102Y-99523097D01*
X122643820Y-99724717D01*
X122815283Y-99896180D01*
X123016903Y-100030898D01*
X123240931Y-100123693D01*
X123478757Y-100171000D01*
X123721243Y-100171000D01*
X123959069Y-100123693D01*
X124036167Y-100091758D01*
X124894001Y-100949593D01*
X124894000Y-102058409D01*
X124751758Y-101916167D01*
X124783693Y-101839069D01*
X124831000Y-101601243D01*
X124831000Y-101358757D01*
X124783693Y-101120931D01*
X124690898Y-100896903D01*
X124556180Y-100695283D01*
X124384717Y-100523820D01*
X124183097Y-100389102D01*
X123959069Y-100296307D01*
X123721243Y-100249000D01*
X123478757Y-100249000D01*
X123240931Y-100296307D01*
X123016903Y-100389102D01*
X122815283Y-100523820D01*
X122643820Y-100695283D01*
X122509102Y-100896903D01*
X122416307Y-101120931D01*
X122369000Y-101358757D01*
X122369000Y-101601243D01*
X122416307Y-101839069D01*
X122509102Y-102063097D01*
X122643820Y-102264717D01*
X122815283Y-102436180D01*
X123016903Y-102570898D01*
X123240931Y-102663693D01*
X123478757Y-102711000D01*
X123721243Y-102711000D01*
X123959069Y-102663693D01*
X124036167Y-102631758D01*
X124723427Y-103319019D01*
X124612131Y-103319019D01*
X124556180Y-103235283D01*
X124384717Y-103063820D01*
X124183097Y-102929102D01*
X123959069Y-102836307D01*
X123721243Y-102789000D01*
X123478757Y-102789000D01*
X123240931Y-102836307D01*
X123016903Y-102929102D01*
X122815283Y-103063820D01*
X122643820Y-103235283D01*
X122509102Y-103436903D01*
X122416307Y-103660931D01*
X122369000Y-103898757D01*
X122369000Y-104141243D01*
X122416307Y-104379069D01*
X122509102Y-104603097D01*
X122643820Y-104804717D01*
X122815283Y-104976180D01*
X123016903Y-105110898D01*
X123131168Y-105158228D01*
X122968748Y-105215843D01*
X122718645Y-105364822D01*
X122502412Y-105559731D01*
X122330000Y-105790880D01*
X122157588Y-105559731D01*
X121941355Y-105364822D01*
X121691252Y-105215843D01*
X121528832Y-105158228D01*
X121643097Y-105110898D01*
X121844717Y-104976180D01*
X122016180Y-104804717D01*
X122150898Y-104603097D01*
X122243693Y-104379069D01*
X122291000Y-104141243D01*
X122291000Y-103898757D01*
X122243693Y-103660931D01*
X122150898Y-103436903D01*
X122016180Y-103235283D01*
X121844717Y-103063820D01*
X121643097Y-102929102D01*
X121419069Y-102836307D01*
X121181243Y-102789000D01*
X120938757Y-102789000D01*
X120700931Y-102836307D01*
X120623833Y-102868242D01*
X119741591Y-101986000D01*
X119937168Y-101986000D01*
X119969102Y-102063097D01*
X120103820Y-102264717D01*
X120275283Y-102436180D01*
X120476903Y-102570898D01*
X120700931Y-102663693D01*
X120938757Y-102711000D01*
X121181243Y-102711000D01*
X121419069Y-102663693D01*
X121643097Y-102570898D01*
X121844717Y-102436180D01*
X122016180Y-102264717D01*
X122150898Y-102063097D01*
X122243693Y-101839069D01*
X122291000Y-101601243D01*
X122291000Y-101358757D01*
X122243693Y-101120931D01*
X122150898Y-100896903D01*
X122016180Y-100695283D01*
X121844717Y-100523820D01*
X121643097Y-100389102D01*
X121419069Y-100296307D01*
X121181243Y-100249000D01*
X120938757Y-100249000D01*
X120700931Y-100296307D01*
X120476903Y-100389102D01*
X120275283Y-100523820D01*
X120103820Y-100695283D01*
X119969102Y-100896903D01*
X119940989Y-100964774D01*
X119940989Y-99455226D01*
X119969102Y-99523097D01*
X120103820Y-99724717D01*
X120275283Y-99896180D01*
X120476903Y-100030898D01*
X120700931Y-100123693D01*
X120938757Y-100171000D01*
X121181243Y-100171000D01*
X121419069Y-100123693D01*
X121643097Y-100030898D01*
X121844717Y-99896180D01*
X122016180Y-99724717D01*
X122150898Y-99523097D01*
X122243693Y-99299069D01*
X122291000Y-99061243D01*
X122291000Y-98818757D01*
X122243693Y-98580931D01*
X122150898Y-98356903D01*
X122016180Y-98155283D01*
X121844717Y-97983820D01*
X121643097Y-97849102D01*
X121528832Y-97801772D01*
X121691252Y-97744157D01*
X121941355Y-97595178D01*
X122137502Y-97418374D01*
X122160498Y-97494180D01*
G36*
X133272628Y-103000220D02*
G01*
X133288473Y-103019527D01*
X133365521Y-103082759D01*
X133442430Y-103123868D01*
X133453425Y-103129745D01*
X133548807Y-103158678D01*
X133648000Y-103168448D01*
X133672854Y-103166000D01*
X140927168Y-103166000D01*
X140959102Y-103243097D01*
X141091670Y-103441500D01*
X140716000Y-103441500D01*
X140691224Y-103443940D01*
X140667399Y-103451167D01*
X140638567Y-103467837D01*
X139847305Y-104076500D01*
X128211912Y-104076500D01*
X128346422Y-103941990D01*
X129711164Y-103941990D01*
X129736010Y-103944437D01*
X129760856Y-103941990D01*
X129760864Y-103941990D01*
X129835203Y-103934668D01*
X129930585Y-103905735D01*
X130018489Y-103858749D01*
X130095537Y-103795517D01*
X130111386Y-103776205D01*
X130315215Y-103572376D01*
X130334527Y-103556527D01*
X130397759Y-103479479D01*
X130444745Y-103391575D01*
X130473678Y-103296193D01*
X130481000Y-103221854D01*
X130483448Y-103197000D01*
X130481000Y-103172146D01*
X130481000Y-103047250D01*
X130552000Y-102976250D01*
X130552000Y-102862569D01*
X130617078Y-102944346D01*
X130712564Y-103025144D01*
X130789539Y-103067789D01*
X130856750Y-103135000D01*
X130950000Y-103124836D01*
X131043250Y-103135000D01*
X131110461Y-103067789D01*
X131187436Y-103025144D01*
X131282922Y-102944346D01*
X131348000Y-102862569D01*
X131348000Y-102976250D01*
X131506750Y-103135000D01*
X131608883Y-103123868D01*
X131728021Y-103085761D01*
X131837436Y-103025144D01*
X131932922Y-102944346D01*
X132010811Y-102846471D01*
X132068109Y-102735282D01*
X132102614Y-102615052D01*
X132113000Y-102490400D01*
X132110000Y-102048250D01*
X131951252Y-101889502D01*
X132110000Y-101889502D01*
X132110000Y-101837591D01*
X133272628Y-103000220D01*
G37*
X133272628Y-103000220D02*
X133288473Y-103019527D01*
X133365521Y-103082759D01*
X133442430Y-103123868D01*
X133453425Y-103129745D01*
X133548807Y-103158678D01*
X133648000Y-103168448D01*
X133672854Y-103166000D01*
X140927168Y-103166000D01*
X140959102Y-103243097D01*
X141091670Y-103441500D01*
X140716000Y-103441500D01*
X140691224Y-103443940D01*
X140667399Y-103451167D01*
X140638567Y-103467837D01*
X139847305Y-104076500D01*
X128211912Y-104076500D01*
X128346422Y-103941990D01*
X129711164Y-103941990D01*
X129736010Y-103944437D01*
X129760856Y-103941990D01*
X129760864Y-103941990D01*
X129835203Y-103934668D01*
X129930585Y-103905735D01*
X130018489Y-103858749D01*
X130095537Y-103795517D01*
X130111386Y-103776205D01*
X130315215Y-103572376D01*
X130334527Y-103556527D01*
X130397759Y-103479479D01*
X130444745Y-103391575D01*
X130473678Y-103296193D01*
X130481000Y-103221854D01*
X130483448Y-103197000D01*
X130481000Y-103172146D01*
X130481000Y-103047250D01*
X130552000Y-102976250D01*
X130552000Y-102862569D01*
X130617078Y-102944346D01*
X130712564Y-103025144D01*
X130789539Y-103067789D01*
X130856750Y-103135000D01*
X130950000Y-103124836D01*
X131043250Y-103135000D01*
X131110461Y-103067789D01*
X131187436Y-103025144D01*
X131282922Y-102944346D01*
X131348000Y-102862569D01*
X131348000Y-102976250D01*
X131506750Y-103135000D01*
X131608883Y-103123868D01*
X131728021Y-103085761D01*
X131837436Y-103025144D01*
X131932922Y-102944346D01*
X132010811Y-102846471D01*
X132068109Y-102735282D01*
X132102614Y-102615052D01*
X132113000Y-102490400D01*
X132110000Y-102048250D01*
X131951252Y-101889502D01*
X132110000Y-101889502D01*
X132110000Y-101837591D01*
X133272628Y-103000220D01*
G36*
X145619000Y-96499600D02*
G01*
X145554896Y-96435496D01*
X145438791Y-96551601D01*
X145361157Y-96302528D01*
X145097117Y-96176629D01*
X144813589Y-96104661D01*
X144521469Y-96089389D01*
X144231981Y-96131401D01*
X143956253Y-96229081D01*
X143818843Y-96302528D01*
X143741208Y-96551603D01*
X144590000Y-97400395D01*
X144604143Y-97386253D01*
X144783748Y-97565858D01*
X144769605Y-97580000D01*
X144783748Y-97594143D01*
X144604143Y-97773748D01*
X144590000Y-97759605D01*
X143741208Y-98608397D01*
X143816514Y-98850000D01*
X143741208Y-99091603D01*
X144590000Y-99940395D01*
X144604143Y-99926253D01*
X144783748Y-100105858D01*
X144769605Y-100120000D01*
X144783748Y-100134143D01*
X144604143Y-100313748D01*
X144590000Y-100299605D01*
X143741208Y-101148397D01*
X143818843Y-101397472D01*
X144082883Y-101523371D01*
X144104228Y-101528789D01*
X144006903Y-101569102D01*
X143805283Y-101703820D01*
X143633820Y-101875283D01*
X143499102Y-102076903D01*
X143406307Y-102300931D01*
X143359000Y-102538757D01*
X143359000Y-102781243D01*
X143406307Y-103019069D01*
X143499102Y-103243097D01*
X143631670Y-103441500D01*
X143008330Y-103441500D01*
X143140898Y-103243097D01*
X143233693Y-103019069D01*
X143281000Y-102781243D01*
X143281000Y-102538757D01*
X143233693Y-102300931D01*
X143140898Y-102076903D01*
X143006180Y-101875283D01*
X142834717Y-101703820D01*
X142633097Y-101569102D01*
X142409069Y-101476307D01*
X142171243Y-101429000D01*
X142036592Y-101429000D01*
X142114592Y-101351000D01*
X142171243Y-101351000D01*
X142409069Y-101303693D01*
X142633097Y-101210898D01*
X142834717Y-101076180D01*
X143006180Y-100904717D01*
X143140898Y-100703097D01*
X143184148Y-100598683D01*
X143239081Y-100753747D01*
X143312528Y-100891157D01*
X143561603Y-100968792D01*
X144410395Y-100120000D01*
X143561603Y-99271208D01*
X143312528Y-99348843D01*
X143186629Y-99612883D01*
X143181211Y-99634228D01*
X143140898Y-99536903D01*
X143006180Y-99335283D01*
X142834717Y-99163820D01*
X142633097Y-99029102D01*
X142409069Y-98936307D01*
X142171243Y-98889000D01*
X141928757Y-98889000D01*
X141690931Y-98936307D01*
X141466903Y-99029102D01*
X141265283Y-99163820D01*
X141093820Y-99335283D01*
X141056000Y-99391885D01*
X141056000Y-99289591D01*
X141532748Y-98812843D01*
X142650000Y-98812843D01*
X142773462Y-98800683D01*
X142892179Y-98764671D01*
X143001589Y-98706190D01*
X143097488Y-98627488D01*
X143176190Y-98531589D01*
X143234671Y-98422179D01*
X143270683Y-98303462D01*
X143273227Y-98277630D01*
X143312528Y-98351157D01*
X143561603Y-98428792D01*
X144410395Y-97580000D01*
X143561603Y-96731208D01*
X143312528Y-96808843D01*
X143273953Y-96889743D01*
X143270683Y-96856538D01*
X143234671Y-96737821D01*
X143176190Y-96628411D01*
X143097488Y-96532512D01*
X143001589Y-96453810D01*
X142892179Y-96395329D01*
X142773462Y-96359317D01*
X142650000Y-96347157D01*
X141450000Y-96347157D01*
X141326538Y-96359317D01*
X141207821Y-96395329D01*
X141098411Y-96453810D01*
X141002512Y-96532512D01*
X140923810Y-96628411D01*
X140865329Y-96737821D01*
X140829317Y-96856538D01*
X140817157Y-96980000D01*
X140817157Y-98097252D01*
X140209780Y-98704628D01*
X140190474Y-98720473D01*
X140127242Y-98797521D01*
X140115891Y-98818757D01*
X140080255Y-98885426D01*
X140051322Y-98980808D01*
X140041553Y-99080000D01*
X140044001Y-99104856D01*
X140044000Y-100990408D01*
X139780429Y-101253980D01*
X134230392Y-101253980D01*
X132784254Y-99807843D01*
X133087500Y-99807843D01*
X133208523Y-99795923D01*
X133324895Y-99760622D01*
X133432144Y-99703296D01*
X133526149Y-99626149D01*
X133603296Y-99532144D01*
X133643996Y-99456000D01*
X133831004Y-99456000D01*
X133871704Y-99532144D01*
X133948851Y-99626149D01*
X134042856Y-99703296D01*
X134150105Y-99760622D01*
X134266477Y-99795923D01*
X134387500Y-99807843D01*
X134962500Y-99807843D01*
X135083523Y-99795923D01*
X135199895Y-99760622D01*
X135307144Y-99703296D01*
X135401149Y-99626149D01*
X135478296Y-99532144D01*
X135535622Y-99424895D01*
X135550000Y-99377497D01*
X135564378Y-99424895D01*
X135621704Y-99532144D01*
X135698851Y-99626149D01*
X135792856Y-99703296D01*
X135900105Y-99760622D01*
X135919001Y-99766354D01*
X135919001Y-99950144D01*
X135916553Y-99975000D01*
X135926322Y-100074192D01*
X135955255Y-100169574D01*
X135972225Y-100201322D01*
X136002242Y-100257479D01*
X136065474Y-100334527D01*
X136084780Y-100350371D01*
X136119000Y-100384591D01*
X136119000Y-100526922D01*
X136149013Y-100677809D01*
X136207887Y-100819942D01*
X136293358Y-100947859D01*
X136402141Y-101056642D01*
X136530058Y-101142113D01*
X136672191Y-101200987D01*
X136823078Y-101231000D01*
X136976922Y-101231000D01*
X137127809Y-101200987D01*
X137269942Y-101142113D01*
X137397859Y-101056642D01*
X137506642Y-100947859D01*
X137592113Y-100819942D01*
X137650987Y-100677809D01*
X137681000Y-100526922D01*
X137681000Y-100373078D01*
X137650987Y-100222191D01*
X137592113Y-100080058D01*
X137506642Y-99952141D01*
X137397859Y-99843358D01*
X137269942Y-99757887D01*
X137127809Y-99699013D01*
X137075131Y-99688535D01*
X137151149Y-99626149D01*
X137228296Y-99532144D01*
X137285622Y-99424895D01*
X137320923Y-99308523D01*
X137332843Y-99187500D01*
X137332843Y-98757748D01*
X137966720Y-98123872D01*
X137986027Y-98108027D01*
X138049259Y-98030979D01*
X138096245Y-97943075D01*
X138125178Y-97847693D01*
X138132500Y-97773354D01*
X138134948Y-97748500D01*
X138132500Y-97723646D01*
X138132500Y-95755091D01*
X138154748Y-95732843D01*
X139690000Y-95732843D01*
X139764689Y-95725487D01*
X139836508Y-95703701D01*
X139902696Y-95668322D01*
X139960711Y-95620711D01*
X140008322Y-95562696D01*
X140043701Y-95496508D01*
X140065487Y-95424689D01*
X140072843Y-95350000D01*
X140072843Y-93650000D01*
X140065487Y-93575311D01*
X140043701Y-93503492D01*
X140008322Y-93437304D01*
X139973605Y-93395000D01*
X145619000Y-93395000D01*
X145619000Y-96499600D01*
G37*
X145619000Y-96499600D02*
X145554896Y-96435496D01*
X145438791Y-96551601D01*
X145361157Y-96302528D01*
X145097117Y-96176629D01*
X144813589Y-96104661D01*
X144521469Y-96089389D01*
X144231981Y-96131401D01*
X143956253Y-96229081D01*
X143818843Y-96302528D01*
X143741208Y-96551603D01*
X144590000Y-97400395D01*
X144604143Y-97386253D01*
X144783748Y-97565858D01*
X144769605Y-97580000D01*
X144783748Y-97594143D01*
X144604143Y-97773748D01*
X144590000Y-97759605D01*
X143741208Y-98608397D01*
X143816514Y-98850000D01*
X143741208Y-99091603D01*
X144590000Y-99940395D01*
X144604143Y-99926253D01*
X144783748Y-100105858D01*
X144769605Y-100120000D01*
X144783748Y-100134143D01*
X144604143Y-100313748D01*
X144590000Y-100299605D01*
X143741208Y-101148397D01*
X143818843Y-101397472D01*
X144082883Y-101523371D01*
X144104228Y-101528789D01*
X144006903Y-101569102D01*
X143805283Y-101703820D01*
X143633820Y-101875283D01*
X143499102Y-102076903D01*
X143406307Y-102300931D01*
X143359000Y-102538757D01*
X143359000Y-102781243D01*
X143406307Y-103019069D01*
X143499102Y-103243097D01*
X143631670Y-103441500D01*
X143008330Y-103441500D01*
X143140898Y-103243097D01*
X143233693Y-103019069D01*
X143281000Y-102781243D01*
X143281000Y-102538757D01*
X143233693Y-102300931D01*
X143140898Y-102076903D01*
X143006180Y-101875283D01*
X142834717Y-101703820D01*
X142633097Y-101569102D01*
X142409069Y-101476307D01*
X142171243Y-101429000D01*
X142036592Y-101429000D01*
X142114592Y-101351000D01*
X142171243Y-101351000D01*
X142409069Y-101303693D01*
X142633097Y-101210898D01*
X142834717Y-101076180D01*
X143006180Y-100904717D01*
X143140898Y-100703097D01*
X143184148Y-100598683D01*
X143239081Y-100753747D01*
X143312528Y-100891157D01*
X143561603Y-100968792D01*
X144410395Y-100120000D01*
X143561603Y-99271208D01*
X143312528Y-99348843D01*
X143186629Y-99612883D01*
X143181211Y-99634228D01*
X143140898Y-99536903D01*
X143006180Y-99335283D01*
X142834717Y-99163820D01*
X142633097Y-99029102D01*
X142409069Y-98936307D01*
X142171243Y-98889000D01*
X141928757Y-98889000D01*
X141690931Y-98936307D01*
X141466903Y-99029102D01*
X141265283Y-99163820D01*
X141093820Y-99335283D01*
X141056000Y-99391885D01*
X141056000Y-99289591D01*
X141532748Y-98812843D01*
X142650000Y-98812843D01*
X142773462Y-98800683D01*
X142892179Y-98764671D01*
X143001589Y-98706190D01*
X143097488Y-98627488D01*
X143176190Y-98531589D01*
X143234671Y-98422179D01*
X143270683Y-98303462D01*
X143273227Y-98277630D01*
X143312528Y-98351157D01*
X143561603Y-98428792D01*
X144410395Y-97580000D01*
X143561603Y-96731208D01*
X143312528Y-96808843D01*
X143273953Y-96889743D01*
X143270683Y-96856538D01*
X143234671Y-96737821D01*
X143176190Y-96628411D01*
X143097488Y-96532512D01*
X143001589Y-96453810D01*
X142892179Y-96395329D01*
X142773462Y-96359317D01*
X142650000Y-96347157D01*
X141450000Y-96347157D01*
X141326538Y-96359317D01*
X141207821Y-96395329D01*
X141098411Y-96453810D01*
X141002512Y-96532512D01*
X140923810Y-96628411D01*
X140865329Y-96737821D01*
X140829317Y-96856538D01*
X140817157Y-96980000D01*
X140817157Y-98097252D01*
X140209780Y-98704628D01*
X140190474Y-98720473D01*
X140127242Y-98797521D01*
X140115891Y-98818757D01*
X140080255Y-98885426D01*
X140051322Y-98980808D01*
X140041553Y-99080000D01*
X140044001Y-99104856D01*
X140044000Y-100990408D01*
X139780429Y-101253980D01*
X134230392Y-101253980D01*
X132784254Y-99807843D01*
X133087500Y-99807843D01*
X133208523Y-99795923D01*
X133324895Y-99760622D01*
X133432144Y-99703296D01*
X133526149Y-99626149D01*
X133603296Y-99532144D01*
X133643996Y-99456000D01*
X133831004Y-99456000D01*
X133871704Y-99532144D01*
X133948851Y-99626149D01*
X134042856Y-99703296D01*
X134150105Y-99760622D01*
X134266477Y-99795923D01*
X134387500Y-99807843D01*
X134962500Y-99807843D01*
X135083523Y-99795923D01*
X135199895Y-99760622D01*
X135307144Y-99703296D01*
X135401149Y-99626149D01*
X135478296Y-99532144D01*
X135535622Y-99424895D01*
X135550000Y-99377497D01*
X135564378Y-99424895D01*
X135621704Y-99532144D01*
X135698851Y-99626149D01*
X135792856Y-99703296D01*
X135900105Y-99760622D01*
X135919001Y-99766354D01*
X135919001Y-99950144D01*
X135916553Y-99975000D01*
X135926322Y-100074192D01*
X135955255Y-100169574D01*
X135972225Y-100201322D01*
X136002242Y-100257479D01*
X136065474Y-100334527D01*
X136084780Y-100350371D01*
X136119000Y-100384591D01*
X136119000Y-100526922D01*
X136149013Y-100677809D01*
X136207887Y-100819942D01*
X136293358Y-100947859D01*
X136402141Y-101056642D01*
X136530058Y-101142113D01*
X136672191Y-101200987D01*
X136823078Y-101231000D01*
X136976922Y-101231000D01*
X137127809Y-101200987D01*
X137269942Y-101142113D01*
X137397859Y-101056642D01*
X137506642Y-100947859D01*
X137592113Y-100819942D01*
X137650987Y-100677809D01*
X137681000Y-100526922D01*
X137681000Y-100373078D01*
X137650987Y-100222191D01*
X137592113Y-100080058D01*
X137506642Y-99952141D01*
X137397859Y-99843358D01*
X137269942Y-99757887D01*
X137127809Y-99699013D01*
X137075131Y-99688535D01*
X137151149Y-99626149D01*
X137228296Y-99532144D01*
X137285622Y-99424895D01*
X137320923Y-99308523D01*
X137332843Y-99187500D01*
X137332843Y-98757748D01*
X137966720Y-98123872D01*
X137986027Y-98108027D01*
X138049259Y-98030979D01*
X138096245Y-97943075D01*
X138125178Y-97847693D01*
X138132500Y-97773354D01*
X138134948Y-97748500D01*
X138132500Y-97723646D01*
X138132500Y-95755091D01*
X138154748Y-95732843D01*
X139690000Y-95732843D01*
X139764689Y-95725487D01*
X139836508Y-95703701D01*
X139902696Y-95668322D01*
X139960711Y-95620711D01*
X140008322Y-95562696D01*
X140043701Y-95496508D01*
X140065487Y-95424689D01*
X140072843Y-95350000D01*
X140072843Y-93650000D01*
X140065487Y-93575311D01*
X140043701Y-93503492D01*
X140008322Y-93437304D01*
X139973605Y-93395000D01*
X145619000Y-93395000D01*
X145619000Y-96499600D01*
G36*
X145619001Y-103441500D02*
G01*
X145548330Y-103441500D01*
X145619001Y-103335733D01*
X145619001Y-103441500D01*
G37*
X145619001Y-103441500D02*
X145548330Y-103441500D01*
X145619001Y-103335733D01*
X145619001Y-103441500D01*
G36*
X125535425Y-96989745D02*
G01*
X125630807Y-97018678D01*
X125705146Y-97026000D01*
X125730000Y-97028448D01*
X125754854Y-97026000D01*
X126086146Y-97026000D01*
X126111000Y-97028448D01*
X126135854Y-97026000D01*
X126210193Y-97018678D01*
X126219000Y-97016006D01*
X126219000Y-97450153D01*
X126216553Y-97475000D01*
X126219000Y-97499846D01*
X126219000Y-97499853D01*
X126226322Y-97574192D01*
X126255255Y-97669574D01*
X126302241Y-97757479D01*
X126365473Y-97834527D01*
X126384785Y-97850376D01*
X127474638Y-98940230D01*
X127490483Y-98959537D01*
X127567531Y-99022769D01*
X127655435Y-99069755D01*
X127722621Y-99090135D01*
X127750816Y-99098688D01*
X127760704Y-99099662D01*
X127825156Y-99106010D01*
X127825163Y-99106010D01*
X127850009Y-99108457D01*
X127874855Y-99106010D01*
X131765409Y-99106010D01*
X131899614Y-99240215D01*
X131915463Y-99259527D01*
X131957447Y-99293983D01*
X128023815Y-99293981D01*
X127998961Y-99291533D01*
X127899768Y-99301303D01*
X127804386Y-99330236D01*
X127769576Y-99348843D01*
X127716483Y-99377222D01*
X127716481Y-99377223D01*
X127716482Y-99377223D01*
X127658739Y-99424611D01*
X127658738Y-99424612D01*
X127639435Y-99440454D01*
X127623595Y-99459755D01*
X126384780Y-100698571D01*
X126365474Y-100714415D01*
X126358966Y-100722345D01*
X126356747Y-100723531D01*
X126283578Y-100783578D01*
X126223531Y-100856747D01*
X126178911Y-100940224D01*
X126151435Y-101030802D01*
X126142157Y-101125000D01*
X126142157Y-102176566D01*
X125906000Y-101940409D01*
X125906000Y-100764845D01*
X125908447Y-100739999D01*
X125906000Y-100715153D01*
X125906000Y-100715146D01*
X125898678Y-100640807D01*
X125869745Y-100545425D01*
X125822759Y-100457521D01*
X125759527Y-100380473D01*
X125740220Y-100364628D01*
X124751758Y-99376167D01*
X124783693Y-99299069D01*
X124831000Y-99061243D01*
X124831000Y-98818757D01*
X124783693Y-98580931D01*
X124690898Y-98356903D01*
X124556180Y-98155283D01*
X124384717Y-97983820D01*
X124239706Y-97886927D01*
X124450000Y-97888072D01*
X124574482Y-97875812D01*
X124694180Y-97839502D01*
X124804494Y-97780537D01*
X124901185Y-97701185D01*
X124980537Y-97604494D01*
X125039502Y-97494180D01*
X125075812Y-97374482D01*
X125088072Y-97250000D01*
X125086576Y-96975200D01*
X125278168Y-96975200D01*
X125368000Y-96984048D01*
X125467192Y-96974278D01*
X125492261Y-96966673D01*
X125535425Y-96989745D01*
G37*
X125535425Y-96989745D02*
X125630807Y-97018678D01*
X125705146Y-97026000D01*
X125730000Y-97028448D01*
X125754854Y-97026000D01*
X126086146Y-97026000D01*
X126111000Y-97028448D01*
X126135854Y-97026000D01*
X126210193Y-97018678D01*
X126219000Y-97016006D01*
X126219000Y-97450153D01*
X126216553Y-97475000D01*
X126219000Y-97499846D01*
X126219000Y-97499853D01*
X126226322Y-97574192D01*
X126255255Y-97669574D01*
X126302241Y-97757479D01*
X126365473Y-97834527D01*
X126384785Y-97850376D01*
X127474638Y-98940230D01*
X127490483Y-98959537D01*
X127567531Y-99022769D01*
X127655435Y-99069755D01*
X127722621Y-99090135D01*
X127750816Y-99098688D01*
X127760704Y-99099662D01*
X127825156Y-99106010D01*
X127825163Y-99106010D01*
X127850009Y-99108457D01*
X127874855Y-99106010D01*
X131765409Y-99106010D01*
X131899614Y-99240215D01*
X131915463Y-99259527D01*
X131957447Y-99293983D01*
X128023815Y-99293981D01*
X127998961Y-99291533D01*
X127899768Y-99301303D01*
X127804386Y-99330236D01*
X127769576Y-99348843D01*
X127716483Y-99377222D01*
X127716481Y-99377223D01*
X127716482Y-99377223D01*
X127658739Y-99424611D01*
X127658738Y-99424612D01*
X127639435Y-99440454D01*
X127623595Y-99459755D01*
X126384780Y-100698571D01*
X126365474Y-100714415D01*
X126358966Y-100722345D01*
X126356747Y-100723531D01*
X126283578Y-100783578D01*
X126223531Y-100856747D01*
X126178911Y-100940224D01*
X126151435Y-101030802D01*
X126142157Y-101125000D01*
X126142157Y-102176566D01*
X125906000Y-101940409D01*
X125906000Y-100764845D01*
X125908447Y-100739999D01*
X125906000Y-100715153D01*
X125906000Y-100715146D01*
X125898678Y-100640807D01*
X125869745Y-100545425D01*
X125822759Y-100457521D01*
X125759527Y-100380473D01*
X125740220Y-100364628D01*
X124751758Y-99376167D01*
X124783693Y-99299069D01*
X124831000Y-99061243D01*
X124831000Y-98818757D01*
X124783693Y-98580931D01*
X124690898Y-98356903D01*
X124556180Y-98155283D01*
X124384717Y-97983820D01*
X124239706Y-97886927D01*
X124450000Y-97888072D01*
X124574482Y-97875812D01*
X124694180Y-97839502D01*
X124804494Y-97780537D01*
X124901185Y-97701185D01*
X124980537Y-97604494D01*
X125039502Y-97494180D01*
X125075812Y-97374482D01*
X125088072Y-97250000D01*
X125086576Y-96975200D01*
X125278168Y-96975200D01*
X125368000Y-96984048D01*
X125467192Y-96974278D01*
X125492261Y-96966673D01*
X125535425Y-96989745D01*
G36*
X145554896Y-101264504D02*
G01*
X145619000Y-101200400D01*
X145619000Y-101984267D01*
X145546180Y-101875283D01*
X145374717Y-101703820D01*
X145173097Y-101569102D01*
X145068683Y-101525852D01*
X145223747Y-101470919D01*
X145361157Y-101397472D01*
X145438791Y-101148399D01*
X145554896Y-101264504D01*
G37*
X145554896Y-101264504D02*
X145619000Y-101200400D01*
X145619000Y-101984267D01*
X145546180Y-101875283D01*
X145374717Y-101703820D01*
X145173097Y-101569102D01*
X145068683Y-101525852D01*
X145223747Y-101470919D01*
X145361157Y-101397472D01*
X145438791Y-101148399D01*
X145554896Y-101264504D01*
G36*
X131348000Y-101635500D02*
G01*
X131422000Y-101635500D01*
X131422000Y-101889500D01*
X131348000Y-101889500D01*
X131348000Y-101936250D01*
X131301250Y-101889500D01*
X131128000Y-101889500D01*
X131128000Y-101635500D01*
X131301250Y-101635500D01*
X131321250Y-101615500D01*
X131348000Y-101615500D01*
X131348000Y-101635500D01*
G37*
X131348000Y-101635500D02*
X131422000Y-101635500D01*
X131422000Y-101889500D01*
X131348000Y-101889500D01*
X131348000Y-101936250D01*
X131301250Y-101889500D01*
X131128000Y-101889500D01*
X131128000Y-101635500D01*
X131301250Y-101635500D01*
X131321250Y-101615500D01*
X131348000Y-101615500D01*
X131348000Y-101635500D01*
G36*
X135817856Y-97853296D02*
G01*
X135925105Y-97910622D01*
X136041477Y-97945923D01*
X136162500Y-97957843D01*
X136701565Y-97957843D01*
X136567252Y-98092157D01*
X136137500Y-98092157D01*
X136016477Y-98104077D01*
X135900105Y-98139378D01*
X135792856Y-98196704D01*
X135698851Y-98273851D01*
X135621704Y-98367856D01*
X135564378Y-98475105D01*
X135550000Y-98522503D01*
X135535622Y-98475105D01*
X135478296Y-98367856D01*
X135401149Y-98273851D01*
X135316150Y-98204095D01*
X135349482Y-98200812D01*
X135469180Y-98164502D01*
X135579494Y-98105537D01*
X135676185Y-98026185D01*
X135755537Y-97929494D01*
X135802849Y-97840980D01*
X135817856Y-97853296D01*
G37*
X135817856Y-97853296D02*
X135925105Y-97910622D01*
X136041477Y-97945923D01*
X136162500Y-97957843D01*
X136701565Y-97957843D01*
X136567252Y-98092157D01*
X136137500Y-98092157D01*
X136016477Y-98104077D01*
X135900105Y-98139378D01*
X135792856Y-98196704D01*
X135698851Y-98273851D01*
X135621704Y-98367856D01*
X135564378Y-98475105D01*
X135550000Y-98522503D01*
X135535622Y-98475105D01*
X135478296Y-98367856D01*
X135401149Y-98273851D01*
X135316150Y-98204095D01*
X135349482Y-98200812D01*
X135469180Y-98164502D01*
X135579494Y-98105537D01*
X135676185Y-98026185D01*
X135755537Y-97929494D01*
X135802849Y-97840980D01*
X135817856Y-97853296D01*
G36*
X135716903Y-93409102D02*
G01*
X135515283Y-93543820D01*
X135343820Y-93715283D01*
X135209102Y-93916903D01*
X135116307Y-94140931D01*
X135069000Y-94378757D01*
X135069000Y-94621243D01*
X135116307Y-94859069D01*
X135209102Y-95083097D01*
X135343820Y-95284717D01*
X135515283Y-95456180D01*
X135716903Y-95590898D01*
X135794000Y-95622833D01*
X135794001Y-96342465D01*
X135755537Y-96270506D01*
X135676185Y-96173815D01*
X135579494Y-96094463D01*
X135469180Y-96035498D01*
X135349482Y-95999188D01*
X135225000Y-95986928D01*
X134985750Y-95990000D01*
X134827000Y-96148750D01*
X134827000Y-96973000D01*
X134847000Y-96973000D01*
X134847000Y-97227000D01*
X134827000Y-97227000D01*
X134827000Y-97247000D01*
X134573000Y-97247000D01*
X134573000Y-97227000D01*
X133698750Y-97227000D01*
X133648750Y-97277000D01*
X132977000Y-97277000D01*
X132977000Y-97297000D01*
X132723000Y-97297000D01*
X132723000Y-97277000D01*
X132703000Y-97277000D01*
X132703000Y-97023000D01*
X132723000Y-97023000D01*
X132723000Y-96148750D01*
X132977000Y-96148750D01*
X132977000Y-97023000D01*
X133801250Y-97023000D01*
X133851250Y-96973000D01*
X134573000Y-96973000D01*
X134573000Y-96148750D01*
X134414250Y-95990000D01*
X134175000Y-95986928D01*
X134050518Y-95999188D01*
X133930820Y-96035498D01*
X133820506Y-96094463D01*
X133750000Y-96152326D01*
X133679494Y-96094463D01*
X133569180Y-96035498D01*
X133449482Y-95999188D01*
X133325000Y-95986928D01*
X133135750Y-95990000D01*
X132977000Y-96148750D01*
X132723000Y-96148750D01*
X132564250Y-95990000D01*
X132375000Y-95986928D01*
X132250518Y-95999188D01*
X132130820Y-96035498D01*
X132020506Y-96094463D01*
X131935165Y-96164500D01*
X131348000Y-96164500D01*
X131348000Y-97251250D01*
X131506750Y-97410000D01*
X131608883Y-97398868D01*
X131728021Y-97360761D01*
X131837436Y-97300144D01*
X131864785Y-97277002D01*
X131898748Y-97277002D01*
X131740000Y-97435750D01*
X131736928Y-97675000D01*
X131749188Y-97799482D01*
X131785498Y-97919180D01*
X131844463Y-98029494D01*
X131897410Y-98094010D01*
X129404518Y-98094010D01*
X129497859Y-98031642D01*
X129606642Y-97922859D01*
X129692113Y-97794942D01*
X129750987Y-97652809D01*
X129781000Y-97501922D01*
X129781000Y-97348078D01*
X129750987Y-97197191D01*
X129723666Y-97131233D01*
X129780802Y-97148565D01*
X129875000Y-97157843D01*
X130075000Y-97157843D01*
X130169198Y-97148565D01*
X130259776Y-97121089D01*
X130300000Y-97099589D01*
X130340224Y-97121089D01*
X130430802Y-97148565D01*
X130525000Y-97157843D01*
X130568134Y-97157843D01*
X130617078Y-97219346D01*
X130712564Y-97300144D01*
X130821979Y-97360761D01*
X130941117Y-97398868D01*
X131043250Y-97410000D01*
X131202000Y-97251250D01*
X131202000Y-96734323D01*
X131207843Y-96675000D01*
X131207843Y-95890500D01*
X131348000Y-95890500D01*
X131348000Y-95910500D01*
X131951250Y-95910500D01*
X132110000Y-95751750D01*
X132113000Y-95309600D01*
X132102614Y-95184948D01*
X132068109Y-95064718D01*
X132037850Y-95006000D01*
X132637168Y-95006000D01*
X132669102Y-95083097D01*
X132803820Y-95284717D01*
X132975283Y-95456180D01*
X133176903Y-95590898D01*
X133400931Y-95683693D01*
X133638757Y-95731000D01*
X133881243Y-95731000D01*
X134119069Y-95683693D01*
X134343097Y-95590898D01*
X134544717Y-95456180D01*
X134716180Y-95284717D01*
X134850898Y-95083097D01*
X134943693Y-94859069D01*
X134991000Y-94621243D01*
X134991000Y-94378757D01*
X134943693Y-94140931D01*
X134850898Y-93916903D01*
X134716180Y-93715283D01*
X134544717Y-93543820D01*
X134343097Y-93409102D01*
X134309052Y-93395000D01*
X135750948Y-93395000D01*
X135716903Y-93409102D01*
G37*
X135716903Y-93409102D02*
X135515283Y-93543820D01*
X135343820Y-93715283D01*
X135209102Y-93916903D01*
X135116307Y-94140931D01*
X135069000Y-94378757D01*
X135069000Y-94621243D01*
X135116307Y-94859069D01*
X135209102Y-95083097D01*
X135343820Y-95284717D01*
X135515283Y-95456180D01*
X135716903Y-95590898D01*
X135794000Y-95622833D01*
X135794001Y-96342465D01*
X135755537Y-96270506D01*
X135676185Y-96173815D01*
X135579494Y-96094463D01*
X135469180Y-96035498D01*
X135349482Y-95999188D01*
X135225000Y-95986928D01*
X134985750Y-95990000D01*
X134827000Y-96148750D01*
X134827000Y-96973000D01*
X134847000Y-96973000D01*
X134847000Y-97227000D01*
X134827000Y-97227000D01*
X134827000Y-97247000D01*
X134573000Y-97247000D01*
X134573000Y-97227000D01*
X133698750Y-97227000D01*
X133648750Y-97277000D01*
X132977000Y-97277000D01*
X132977000Y-97297000D01*
X132723000Y-97297000D01*
X132723000Y-97277000D01*
X132703000Y-97277000D01*
X132703000Y-97023000D01*
X132723000Y-97023000D01*
X132723000Y-96148750D01*
X132977000Y-96148750D01*
X132977000Y-97023000D01*
X133801250Y-97023000D01*
X133851250Y-96973000D01*
X134573000Y-96973000D01*
X134573000Y-96148750D01*
X134414250Y-95990000D01*
X134175000Y-95986928D01*
X134050518Y-95999188D01*
X133930820Y-96035498D01*
X133820506Y-96094463D01*
X133750000Y-96152326D01*
X133679494Y-96094463D01*
X133569180Y-96035498D01*
X133449482Y-95999188D01*
X133325000Y-95986928D01*
X133135750Y-95990000D01*
X132977000Y-96148750D01*
X132723000Y-96148750D01*
X132564250Y-95990000D01*
X132375000Y-95986928D01*
X132250518Y-95999188D01*
X132130820Y-96035498D01*
X132020506Y-96094463D01*
X131935165Y-96164500D01*
X131348000Y-96164500D01*
X131348000Y-97251250D01*
X131506750Y-97410000D01*
X131608883Y-97398868D01*
X131728021Y-97360761D01*
X131837436Y-97300144D01*
X131864785Y-97277002D01*
X131898748Y-97277002D01*
X131740000Y-97435750D01*
X131736928Y-97675000D01*
X131749188Y-97799482D01*
X131785498Y-97919180D01*
X131844463Y-98029494D01*
X131897410Y-98094010D01*
X129404518Y-98094010D01*
X129497859Y-98031642D01*
X129606642Y-97922859D01*
X129692113Y-97794942D01*
X129750987Y-97652809D01*
X129781000Y-97501922D01*
X129781000Y-97348078D01*
X129750987Y-97197191D01*
X129723666Y-97131233D01*
X129780802Y-97148565D01*
X129875000Y-97157843D01*
X130075000Y-97157843D01*
X130169198Y-97148565D01*
X130259776Y-97121089D01*
X130300000Y-97099589D01*
X130340224Y-97121089D01*
X130430802Y-97148565D01*
X130525000Y-97157843D01*
X130568134Y-97157843D01*
X130617078Y-97219346D01*
X130712564Y-97300144D01*
X130821979Y-97360761D01*
X130941117Y-97398868D01*
X131043250Y-97410000D01*
X131202000Y-97251250D01*
X131202000Y-96734323D01*
X131207843Y-96675000D01*
X131207843Y-95890500D01*
X131348000Y-95890500D01*
X131348000Y-95910500D01*
X131951250Y-95910500D01*
X132110000Y-95751750D01*
X132113000Y-95309600D01*
X132102614Y-95184948D01*
X132068109Y-95064718D01*
X132037850Y-95006000D01*
X132637168Y-95006000D01*
X132669102Y-95083097D01*
X132803820Y-95284717D01*
X132975283Y-95456180D01*
X133176903Y-95590898D01*
X133400931Y-95683693D01*
X133638757Y-95731000D01*
X133881243Y-95731000D01*
X134119069Y-95683693D01*
X134343097Y-95590898D01*
X134544717Y-95456180D01*
X134716180Y-95284717D01*
X134850898Y-95083097D01*
X134943693Y-94859069D01*
X134991000Y-94621243D01*
X134991000Y-94378757D01*
X134943693Y-94140931D01*
X134850898Y-93916903D01*
X134716180Y-93715283D01*
X134544717Y-93543820D01*
X134343097Y-93409102D01*
X134309052Y-93395000D01*
X135750948Y-93395000D01*
X135716903Y-93409102D01*
G36*
X127606750Y-97410000D02*
G01*
X127708883Y-97398868D01*
X127828021Y-97360761D01*
X127902725Y-97319374D01*
X128258102Y-97674752D01*
X128307887Y-97794942D01*
X128393358Y-97922859D01*
X128502141Y-98031642D01*
X128595482Y-98094010D01*
X128059602Y-98094010D01*
X127375592Y-97410000D01*
X127502002Y-97410000D01*
X127502002Y-97305252D01*
X127606750Y-97410000D01*
G37*
X127606750Y-97410000D02*
X127708883Y-97398868D01*
X127828021Y-97360761D01*
X127902725Y-97319374D01*
X128258102Y-97674752D01*
X128307887Y-97794942D01*
X128393358Y-97922859D01*
X128502141Y-98031642D01*
X128595482Y-98094010D01*
X128059602Y-98094010D01*
X127375592Y-97410000D01*
X127502002Y-97410000D01*
X127502002Y-97305252D01*
X127606750Y-97410000D01*
G36*
X121187000Y-96273000D02*
G01*
X123473000Y-96273000D01*
X123473000Y-96253000D01*
X123727000Y-96253000D01*
X123727000Y-96273000D01*
X123747000Y-96273000D01*
X123747000Y-96527000D01*
X123727000Y-96527000D01*
X123727000Y-96547000D01*
X123473000Y-96547000D01*
X123473000Y-96527000D01*
X121187000Y-96527000D01*
X121187000Y-96547000D01*
X120933000Y-96547000D01*
X120933000Y-96527000D01*
X120913000Y-96527000D01*
X120913000Y-96273000D01*
X120933000Y-96273000D01*
X120933000Y-96253000D01*
X121187000Y-96253000D01*
X121187000Y-96273000D01*
G37*
X121187000Y-96273000D02*
X123473000Y-96273000D01*
X123473000Y-96253000D01*
X123727000Y-96253000D01*
X123727000Y-96273000D01*
X123747000Y-96273000D01*
X123747000Y-96527000D01*
X123727000Y-96527000D01*
X123727000Y-96547000D01*
X123473000Y-96547000D01*
X123473000Y-96527000D01*
X121187000Y-96527000D01*
X121187000Y-96547000D01*
X120933000Y-96547000D01*
X120933000Y-96527000D01*
X120913000Y-96527000D01*
X120913000Y-96273000D01*
X120933000Y-96273000D01*
X120933000Y-96253000D01*
X121187000Y-96253000D01*
X121187000Y-96273000D01*
G36*
X127442157Y-96184500D02*
G01*
X127307843Y-96184500D01*
X127307843Y-95890500D01*
X127442157Y-95890500D01*
X127442157Y-96184500D01*
G37*
X127442157Y-96184500D02*
X127307843Y-96184500D01*
X127307843Y-95890500D01*
X127442157Y-95890500D01*
X127442157Y-96184500D01*
G36*
X133176903Y-93409102D02*
G01*
X132975283Y-93543820D01*
X132803820Y-93715283D01*
X132669102Y-93916903D01*
X132637168Y-93994000D01*
X131091343Y-93994000D01*
X131080704Y-93978078D01*
X130971921Y-93869295D01*
X130844004Y-93783824D01*
X130701871Y-93724950D01*
X130550984Y-93694937D01*
X130397140Y-93694937D01*
X130246253Y-93724950D01*
X130104120Y-93783824D01*
X129976203Y-93869295D01*
X129867420Y-93978078D01*
X129786938Y-94098528D01*
X129298169Y-93609760D01*
X129282325Y-93590454D01*
X129205277Y-93527222D01*
X129117373Y-93480236D01*
X129021991Y-93451303D01*
X128947652Y-93443981D01*
X128947645Y-93443981D01*
X128922799Y-93441534D01*
X128897952Y-93443981D01*
X124902062Y-93443983D01*
X124877198Y-93441534D01*
X124778005Y-93451304D01*
X124682623Y-93480237D01*
X124594719Y-93527224D01*
X124536976Y-93574612D01*
X124536972Y-93574616D01*
X124517671Y-93590456D01*
X124501831Y-93609758D01*
X124292608Y-93818981D01*
X120148042Y-93818981D01*
X120123196Y-93816534D01*
X120098350Y-93818981D01*
X120098343Y-93818981D01*
X120033891Y-93825329D01*
X120024003Y-93826303D01*
X120001804Y-93833037D01*
X119928622Y-93855236D01*
X119840718Y-93902222D01*
X119763670Y-93965454D01*
X119747826Y-93984760D01*
X118644764Y-95087823D01*
X118625452Y-95103672D01*
X118562220Y-95180720D01*
X118541000Y-95220420D01*
X118541000Y-93395000D01*
X133210948Y-93395000D01*
X133176903Y-93409102D01*
G37*
X133176903Y-93409102D02*
X132975283Y-93543820D01*
X132803820Y-93715283D01*
X132669102Y-93916903D01*
X132637168Y-93994000D01*
X131091343Y-93994000D01*
X131080704Y-93978078D01*
X130971921Y-93869295D01*
X130844004Y-93783824D01*
X130701871Y-93724950D01*
X130550984Y-93694937D01*
X130397140Y-93694937D01*
X130246253Y-93724950D01*
X130104120Y-93783824D01*
X129976203Y-93869295D01*
X129867420Y-93978078D01*
X129786938Y-94098528D01*
X129298169Y-93609760D01*
X129282325Y-93590454D01*
X129205277Y-93527222D01*
X129117373Y-93480236D01*
X129021991Y-93451303D01*
X128947652Y-93443981D01*
X128947645Y-93443981D01*
X128922799Y-93441534D01*
X128897952Y-93443981D01*
X124902062Y-93443983D01*
X124877198Y-93441534D01*
X124778005Y-93451304D01*
X124682623Y-93480237D01*
X124594719Y-93527224D01*
X124536976Y-93574612D01*
X124536972Y-93574616D01*
X124517671Y-93590456D01*
X124501831Y-93609758D01*
X124292608Y-93818981D01*
X120148042Y-93818981D01*
X120123196Y-93816534D01*
X120098350Y-93818981D01*
X120098343Y-93818981D01*
X120033891Y-93825329D01*
X120024003Y-93826303D01*
X120001804Y-93833037D01*
X119928622Y-93855236D01*
X119840718Y-93902222D01*
X119763670Y-93965454D01*
X119747826Y-93984760D01*
X118644764Y-95087823D01*
X118625452Y-95103672D01*
X118562220Y-95180720D01*
X118541000Y-95220420D01*
X118541000Y-93395000D01*
X133210948Y-93395000D01*
X133176903Y-93409102D01*
%TD*%
M02*
