M48
; DRILL file {KiCad (5.1.6-0)} date Thursday, November 03, 2022 at 10:15:42 AM
; FORMAT={-:-/ absolute / metric / decimal}
; #@! TF.CreationDate,2022-11-03T10:15:42+01:00
; #@! TF.GenerationSoftware,Kicad,Pcbnew,(5.1.6-0)
FMAT,2
METRIC
T1C0.400
T2C1.000
%
G90
G05
T1
X119.126Y-110.998
X119.278Y-112.624
X119.38Y-93.98
X125.443Y-104.717
X125.476Y-109.728
X125.476Y-111.404
X125.832Y-107.315
X126.086Y-106.274
X126.746Y-99.238
X127.448Y-105.0
X129.0Y-97.425
X129.02Y-109.047
X130.277Y-106.426
X130.35Y-110.436
X130.474Y-94.476
X131.496Y-97.866
X131.572Y-109.728
X132.0Y-95.225
X132.105Y-103.683
X132.6Y-108.15
X132.69Y-106.401
X132.79Y-112.0
X134.442Y-100.863
X134.62Y-109.22
X135.6Y-105.2
X136.703Y-103.683
X136.9Y-100.45
X136.969Y-110.363
X137.973Y-112.649
X138.074Y-109.83
X138.684Y-107.442
X139.395Y-100.584
X140.0Y-105.4
X140.45Y-103.7
X143.535Y-109.322
X144.983Y-112.598
X145.034Y-93.726
T2
X133.76Y-94.5
X136.3Y-94.5
X138.84Y-94.5
X142.05Y-97.58
X142.05Y-100.12
X142.05Y-102.66
X142.05Y-105.2
X142.05Y-107.74
X144.59Y-97.58
X144.59Y-100.12
X144.59Y-102.66
X144.59Y-105.2
X144.59Y-107.74
X121.06Y-96.4
X121.06Y-98.94
X121.06Y-101.48
X121.06Y-104.02
X121.06Y-106.56
X121.06Y-109.1
X121.06Y-111.64
X123.6Y-96.4
X123.6Y-98.94
X123.6Y-101.48
X123.6Y-104.02
X123.6Y-106.56
X123.6Y-109.1
X123.6Y-111.64
T0
M30
