%TF.GenerationSoftware,KiCad,Pcbnew,(5.1.6-0)*%
%TF.CreationDate,2022-11-03T10:15:40+01:00*%
%TF.ProjectId,Monitorswitch,4d6f6e69-746f-4727-9377-697463682e6b,rev?*%
%TF.SameCoordinates,Original*%
%TF.FileFunction,Soldermask,Top*%
%TF.FilePolarity,Negative*%
%FSLAX46Y46*%
G04 Gerber Fmt 4.6, Leading zero omitted, Abs format (unit mm)*
G04 Created by KiCad (PCBNEW (5.1.6-0)) date 2022-11-03 10:15:40*
%MOMM*%
%LPD*%
G01*
G04 APERTURE LIST*
%ADD10R,1.160000X0.750000*%
%ADD11O,1.800000X1.800000*%
%ADD12R,1.800000X1.800000*%
%ADD13C,1.800000*%
G04 APERTURE END LIST*
D10*
%TO.C,U3*%
X129174600Y-107223600D03*
X129174600Y-106273600D03*
X129174600Y-108173600D03*
X126974600Y-108173600D03*
X126974600Y-107223600D03*
X126974600Y-106273600D03*
%TD*%
%TO.C,U2*%
X129184400Y-111389200D03*
X129184400Y-110439200D03*
X129184400Y-112339200D03*
X126984400Y-112339200D03*
X126984400Y-111389200D03*
X126984400Y-110439200D03*
%TD*%
D11*
%TO.C,J3*%
X133760000Y-94500000D03*
X136300000Y-94500000D03*
D12*
X138840000Y-94500000D03*
%TD*%
D13*
%TO.C,J1*%
X144590000Y-107740000D03*
X144590000Y-105200000D03*
X144590000Y-102660000D03*
X144590000Y-100120000D03*
X144590000Y-97580000D03*
X142050000Y-107740000D03*
X142050000Y-105200000D03*
X142050000Y-102660000D03*
X142050000Y-100120000D03*
G36*
G01*
X141150000Y-98215294D02*
X141150000Y-96944706D01*
G75*
G02*
X141414706Y-96680000I264706J0D01*
G01*
X142685294Y-96680000D01*
G75*
G02*
X142950000Y-96944706I0J-264706D01*
G01*
X142950000Y-98215294D01*
G75*
G02*
X142685294Y-98480000I-264706J0D01*
G01*
X141414706Y-98480000D01*
G75*
G02*
X141150000Y-98215294I0J264706D01*
G01*
G37*
%TD*%
%TO.C,R1*%
G36*
G01*
X134262500Y-111225000D02*
X133737500Y-111225000D01*
G75*
G02*
X133475000Y-110962500I0J262500D01*
G01*
X133475000Y-110337500D01*
G75*
G02*
X133737500Y-110075000I262500J0D01*
G01*
X134262500Y-110075000D01*
G75*
G02*
X134525000Y-110337500I0J-262500D01*
G01*
X134525000Y-110962500D01*
G75*
G02*
X134262500Y-111225000I-262500J0D01*
G01*
G37*
G36*
G01*
X134262500Y-112975000D02*
X133737500Y-112975000D01*
G75*
G02*
X133475000Y-112712500I0J262500D01*
G01*
X133475000Y-112087500D01*
G75*
G02*
X133737500Y-111825000I262500J0D01*
G01*
X134262500Y-111825000D01*
G75*
G02*
X134525000Y-112087500I0J-262500D01*
G01*
X134525000Y-112712500D01*
G75*
G02*
X134262500Y-112975000I-262500J0D01*
G01*
G37*
%TD*%
D11*
%TO.C,J2*%
X121060000Y-111640000D03*
X123600000Y-111640000D03*
X121060000Y-109100000D03*
X123600000Y-109100000D03*
X121060000Y-106560000D03*
X123600000Y-106560000D03*
X121060000Y-104020000D03*
X123600000Y-104020000D03*
X121060000Y-101480000D03*
X123600000Y-101480000D03*
X121060000Y-98940000D03*
X123600000Y-98940000D03*
X121060000Y-96400000D03*
D12*
X123600000Y-96400000D03*
%TD*%
%TO.C,FB2*%
G36*
G01*
X135875000Y-97362500D02*
X135875000Y-96837500D01*
G75*
G02*
X136137500Y-96575000I262500J0D01*
G01*
X136762500Y-96575000D01*
G75*
G02*
X137025000Y-96837500I0J-262500D01*
G01*
X137025000Y-97362500D01*
G75*
G02*
X136762500Y-97625000I-262500J0D01*
G01*
X136137500Y-97625000D01*
G75*
G02*
X135875000Y-97362500I0J262500D01*
G01*
G37*
G36*
G01*
X134125000Y-97362500D02*
X134125000Y-96837500D01*
G75*
G02*
X134387500Y-96575000I262500J0D01*
G01*
X135012500Y-96575000D01*
G75*
G02*
X135275000Y-96837500I0J-262500D01*
G01*
X135275000Y-97362500D01*
G75*
G02*
X135012500Y-97625000I-262500J0D01*
G01*
X134387500Y-97625000D01*
G75*
G02*
X134125000Y-97362500I0J262500D01*
G01*
G37*
%TD*%
%TO.C,FB1*%
G36*
G01*
X135850000Y-99212500D02*
X135850000Y-98687500D01*
G75*
G02*
X136112500Y-98425000I262500J0D01*
G01*
X136737500Y-98425000D01*
G75*
G02*
X137000000Y-98687500I0J-262500D01*
G01*
X137000000Y-99212500D01*
G75*
G02*
X136737500Y-99475000I-262500J0D01*
G01*
X136112500Y-99475000D01*
G75*
G02*
X135850000Y-99212500I0J262500D01*
G01*
G37*
G36*
G01*
X134100000Y-99212500D02*
X134100000Y-98687500D01*
G75*
G02*
X134362500Y-98425000I262500J0D01*
G01*
X134987500Y-98425000D01*
G75*
G02*
X135250000Y-98687500I0J-262500D01*
G01*
X135250000Y-99212500D01*
G75*
G02*
X134987500Y-99475000I-262500J0D01*
G01*
X134362500Y-99475000D01*
G75*
G02*
X134100000Y-99212500I0J262500D01*
G01*
G37*
%TD*%
%TO.C,C4*%
G36*
G01*
X136685762Y-110970000D02*
X135729238Y-110970000D01*
G75*
G02*
X135457500Y-110698262I0J271738D01*
G01*
X135457500Y-109991738D01*
G75*
G02*
X135729238Y-109720000I271738J0D01*
G01*
X136685762Y-109720000D01*
G75*
G02*
X136957500Y-109991738I0J-271738D01*
G01*
X136957500Y-110698262D01*
G75*
G02*
X136685762Y-110970000I-271738J0D01*
G01*
G37*
G36*
G01*
X136685762Y-113020000D02*
X135729238Y-113020000D01*
G75*
G02*
X135457500Y-112748262I0J271738D01*
G01*
X135457500Y-112041738D01*
G75*
G02*
X135729238Y-111770000I271738J0D01*
G01*
X136685762Y-111770000D01*
G75*
G02*
X136957500Y-112041738I0J-271738D01*
G01*
X136957500Y-112748262D01*
G75*
G02*
X136685762Y-113020000I-271738J0D01*
G01*
G37*
%TD*%
%TO.C,C3*%
G36*
G01*
X131812500Y-106975000D02*
X131287500Y-106975000D01*
G75*
G02*
X131025000Y-106712500I0J262500D01*
G01*
X131025000Y-106087500D01*
G75*
G02*
X131287500Y-105825000I262500J0D01*
G01*
X131812500Y-105825000D01*
G75*
G02*
X132075000Y-106087500I0J-262500D01*
G01*
X132075000Y-106712500D01*
G75*
G02*
X131812500Y-106975000I-262500J0D01*
G01*
G37*
G36*
G01*
X131812500Y-108725000D02*
X131287500Y-108725000D01*
G75*
G02*
X131025000Y-108462500I0J262500D01*
G01*
X131025000Y-107837500D01*
G75*
G02*
X131287500Y-107575000I262500J0D01*
G01*
X131812500Y-107575000D01*
G75*
G02*
X132075000Y-107837500I0J-262500D01*
G01*
X132075000Y-108462500D01*
G75*
G02*
X131812500Y-108725000I-262500J0D01*
G01*
G37*
%TD*%
%TO.C,C2*%
G36*
G01*
X131812500Y-111225000D02*
X131287500Y-111225000D01*
G75*
G02*
X131025000Y-110962500I0J262500D01*
G01*
X131025000Y-110337500D01*
G75*
G02*
X131287500Y-110075000I262500J0D01*
G01*
X131812500Y-110075000D01*
G75*
G02*
X132075000Y-110337500I0J-262500D01*
G01*
X132075000Y-110962500D01*
G75*
G02*
X131812500Y-111225000I-262500J0D01*
G01*
G37*
G36*
G01*
X131812500Y-112975000D02*
X131287500Y-112975000D01*
G75*
G02*
X131025000Y-112712500I0J262500D01*
G01*
X131025000Y-112087500D01*
G75*
G02*
X131287500Y-111825000I262500J0D01*
G01*
X131812500Y-111825000D01*
G75*
G02*
X132075000Y-112087500I0J-262500D01*
G01*
X132075000Y-112712500D01*
G75*
G02*
X131812500Y-112975000I-262500J0D01*
G01*
G37*
%TD*%
%TO.C,C1*%
G36*
G01*
X133112500Y-97725000D02*
X132587500Y-97725000D01*
G75*
G02*
X132325000Y-97462500I0J262500D01*
G01*
X132325000Y-96837500D01*
G75*
G02*
X132587500Y-96575000I262500J0D01*
G01*
X133112500Y-96575000D01*
G75*
G02*
X133375000Y-96837500I0J-262500D01*
G01*
X133375000Y-97462500D01*
G75*
G02*
X133112500Y-97725000I-262500J0D01*
G01*
G37*
G36*
G01*
X133112500Y-99475000D02*
X132587500Y-99475000D01*
G75*
G02*
X132325000Y-99212500I0J262500D01*
G01*
X132325000Y-98587500D01*
G75*
G02*
X132587500Y-98325000I262500J0D01*
G01*
X133112500Y-98325000D01*
G75*
G02*
X133375000Y-98587500I0J-262500D01*
G01*
X133375000Y-99212500D01*
G75*
G02*
X133112500Y-99475000I-262500J0D01*
G01*
G37*
%TD*%
%TO.C,U1*%
G36*
G01*
X126850000Y-96825000D02*
X126600000Y-96825000D01*
G75*
G02*
X126475000Y-96700000I0J125000D01*
G01*
X126475000Y-95375000D01*
G75*
G02*
X126600000Y-95250000I125000J0D01*
G01*
X126850000Y-95250000D01*
G75*
G02*
X126975000Y-95375000I0J-125000D01*
G01*
X126975000Y-96700000D01*
G75*
G02*
X126850000Y-96825000I-125000J0D01*
G01*
G37*
G36*
G01*
X127500000Y-96825000D02*
X127250000Y-96825000D01*
G75*
G02*
X127125000Y-96700000I0J125000D01*
G01*
X127125000Y-95375000D01*
G75*
G02*
X127250000Y-95250000I125000J0D01*
G01*
X127500000Y-95250000D01*
G75*
G02*
X127625000Y-95375000I0J-125000D01*
G01*
X127625000Y-96700000D01*
G75*
G02*
X127500000Y-96825000I-125000J0D01*
G01*
G37*
G36*
G01*
X128150000Y-96825000D02*
X127900000Y-96825000D01*
G75*
G02*
X127775000Y-96700000I0J125000D01*
G01*
X127775000Y-95375000D01*
G75*
G02*
X127900000Y-95250000I125000J0D01*
G01*
X128150000Y-95250000D01*
G75*
G02*
X128275000Y-95375000I0J-125000D01*
G01*
X128275000Y-96700000D01*
G75*
G02*
X128150000Y-96825000I-125000J0D01*
G01*
G37*
G36*
G01*
X128800000Y-96825000D02*
X128550000Y-96825000D01*
G75*
G02*
X128425000Y-96700000I0J125000D01*
G01*
X128425000Y-95375000D01*
G75*
G02*
X128550000Y-95250000I125000J0D01*
G01*
X128800000Y-95250000D01*
G75*
G02*
X128925000Y-95375000I0J-125000D01*
G01*
X128925000Y-96700000D01*
G75*
G02*
X128800000Y-96825000I-125000J0D01*
G01*
G37*
G36*
G01*
X129450000Y-96825000D02*
X129200000Y-96825000D01*
G75*
G02*
X129075000Y-96700000I0J125000D01*
G01*
X129075000Y-95375000D01*
G75*
G02*
X129200000Y-95250000I125000J0D01*
G01*
X129450000Y-95250000D01*
G75*
G02*
X129575000Y-95375000I0J-125000D01*
G01*
X129575000Y-96700000D01*
G75*
G02*
X129450000Y-96825000I-125000J0D01*
G01*
G37*
G36*
G01*
X130100000Y-96825000D02*
X129850000Y-96825000D01*
G75*
G02*
X129725000Y-96700000I0J125000D01*
G01*
X129725000Y-95375000D01*
G75*
G02*
X129850000Y-95250000I125000J0D01*
G01*
X130100000Y-95250000D01*
G75*
G02*
X130225000Y-95375000I0J-125000D01*
G01*
X130225000Y-96700000D01*
G75*
G02*
X130100000Y-96825000I-125000J0D01*
G01*
G37*
G36*
G01*
X130750000Y-96825000D02*
X130500000Y-96825000D01*
G75*
G02*
X130375000Y-96700000I0J125000D01*
G01*
X130375000Y-95375000D01*
G75*
G02*
X130500000Y-95250000I125000J0D01*
G01*
X130750000Y-95250000D01*
G75*
G02*
X130875000Y-95375000I0J-125000D01*
G01*
X130875000Y-96700000D01*
G75*
G02*
X130750000Y-96825000I-125000J0D01*
G01*
G37*
G36*
G01*
X131400000Y-96825000D02*
X131150000Y-96825000D01*
G75*
G02*
X131025000Y-96700000I0J125000D01*
G01*
X131025000Y-95375000D01*
G75*
G02*
X131150000Y-95250000I125000J0D01*
G01*
X131400000Y-95250000D01*
G75*
G02*
X131525000Y-95375000I0J-125000D01*
G01*
X131525000Y-96700000D01*
G75*
G02*
X131400000Y-96825000I-125000J0D01*
G01*
G37*
G36*
G01*
X131400000Y-102550000D02*
X131150000Y-102550000D01*
G75*
G02*
X131025000Y-102425000I0J125000D01*
G01*
X131025000Y-101100000D01*
G75*
G02*
X131150000Y-100975000I125000J0D01*
G01*
X131400000Y-100975000D01*
G75*
G02*
X131525000Y-101100000I0J-125000D01*
G01*
X131525000Y-102425000D01*
G75*
G02*
X131400000Y-102550000I-125000J0D01*
G01*
G37*
G36*
G01*
X130750000Y-102550000D02*
X130500000Y-102550000D01*
G75*
G02*
X130375000Y-102425000I0J125000D01*
G01*
X130375000Y-101100000D01*
G75*
G02*
X130500000Y-100975000I125000J0D01*
G01*
X130750000Y-100975000D01*
G75*
G02*
X130875000Y-101100000I0J-125000D01*
G01*
X130875000Y-102425000D01*
G75*
G02*
X130750000Y-102550000I-125000J0D01*
G01*
G37*
G36*
G01*
X130100000Y-102550000D02*
X129850000Y-102550000D01*
G75*
G02*
X129725000Y-102425000I0J125000D01*
G01*
X129725000Y-101100000D01*
G75*
G02*
X129850000Y-100975000I125000J0D01*
G01*
X130100000Y-100975000D01*
G75*
G02*
X130225000Y-101100000I0J-125000D01*
G01*
X130225000Y-102425000D01*
G75*
G02*
X130100000Y-102550000I-125000J0D01*
G01*
G37*
G36*
G01*
X129450000Y-102550000D02*
X129200000Y-102550000D01*
G75*
G02*
X129075000Y-102425000I0J125000D01*
G01*
X129075000Y-101100000D01*
G75*
G02*
X129200000Y-100975000I125000J0D01*
G01*
X129450000Y-100975000D01*
G75*
G02*
X129575000Y-101100000I0J-125000D01*
G01*
X129575000Y-102425000D01*
G75*
G02*
X129450000Y-102550000I-125000J0D01*
G01*
G37*
G36*
G01*
X128800000Y-102550000D02*
X128550000Y-102550000D01*
G75*
G02*
X128425000Y-102425000I0J125000D01*
G01*
X128425000Y-101100000D01*
G75*
G02*
X128550000Y-100975000I125000J0D01*
G01*
X128800000Y-100975000D01*
G75*
G02*
X128925000Y-101100000I0J-125000D01*
G01*
X128925000Y-102425000D01*
G75*
G02*
X128800000Y-102550000I-125000J0D01*
G01*
G37*
G36*
G01*
X128150000Y-102550000D02*
X127900000Y-102550000D01*
G75*
G02*
X127775000Y-102425000I0J125000D01*
G01*
X127775000Y-101100000D01*
G75*
G02*
X127900000Y-100975000I125000J0D01*
G01*
X128150000Y-100975000D01*
G75*
G02*
X128275000Y-101100000I0J-125000D01*
G01*
X128275000Y-102425000D01*
G75*
G02*
X128150000Y-102550000I-125000J0D01*
G01*
G37*
G36*
G01*
X127500000Y-102550000D02*
X127250000Y-102550000D01*
G75*
G02*
X127125000Y-102425000I0J125000D01*
G01*
X127125000Y-101100000D01*
G75*
G02*
X127250000Y-100975000I125000J0D01*
G01*
X127500000Y-100975000D01*
G75*
G02*
X127625000Y-101100000I0J-125000D01*
G01*
X127625000Y-102425000D01*
G75*
G02*
X127500000Y-102550000I-125000J0D01*
G01*
G37*
G36*
G01*
X126850000Y-102550000D02*
X126600000Y-102550000D01*
G75*
G02*
X126475000Y-102425000I0J125000D01*
G01*
X126475000Y-101100000D01*
G75*
G02*
X126600000Y-100975000I125000J0D01*
G01*
X126850000Y-100975000D01*
G75*
G02*
X126975000Y-101100000I0J-125000D01*
G01*
X126975000Y-102425000D01*
G75*
G02*
X126850000Y-102550000I-125000J0D01*
G01*
G37*
%TD*%
M02*
