%TF.GenerationSoftware,KiCad,Pcbnew,(5.1.6-0)*%
%TF.CreationDate,2023-01-08T10:47:54+01:00*%
%TF.ProjectId,Raddswi_CIA_Adapter,52616464-7377-4695-9f43-49415f416461,rev?*%
%TF.SameCoordinates,Original*%
%TF.FileFunction,Legend,Top*%
%TF.FilePolarity,Positive*%
%FSLAX46Y46*%
G04 Gerber Fmt 4.6, Leading zero omitted, Abs format (unit mm)*
G04 Created by KiCad (PCBNEW (5.1.6-0)) date 2023-01-08 10:47:54*
%MOMM*%
%LPD*%
G01*
G04 APERTURE LIST*
%ADD10C,0.150000*%
%ADD11C,0.100000*%
%ADD12C,0.120000*%
G04 APERTURE END LIST*
D10*
X158695238Y-99418166D02*
X159171428Y-99418166D01*
X158600000Y-99703880D02*
X158933333Y-98703880D01*
X159266666Y-99703880D01*
X160028571Y-99037214D02*
X160028571Y-99703880D01*
X159790476Y-98656261D02*
X159552380Y-99370547D01*
X160171428Y-99370547D01*
X160742857Y-98703880D02*
X160838095Y-98703880D01*
X160933333Y-98751500D01*
X160980952Y-98799119D01*
X161028571Y-98894357D01*
X161076190Y-99084833D01*
X161076190Y-99322928D01*
X161028571Y-99513404D01*
X160980952Y-99608642D01*
X160933333Y-99656261D01*
X160838095Y-99703880D01*
X160742857Y-99703880D01*
X160647619Y-99656261D01*
X160600000Y-99608642D01*
X160552380Y-99513404D01*
X160504761Y-99322928D01*
X160504761Y-99084833D01*
X160552380Y-98894357D01*
X160600000Y-98799119D01*
X160647619Y-98751500D01*
X160742857Y-98703880D01*
X161695238Y-98703880D02*
X161790476Y-98703880D01*
X161885714Y-98751500D01*
X161933333Y-98799119D01*
X161980952Y-98894357D01*
X162028571Y-99084833D01*
X162028571Y-99322928D01*
X161980952Y-99513404D01*
X161933333Y-99608642D01*
X161885714Y-99656261D01*
X161790476Y-99703880D01*
X161695238Y-99703880D01*
X161600000Y-99656261D01*
X161552380Y-99608642D01*
X161504761Y-99513404D01*
X161457142Y-99322928D01*
X161457142Y-99084833D01*
X161504761Y-98894357D01*
X161552380Y-98799119D01*
X161600000Y-98751500D01*
X161695238Y-98703880D01*
X162647619Y-98703880D02*
X162742857Y-98703880D01*
X162838095Y-98751500D01*
X162885714Y-98799119D01*
X162933333Y-98894357D01*
X162980952Y-99084833D01*
X162980952Y-99322928D01*
X162933333Y-99513404D01*
X162885714Y-99608642D01*
X162838095Y-99656261D01*
X162742857Y-99703880D01*
X162647619Y-99703880D01*
X162552380Y-99656261D01*
X162504761Y-99608642D01*
X162457142Y-99513404D01*
X162409523Y-99322928D01*
X162409523Y-99084833D01*
X162457142Y-98894357D01*
X162504761Y-98799119D01*
X162552380Y-98751500D01*
X162647619Y-98703880D01*
X164171428Y-98703880D02*
X164171428Y-99513404D01*
X164219047Y-99608642D01*
X164266666Y-99656261D01*
X164361904Y-99703880D01*
X164552380Y-99703880D01*
X164647619Y-99656261D01*
X164695238Y-99608642D01*
X164742857Y-99513404D01*
X164742857Y-98703880D01*
X165123809Y-98703880D02*
X165742857Y-98703880D01*
X165409523Y-99084833D01*
X165552380Y-99084833D01*
X165647619Y-99132452D01*
X165695238Y-99180071D01*
X165742857Y-99275309D01*
X165742857Y-99513404D01*
X165695238Y-99608642D01*
X165647619Y-99656261D01*
X165552380Y-99703880D01*
X165266666Y-99703880D01*
X165171428Y-99656261D01*
X165123809Y-99608642D01*
X166361904Y-98703880D02*
X166457142Y-98703880D01*
X166552380Y-98751500D01*
X166600000Y-98799119D01*
X166647619Y-98894357D01*
X166695238Y-99084833D01*
X166695238Y-99322928D01*
X166647619Y-99513404D01*
X166600000Y-99608642D01*
X166552380Y-99656261D01*
X166457142Y-99703880D01*
X166361904Y-99703880D01*
X166266666Y-99656261D01*
X166219047Y-99608642D01*
X166171428Y-99513404D01*
X166123809Y-99322928D01*
X166123809Y-99084833D01*
X166171428Y-98894357D01*
X166219047Y-98799119D01*
X166266666Y-98751500D01*
X166361904Y-98703880D01*
X167314285Y-98703880D02*
X167409523Y-98703880D01*
X167504761Y-98751500D01*
X167552380Y-98799119D01*
X167600000Y-98894357D01*
X167647619Y-99084833D01*
X167647619Y-99322928D01*
X167600000Y-99513404D01*
X167552380Y-99608642D01*
X167504761Y-99656261D01*
X167409523Y-99703880D01*
X167314285Y-99703880D01*
X167219047Y-99656261D01*
X167171428Y-99608642D01*
X167123809Y-99513404D01*
X167076190Y-99322928D01*
X167076190Y-99084833D01*
X167123809Y-98894357D01*
X167171428Y-98799119D01*
X167219047Y-98751500D01*
X167314285Y-98703880D01*
X169409523Y-99608642D02*
X169361904Y-99656261D01*
X169219047Y-99703880D01*
X169123809Y-99703880D01*
X168980952Y-99656261D01*
X168885714Y-99561023D01*
X168838095Y-99465785D01*
X168790476Y-99275309D01*
X168790476Y-99132452D01*
X168838095Y-98941976D01*
X168885714Y-98846738D01*
X168980952Y-98751500D01*
X169123809Y-98703880D01*
X169219047Y-98703880D01*
X169361904Y-98751500D01*
X169409523Y-98799119D01*
X169838095Y-99703880D02*
X169838095Y-98703880D01*
X170266666Y-99418166D02*
X170742857Y-99418166D01*
X170171428Y-99703880D02*
X170504761Y-98703880D01*
X170838095Y-99703880D01*
X157719047Y-101306261D02*
X157861904Y-101353880D01*
X158100000Y-101353880D01*
X158195238Y-101306261D01*
X158242857Y-101258642D01*
X158290476Y-101163404D01*
X158290476Y-101068166D01*
X158242857Y-100972928D01*
X158195238Y-100925309D01*
X158100000Y-100877690D01*
X157909523Y-100830071D01*
X157814285Y-100782452D01*
X157766666Y-100734833D01*
X157719047Y-100639595D01*
X157719047Y-100544357D01*
X157766666Y-100449119D01*
X157814285Y-100401500D01*
X157909523Y-100353880D01*
X158147619Y-100353880D01*
X158290476Y-100401500D01*
X159100000Y-101306261D02*
X159004761Y-101353880D01*
X158814285Y-101353880D01*
X158719047Y-101306261D01*
X158671428Y-101211023D01*
X158671428Y-100830071D01*
X158719047Y-100734833D01*
X158814285Y-100687214D01*
X159004761Y-100687214D01*
X159100000Y-100734833D01*
X159147619Y-100830071D01*
X159147619Y-100925309D01*
X158671428Y-101020547D01*
X159576190Y-101353880D02*
X159576190Y-100687214D01*
X159576190Y-100877690D02*
X159623809Y-100782452D01*
X159671428Y-100734833D01*
X159766666Y-100687214D01*
X159861904Y-100687214D01*
X160528571Y-100830071D02*
X160671428Y-100877690D01*
X160719047Y-100925309D01*
X160766666Y-101020547D01*
X160766666Y-101163404D01*
X160719047Y-101258642D01*
X160671428Y-101306261D01*
X160576190Y-101353880D01*
X160195238Y-101353880D01*
X160195238Y-100353880D01*
X160528571Y-100353880D01*
X160623809Y-100401500D01*
X160671428Y-100449119D01*
X160719047Y-100544357D01*
X160719047Y-100639595D01*
X160671428Y-100734833D01*
X160623809Y-100782452D01*
X160528571Y-100830071D01*
X160195238Y-100830071D01*
X161195238Y-101353880D02*
X161195238Y-100687214D01*
X161195238Y-100353880D02*
X161147619Y-100401500D01*
X161195238Y-100449119D01*
X161242857Y-100401500D01*
X161195238Y-100353880D01*
X161195238Y-100449119D01*
X161528571Y-100687214D02*
X161909523Y-100687214D01*
X161671428Y-100353880D02*
X161671428Y-101211023D01*
X161719047Y-101306261D01*
X161814285Y-101353880D01*
X161909523Y-101353880D01*
X162195238Y-101306261D02*
X162290476Y-101353880D01*
X162480952Y-101353880D01*
X162576190Y-101306261D01*
X162623809Y-101211023D01*
X162623809Y-101163404D01*
X162576190Y-101068166D01*
X162480952Y-101020547D01*
X162338095Y-101020547D01*
X162242857Y-100972928D01*
X162195238Y-100877690D01*
X162195238Y-100830071D01*
X162242857Y-100734833D01*
X162338095Y-100687214D01*
X162480952Y-100687214D01*
X162576190Y-100734833D01*
X164147619Y-100830071D02*
X163814285Y-100830071D01*
X163814285Y-101353880D02*
X163814285Y-100353880D01*
X164290476Y-100353880D01*
X165100000Y-101353880D02*
X165100000Y-100830071D01*
X165052380Y-100734833D01*
X164957142Y-100687214D01*
X164766666Y-100687214D01*
X164671428Y-100734833D01*
X165100000Y-101306261D02*
X165004761Y-101353880D01*
X164766666Y-101353880D01*
X164671428Y-101306261D01*
X164623809Y-101211023D01*
X164623809Y-101115785D01*
X164671428Y-101020547D01*
X164766666Y-100972928D01*
X165004761Y-100972928D01*
X165100000Y-100925309D01*
X165576190Y-100687214D02*
X165576190Y-101353880D01*
X165576190Y-100782452D02*
X165623809Y-100734833D01*
X165719047Y-100687214D01*
X165861904Y-100687214D01*
X165957142Y-100734833D01*
X166004761Y-100830071D01*
X166004761Y-101353880D01*
X167433333Y-100353880D02*
X167623809Y-100353880D01*
X167719047Y-100401500D01*
X167814285Y-100496738D01*
X167861904Y-100687214D01*
X167861904Y-101020547D01*
X167814285Y-101211023D01*
X167719047Y-101306261D01*
X167623809Y-101353880D01*
X167433333Y-101353880D01*
X167338095Y-101306261D01*
X167242857Y-101211023D01*
X167195238Y-101020547D01*
X167195238Y-100687214D01*
X167242857Y-100496738D01*
X167338095Y-100401500D01*
X167433333Y-100353880D01*
X168719047Y-100687214D02*
X168719047Y-101353880D01*
X168290476Y-100687214D02*
X168290476Y-101211023D01*
X168338095Y-101306261D01*
X168433333Y-101353880D01*
X168576190Y-101353880D01*
X168671428Y-101306261D01*
X168719047Y-101258642D01*
X169052380Y-100687214D02*
X169433333Y-100687214D01*
X169195238Y-100353880D02*
X169195238Y-101211023D01*
X169242857Y-101306261D01*
X169338095Y-101353880D01*
X169433333Y-101353880D01*
X170719047Y-100353880D02*
X170814285Y-100353880D01*
X170909523Y-100401500D01*
X170957142Y-100449119D01*
X171004761Y-100544357D01*
X171052380Y-100734833D01*
X171052380Y-100972928D01*
X171004761Y-101163404D01*
X170957142Y-101258642D01*
X170909523Y-101306261D01*
X170814285Y-101353880D01*
X170719047Y-101353880D01*
X170623809Y-101306261D01*
X170576190Y-101258642D01*
X170528571Y-101163404D01*
X170480952Y-100972928D01*
X170480952Y-100734833D01*
X170528571Y-100544357D01*
X170576190Y-100449119D01*
X170623809Y-100401500D01*
X170719047Y-100353880D01*
X171480952Y-101258642D02*
X171528571Y-101306261D01*
X171480952Y-101353880D01*
X171433333Y-101306261D01*
X171480952Y-101258642D01*
X171480952Y-101353880D01*
X172480952Y-101353880D02*
X171909523Y-101353880D01*
X172195238Y-101353880D02*
X172195238Y-100353880D01*
X172100000Y-100496738D01*
X172004761Y-100591976D01*
X171909523Y-100639595D01*
X158004761Y-103384833D02*
X157957142Y-103337214D01*
X157861904Y-103194357D01*
X157814285Y-103099119D01*
X157766666Y-102956261D01*
X157719047Y-102718166D01*
X157719047Y-102527690D01*
X157766666Y-102289595D01*
X157814285Y-102146738D01*
X157861904Y-102051500D01*
X157957142Y-101908642D01*
X158004761Y-101861023D01*
X158957142Y-102908642D02*
X158909523Y-102956261D01*
X158766666Y-103003880D01*
X158671428Y-103003880D01*
X158528571Y-102956261D01*
X158433333Y-102861023D01*
X158385714Y-102765785D01*
X158338095Y-102575309D01*
X158338095Y-102432452D01*
X158385714Y-102241976D01*
X158433333Y-102146738D01*
X158528571Y-102051500D01*
X158671428Y-102003880D01*
X158766666Y-102003880D01*
X158909523Y-102051500D01*
X158957142Y-102099119D01*
X159290476Y-103384833D02*
X159338095Y-103337214D01*
X159433333Y-103194357D01*
X159480952Y-103099119D01*
X159528571Y-102956261D01*
X159576190Y-102718166D01*
X159576190Y-102527690D01*
X159528571Y-102289595D01*
X159480952Y-102146738D01*
X159433333Y-102051500D01*
X159338095Y-101908642D01*
X159290476Y-101861023D01*
X160766666Y-102099119D02*
X160814285Y-102051500D01*
X160909523Y-102003880D01*
X161147619Y-102003880D01*
X161242857Y-102051500D01*
X161290476Y-102099119D01*
X161338095Y-102194357D01*
X161338095Y-102289595D01*
X161290476Y-102432452D01*
X160719047Y-103003880D01*
X161338095Y-103003880D01*
X161957142Y-102003880D02*
X162052380Y-102003880D01*
X162147619Y-102051500D01*
X162195238Y-102099119D01*
X162242857Y-102194357D01*
X162290476Y-102384833D01*
X162290476Y-102622928D01*
X162242857Y-102813404D01*
X162195238Y-102908642D01*
X162147619Y-102956261D01*
X162052380Y-103003880D01*
X161957142Y-103003880D01*
X161861904Y-102956261D01*
X161814285Y-102908642D01*
X161766666Y-102813404D01*
X161719047Y-102622928D01*
X161719047Y-102384833D01*
X161766666Y-102194357D01*
X161814285Y-102099119D01*
X161861904Y-102051500D01*
X161957142Y-102003880D01*
X162671428Y-102099119D02*
X162719047Y-102051500D01*
X162814285Y-102003880D01*
X163052380Y-102003880D01*
X163147619Y-102051500D01*
X163195238Y-102099119D01*
X163242857Y-102194357D01*
X163242857Y-102289595D01*
X163195238Y-102432452D01*
X162623809Y-103003880D01*
X163242857Y-103003880D01*
X163576190Y-102003880D02*
X164195238Y-102003880D01*
X163861904Y-102384833D01*
X164004761Y-102384833D01*
X164100000Y-102432452D01*
X164147619Y-102480071D01*
X164195238Y-102575309D01*
X164195238Y-102813404D01*
X164147619Y-102908642D01*
X164100000Y-102956261D01*
X164004761Y-103003880D01*
X163719047Y-103003880D01*
X163623809Y-102956261D01*
X163576190Y-102908642D01*
X165385714Y-103003880D02*
X165385714Y-102003880D01*
X165385714Y-102480071D02*
X165957142Y-102480071D01*
X165957142Y-103003880D02*
X165957142Y-102003880D01*
X166433333Y-102908642D02*
X166480952Y-102956261D01*
X166433333Y-103003880D01*
X166385714Y-102956261D01*
X166433333Y-102908642D01*
X166433333Y-103003880D01*
X168242857Y-103003880D02*
X167909523Y-102527690D01*
X167671428Y-103003880D02*
X167671428Y-102003880D01*
X168052380Y-102003880D01*
X168147619Y-102051500D01*
X168195238Y-102099119D01*
X168242857Y-102194357D01*
X168242857Y-102337214D01*
X168195238Y-102432452D01*
X168147619Y-102480071D01*
X168052380Y-102527690D01*
X167671428Y-102527690D01*
X168671428Y-103003880D02*
X168671428Y-102337214D01*
X168671428Y-102003880D02*
X168623809Y-102051500D01*
X168671428Y-102099119D01*
X168719047Y-102051500D01*
X168671428Y-102003880D01*
X168671428Y-102099119D01*
X169576190Y-102956261D02*
X169480952Y-103003880D01*
X169290476Y-103003880D01*
X169195238Y-102956261D01*
X169147619Y-102908642D01*
X169100000Y-102813404D01*
X169100000Y-102527690D01*
X169147619Y-102432452D01*
X169195238Y-102384833D01*
X169290476Y-102337214D01*
X169480952Y-102337214D01*
X169576190Y-102384833D01*
X170004761Y-103003880D02*
X170004761Y-102003880D01*
X170433333Y-103003880D02*
X170433333Y-102480071D01*
X170385714Y-102384833D01*
X170290476Y-102337214D01*
X170147619Y-102337214D01*
X170052380Y-102384833D01*
X170004761Y-102432452D01*
X170766666Y-102337214D02*
X171147619Y-102337214D01*
X170909523Y-102003880D02*
X170909523Y-102861023D01*
X170957142Y-102956261D01*
X171052380Y-103003880D01*
X171147619Y-103003880D01*
X171861904Y-102956261D02*
X171766666Y-103003880D01*
X171576190Y-103003880D01*
X171480952Y-102956261D01*
X171433333Y-102861023D01*
X171433333Y-102480071D01*
X171480952Y-102384833D01*
X171576190Y-102337214D01*
X171766666Y-102337214D01*
X171861904Y-102384833D01*
X171909523Y-102480071D01*
X171909523Y-102575309D01*
X171433333Y-102670547D01*
X172338095Y-103003880D02*
X172338095Y-102337214D01*
X172338095Y-102527690D02*
X172385714Y-102432452D01*
X172433333Y-102384833D01*
X172528571Y-102337214D01*
X172623809Y-102337214D01*
X151790495Y-103779700D02*
X151695257Y-103732080D01*
X151552400Y-103732080D01*
X151409542Y-103779700D01*
X151314304Y-103874938D01*
X151266685Y-103970176D01*
X151219066Y-104160652D01*
X151219066Y-104303509D01*
X151266685Y-104493985D01*
X151314304Y-104589223D01*
X151409542Y-104684461D01*
X151552400Y-104732080D01*
X151647638Y-104732080D01*
X151790495Y-104684461D01*
X151838114Y-104636842D01*
X151838114Y-104303509D01*
X151647638Y-104303509D01*
X152266685Y-104732080D02*
X152266685Y-103732080D01*
X152838114Y-104732080D01*
X152838114Y-103732080D01*
X153314304Y-104732080D02*
X153314304Y-103732080D01*
X153552400Y-103732080D01*
X153695257Y-103779700D01*
X153790495Y-103874938D01*
X153838114Y-103970176D01*
X153885733Y-104160652D01*
X153885733Y-104303509D01*
X153838114Y-104493985D01*
X153790495Y-104589223D01*
X153695257Y-104684461D01*
X153552400Y-104732080D01*
X153314304Y-104732080D01*
X151852380Y-107194622D02*
X151804761Y-107242241D01*
X151661904Y-107289860D01*
X151566666Y-107289860D01*
X151423809Y-107242241D01*
X151328571Y-107147003D01*
X151280952Y-107051765D01*
X151233333Y-106861289D01*
X151233333Y-106718432D01*
X151280952Y-106527956D01*
X151328571Y-106432718D01*
X151423809Y-106337480D01*
X151566666Y-106289860D01*
X151661904Y-106289860D01*
X151804761Y-106337480D01*
X151852380Y-106385099D01*
X152138095Y-106289860D02*
X152709523Y-106289860D01*
X152423809Y-107289860D02*
X152423809Y-106289860D01*
X152995238Y-107242241D02*
X153138095Y-107289860D01*
X153376190Y-107289860D01*
X153471428Y-107242241D01*
X153519047Y-107194622D01*
X153566666Y-107099384D01*
X153566666Y-107004146D01*
X153519047Y-106908908D01*
X153471428Y-106861289D01*
X153376190Y-106813670D01*
X153185714Y-106766051D01*
X153090476Y-106718432D01*
X153042857Y-106670813D01*
X152995238Y-106575575D01*
X152995238Y-106480337D01*
X153042857Y-106385099D01*
X153090476Y-106337480D01*
X153185714Y-106289860D01*
X153423809Y-106289860D01*
X153566666Y-106337480D01*
X151257142Y-109799380D02*
X151257142Y-108799380D01*
X151495238Y-108799380D01*
X151638095Y-108847000D01*
X151733333Y-108942238D01*
X151780952Y-109037476D01*
X151828571Y-109227952D01*
X151828571Y-109370809D01*
X151780952Y-109561285D01*
X151733333Y-109656523D01*
X151638095Y-109751761D01*
X151495238Y-109799380D01*
X151257142Y-109799380D01*
X152114285Y-108799380D02*
X152685714Y-108799380D01*
X152400000Y-109799380D02*
X152400000Y-108799380D01*
X153590476Y-109799380D02*
X153257142Y-109323190D01*
X153019047Y-109799380D02*
X153019047Y-108799380D01*
X153400000Y-108799380D01*
X153495238Y-108847000D01*
X153542857Y-108894619D01*
X153590476Y-108989857D01*
X153590476Y-109132714D01*
X153542857Y-109227952D01*
X153495238Y-109275571D01*
X153400000Y-109323190D01*
X153019047Y-109323190D01*
X151090380Y-111950476D02*
X151090380Y-112426666D01*
X151566571Y-112474285D01*
X151518952Y-112426666D01*
X151471333Y-112331428D01*
X151471333Y-112093333D01*
X151518952Y-111998095D01*
X151566571Y-111950476D01*
X151661809Y-111902857D01*
X151899904Y-111902857D01*
X151995142Y-111950476D01*
X152042761Y-111998095D01*
X152090380Y-112093333D01*
X152090380Y-112331428D01*
X152042761Y-112426666D01*
X151995142Y-112474285D01*
X151090380Y-111617142D02*
X152090380Y-111283809D01*
X151090380Y-110950476D01*
D11*
%TO.C,REF\u002A\u002A*%
G36*
X155130500Y-95885000D02*
G01*
X157035500Y-95885000D01*
X157035500Y-97155000D01*
X155130500Y-97155000D01*
X155130500Y-95885000D01*
G37*
X155130500Y-95885000D02*
X157035500Y-95885000D01*
X157035500Y-97155000D01*
X155130500Y-97155000D01*
X155130500Y-95885000D01*
G36*
X155765500Y-97155000D02*
G01*
X155765500Y-97790000D01*
X156400500Y-97790000D01*
X156400500Y-97155000D01*
X155765500Y-97155000D01*
G37*
X155765500Y-97155000D02*
X155765500Y-97790000D01*
X156400500Y-97790000D01*
X156400500Y-97155000D01*
X155765500Y-97155000D01*
G36*
X155130500Y-97790000D02*
G01*
X154495500Y-97790000D01*
X154495500Y-98425000D01*
X155130500Y-98425000D01*
X155130500Y-97790000D01*
G37*
X155130500Y-97790000D02*
X154495500Y-97790000D01*
X154495500Y-98425000D01*
X155130500Y-98425000D01*
X155130500Y-97790000D01*
G36*
X154495500Y-97790000D02*
G01*
X154495500Y-96520000D01*
X153860500Y-96520000D01*
X153860500Y-97790000D01*
X154495500Y-97790000D01*
G37*
X154495500Y-97790000D02*
X154495500Y-96520000D01*
X153860500Y-96520000D01*
X153860500Y-97790000D01*
X154495500Y-97790000D01*
G36*
X155130500Y-97790000D02*
G01*
X157035500Y-97790000D01*
X157035500Y-98425000D01*
X155130500Y-98425000D01*
X155130500Y-97790000D01*
G37*
X155130500Y-97790000D02*
X157035500Y-97790000D01*
X157035500Y-98425000D01*
X155130500Y-98425000D01*
X155130500Y-97790000D01*
G36*
X157035500Y-98425000D02*
G01*
X157035500Y-99695000D01*
X157670500Y-99695000D01*
X157670500Y-98425000D01*
X157035500Y-98425000D01*
G37*
X157035500Y-98425000D02*
X157035500Y-99695000D01*
X157670500Y-99695000D01*
X157670500Y-98425000D01*
X157035500Y-98425000D01*
G36*
X156400500Y-98425000D02*
G01*
X156400500Y-99060000D01*
X155130500Y-99060000D01*
X155130500Y-98425000D01*
X156400500Y-98425000D01*
G37*
X156400500Y-98425000D02*
X156400500Y-99060000D01*
X155130500Y-99060000D01*
X155130500Y-98425000D01*
X156400500Y-98425000D01*
G36*
X156400500Y-99060000D02*
G01*
X156400500Y-100330000D01*
X155765500Y-100330000D01*
X155765500Y-99060000D01*
X156400500Y-99060000D01*
G37*
X156400500Y-99060000D02*
X156400500Y-100330000D01*
X155765500Y-100330000D01*
X155765500Y-99060000D01*
X156400500Y-99060000D01*
G36*
X156400500Y-99695000D02*
G01*
X157035500Y-99695000D01*
X157035500Y-100965000D01*
X156400500Y-100965000D01*
X156400500Y-99695000D01*
G37*
X156400500Y-99695000D02*
X157035500Y-99695000D01*
X157035500Y-100965000D01*
X156400500Y-100965000D01*
X156400500Y-99695000D01*
G36*
X155130500Y-99060000D02*
G01*
X155130500Y-99695000D01*
X154495500Y-99695000D01*
X154495500Y-99060000D01*
X155130500Y-99060000D01*
G37*
X155130500Y-99060000D02*
X155130500Y-99695000D01*
X154495500Y-99695000D01*
X154495500Y-99060000D01*
X155130500Y-99060000D01*
G36*
X155130500Y-99695000D02*
G01*
X155130500Y-100330000D01*
X153860500Y-100330000D01*
X153860500Y-99695000D01*
X155130500Y-99695000D01*
G37*
X155130500Y-99695000D02*
X155130500Y-100330000D01*
X153860500Y-100330000D01*
X153860500Y-99695000D01*
X155130500Y-99695000D01*
D12*
%TO.C,J1*%
X148376820Y-113211920D02*
X148376820Y-102931920D01*
X148376820Y-102931920D02*
X145716820Y-102931920D01*
X145716820Y-102931920D02*
X145716820Y-113211920D01*
X145716820Y-113211920D02*
X148376820Y-113211920D01*
X145716820Y-112261920D02*
X139716820Y-112261920D01*
X139716820Y-112261920D02*
X139716820Y-111501920D01*
X139716820Y-111501920D02*
X145716820Y-111501920D01*
X145716820Y-112201920D02*
X139716820Y-112201920D01*
X145716820Y-112081920D02*
X139716820Y-112081920D01*
X145716820Y-111961920D02*
X139716820Y-111961920D01*
X145716820Y-111841920D02*
X139716820Y-111841920D01*
X145716820Y-111721920D02*
X139716820Y-111721920D01*
X145716820Y-111601920D02*
X139716820Y-111601920D01*
X148706820Y-112261920D02*
X148376820Y-112261920D01*
X148706820Y-111501920D02*
X148376820Y-111501920D01*
X148376820Y-110611920D02*
X145716820Y-110611920D01*
X145716820Y-109721920D02*
X139716820Y-109721920D01*
X139716820Y-109721920D02*
X139716820Y-108961920D01*
X139716820Y-108961920D02*
X145716820Y-108961920D01*
X148773891Y-109721920D02*
X148376820Y-109721920D01*
X148773891Y-108961920D02*
X148376820Y-108961920D01*
X148376820Y-108071920D02*
X145716820Y-108071920D01*
X145716820Y-107181920D02*
X139716820Y-107181920D01*
X139716820Y-107181920D02*
X139716820Y-106421920D01*
X139716820Y-106421920D02*
X145716820Y-106421920D01*
X148773891Y-107181920D02*
X148376820Y-107181920D01*
X148773891Y-106421920D02*
X148376820Y-106421920D01*
X148376820Y-105531920D02*
X145716820Y-105531920D01*
X145716820Y-104641920D02*
X139716820Y-104641920D01*
X139716820Y-104641920D02*
X139716820Y-103881920D01*
X139716820Y-103881920D02*
X145716820Y-103881920D01*
X148773891Y-104641920D02*
X148376820Y-104641920D01*
X148773891Y-103881920D02*
X148376820Y-103881920D01*
X151086820Y-111881920D02*
X151086820Y-113151920D01*
X151086820Y-113151920D02*
X149816820Y-113151920D01*
D10*
X146264380Y-112111113D02*
X146978666Y-112111113D01*
X147121523Y-112158732D01*
X147216761Y-112253970D01*
X147264380Y-112396827D01*
X147264380Y-112492065D01*
X147264380Y-111111113D02*
X147264380Y-111682541D01*
X147264380Y-111396827D02*
X146264380Y-111396827D01*
X146407238Y-111492065D01*
X146502476Y-111587303D01*
X146550095Y-111682541D01*
%TD*%
M02*
