%TF.GenerationSoftware,KiCad,Pcbnew,(5.1.6-0)*%
%TF.CreationDate,2023-01-08T10:47:54+01:00*%
%TF.ProjectId,Raddswi_CIA_Adapter,52616464-7377-4695-9f43-49415f416461,rev?*%
%TF.SameCoordinates,Original*%
%TF.FileFunction,Paste,Bot*%
%TF.FilePolarity,Positive*%
%FSLAX46Y46*%
G04 Gerber Fmt 4.6, Leading zero omitted, Abs format (unit mm)*
G04 Created by KiCad (PCBNEW (5.1.6-0)) date 2023-01-08 10:47:54*
%MOMM*%
%LPD*%
G01*
G04 APERTURE LIST*
%ADD10R,0.700000X1.925000*%
%ADD11R,1.925000X0.700000*%
G04 APERTURE END LIST*
D10*
%TO.C,U1*%
X157345380Y-106950440D03*
X158615380Y-106950440D03*
X159885380Y-106950440D03*
X161155380Y-106950440D03*
X162425380Y-106950440D03*
X163695380Y-106950440D03*
X164965380Y-106950440D03*
X166235380Y-106950440D03*
X167505380Y-106950440D03*
X168775380Y-106950440D03*
X170045380Y-106950440D03*
D11*
X171557880Y-105437940D03*
X171557880Y-104167940D03*
X171557880Y-102897940D03*
X171557880Y-101627940D03*
X171557880Y-100357940D03*
X171557880Y-99087940D03*
X171557880Y-97817940D03*
X171557880Y-96547940D03*
X171557880Y-95277940D03*
X171557880Y-94007940D03*
X171557880Y-92737940D03*
D10*
X170045380Y-91225440D03*
X168775380Y-91225440D03*
X167505380Y-91225440D03*
X166235380Y-91225440D03*
X164965380Y-91225440D03*
X163695380Y-91225440D03*
X162425380Y-91225440D03*
X161155380Y-91225440D03*
X159885380Y-91225440D03*
X158615380Y-91225440D03*
X157345380Y-91225440D03*
D11*
X155832880Y-105437940D03*
X155832880Y-104167940D03*
X155832880Y-102897940D03*
X155832880Y-101627940D03*
X155832880Y-100357940D03*
X155832880Y-92737940D03*
X155832880Y-94007940D03*
X155832880Y-95277940D03*
X155832880Y-96547940D03*
X155832880Y-97817940D03*
X155832880Y-99087940D03*
%TD*%
M02*
